<?xml version="1.0" encoding="UTF-8" standalone="no"?>
<svg
   width="324.587"
   height="301.854"
   viewBox="0 0 243.44 226.391"
   version="1.1"
   id="svg342"
   sodipodi:docname="runtimes_per_domain_size-1.svg"
   inkscape:version="1.4 (e7c3feb1, 2024-10-09)"
   xmlns:inkscape="http://www.inkscape.org/namespaces/inkscape"
   xmlns:sodipodi="http://sodipodi.sourceforge.net/DTD/sodipodi-0.dtd"
   xmlns:xlink="http://www.w3.org/1999/xlink"
   xmlns="http://www.w3.org/2000/svg"
   xmlns:svg="http://www.w3.org/2000/svg">
  <defs
     id="defs342" />
  <sodipodi:namedview
     id="namedview342"
     pagecolor="#ffffff"
     bordercolor="#000000"
     borderopacity="0.25"
     inkscape:showpageshadow="2"
     inkscape:pageopacity="0.0"
     inkscape:pagecheckerboard="0"
     inkscape:deskcolor="#d1d1d1"
     inkscape:zoom="1.5855939"
     inkscape:cx="42.570798"
     inkscape:cy="208.75458"
     inkscape:window-width="1728"
     inkscape:window-height="939"
     inkscape:window-x="0"
     inkscape:window-y="38"
     inkscape:window-maximized="0"
     inkscape:current-layer="svg342" />
  <path
     d="M 0,226.39 H 243.44 V 0 H 0 Z"
     fill="#ffffff"
     id="path1"
     sodipodi:nodetypes="ccccc" />
  <path
     d="M48.987 187.38h181.35V7.2H48.987z"
     fill="#fff"
     id="path2" />
  <path
     stroke-width=".8"
     stroke-linejoin="round"
     fill="none"
     stroke="#000"
     d="M72.798 187.38v3.5"
     id="path3" />
  <symbol
     id="a">
    <path
       d="M.205.64c0 .024 0 .026-.023.026C.12.602.032.602 0 .602V.571a.3.3 0 0 1 .131.026V.079C.131.043.128.031.038.031H.006V0c.035.003.122.003.162.003.04 0 .127 0 .162-.003v.031H.298c-.09 0-.093.011-.093.048V.64z"
       id="path4" />
  </symbol>
  <symbol
     id="b">
    <path
       d="M.421.342c0 .08-.005.16-.04.234A.185.185 0 0 1 .037.569.535.535 0 0 1 0 .342C0 .267.004.177.045.101A.183.183 0 0 1 .21 0c.054 0 .13.021.174.116a.533.533 0 0 1 .037.226M.21.022C.171.022.112.047.094.143.083.203.083.295.083.354c0 .064 0 .13.008.184C.11.657.185.666.21.666.243.666.309.648.328.549c.01-.056.01-.132.01-.195 0-.075 0-.143-.011-.207C.312.052.255.022.21.022z"
       id="path5" />
  </symbol>
  <use
     xlink:href="#a"
     transform="matrix(9.96264 0 0 -9.96264 66.717 201.298)"
     id="use5" />
  <use
     xlink:href="#b"
     transform="matrix(9.96264 0 0 -9.96264 71.2 201.518)"
     id="use6" />
  <symbol
     id="c">
    <path
       d="M.226.636c0 .027-.002.028-.03.028C.132.601.041.6 0 .6V.564c.024 0 .09 0 .145.028v-.51c0-.033 0-.046-.1-.046H.007V0l.178.004L.364 0v.036H.326c-.1 0-.1.013-.1.046v.554z"
       id="path6" />
  </symbol>
  <use
     xlink:href="#c"
     transform="matrix(6.97385 0 0 -6.97385 76.553 197.683)"
     id="use7" />
  <path
     stroke-width=".8"
     stroke-linejoin="round"
     fill="none"
     stroke="#000"
     d="M111.916 187.38v3.5"
     id="path7" />
  <use
     xlink:href="#a"
     transform="matrix(9.96264 0 0 -9.96264 105.836 201.298)"
     id="use8" />
  <use
     xlink:href="#b"
     transform="matrix(9.96264 0 0 -9.96264 110.32 201.518)"
     id="use9" />
  <symbol
     id="d">
    <path
       d="M.442.182H.408C.405.16.395.101.382.091.374.085.297.085.283.085H.099a3.5 3.5 0 0 0 .2.168c.074.059.143.121.143.216C.442.59.336.664.208.664.084.664 0 .577 0 .485 0 .434.043.429.053.429c.024 0 .053.017.053.053C.106.5.099.535.047.535a.157.157 0 0 0 .146.093c.1 0 .152-.078.152-.159C.345.382.283.313.251.277L.01.039C0 .03 0 .028 0 0h.412l.03.182z"
       id="path9" />
  </symbol>
  <use
     xlink:href="#d"
     transform="matrix(6.97385 0 0 -6.97385 115.352 197.683)"
     id="use10" />
  <path
     stroke-width=".8"
     stroke-linejoin="round"
     fill="none"
     stroke="#000"
     d="M151.035 187.38v3.5"
     id="path10" />
  <use
     xlink:href="#a"
     transform="matrix(9.96264 0 0 -9.96264 144.955 201.298)"
     id="use11" />
  <use
     xlink:href="#b"
     transform="matrix(9.96264 0 0 -9.96264 149.438 201.518)"
     id="use12" />
  <symbol
     id="e">
    <path
       d="M.219.354C.297.354.353.3.353.193.353.069.281.032.223.032c-.04 0-.128.011-.17.07C.1.104.111.137.111.158a.054.054 0 0 1-.055.055C.028.213 0 .196 0 .155 0 .061.104 0 .225 0 .364 0 .46.093.46.193.46.271.396.349.286.372.391.41.429.485.429.546c0 .079-.091.138-.202.138C.116.684.031.63.031.55c0-.034.022-.053.052-.053a.05.05 0 0 1 .051.051c0 .029-.02.05-.051.052.035.044.104.055.141.055.045 0 .108-.022.108-.109a.192.192 0 0 0-.04-.119C.259.389.231.387.181.384L.149.381C.147.381.139.379.139.368c0-.014.009-.014.026-.014h.054z"
       id="path12" />
  </symbol>
  <use
     xlink:href="#e"
     transform="matrix(6.97385 0 0 -6.97385 154.408 197.823)"
     id="use13" />
  <path
     stroke-width=".8"
     stroke-linejoin="round"
     fill="none"
     stroke="#000"
     d="M190.154 187.38v3.5"
     id="path13" />
  <use
     xlink:href="#a"
     transform="matrix(9.96264 0 0 -9.96264 184.074 201.298)"
     id="use14" />
  <use
     xlink:href="#b"
     transform="matrix(9.96264 0 0 -9.96264 188.557 201.518)"
     id="use15" />
  <symbol
     id="f">
    <path
       d="M.49.164V.2H.379v.446c0 .021 0 .028-.022.028-.012 0-.016 0-.026-.014L0 .2V.164h.294V.082c0-.034 0-.046-.081-.046H.186V0l.15.004L.487 0v.036H.46C.379.036.379.048.379.082v.082H.49M.301.566V.2H.037l.264.366z"
       id="path15" />
  </symbol>
  <use
     xlink:href="#f"
     transform="matrix(6.97385 0 0 -6.97385 193.422 197.683)"
     id="use16" />
  <path
     stroke-width=".8"
     stroke-linejoin="round"
     fill="none"
     stroke="#000"
     d="M229.273 187.38v3.5"
     id="path16" />
  <use
     xlink:href="#a"
     transform="matrix(9.96264 0 0 -9.96264 223.193 201.298)"
     id="use17" />
  <use
     xlink:href="#b"
     transform="matrix(9.96264 0 0 -9.96264 227.676 201.518)"
     id="use18" />
  <symbol
     id="g">
    <path
       d="M.092.578C.143.565.173.565.189.565c.132 0 .21.09.21.105 0 .011-.007.014-.012.014-.002 0-.004 0-.008-.003C.355.672.302.652.228.652a.398.398 0 0 0-.146.027C.072.684.07.684.069.684.056.684.056.673.056.657V.362c0-.017 0-.029.016-.029.009 0 .01.002.02.014A.171.171 0 0 0 .231.41C.291.41.318.362.323.354A.258.258 0 0 0 .347.225c0-.03 0-.089-.03-.133A.142.142 0 0 0 .2.032a.166.166 0 0 0-.157.102C.081.131.1.156.1.183.1.226.063.234.05.234.048.234 0 .234 0 .18 0 .09.082 0 .202 0c.128 0 .24.095.24.221a.213.213 0 0 1-.21.217.21.21 0 0 1-.14-.049v.189z"
       id="path18" />
  </symbol>
  <use
     xlink:href="#g"
     transform="matrix(6.97385 0 0 -6.97385 232.708 197.823)"
     id="use19" />
  <path
     stroke-width=".6"
     stroke-linejoin="round"
     fill="none"
     stroke="#000"
     d="M52.343 187.38v2M57.23 187.38v2M61.022 187.38v2M64.119 187.38v2M66.738 187.38v2M69.007 187.38v2M71.008 187.38v2M84.573 187.38v2M91.462 187.38v2M96.35 187.38v2M100.14 187.38v2M103.238 187.38v2M105.857 187.38v2M108.125 187.38v2M110.126 187.38v2M123.692 187.38v2M130.58 187.38v2M135.468 187.38v2M139.26 187.38v2M142.357 187.38v2M144.976 187.38v2M147.244 187.38v2M149.245 187.38v2M162.811 187.38v2M169.7 187.38v2M174.587 187.38v2M178.378 187.38v2M181.476 187.38v2M184.095 187.38v2M186.363 187.38v2M188.364 187.38v2M201.93 187.38v2M208.819 187.38v2M213.706 187.38v2M217.497 187.38v2M220.595 187.38v2M223.214 187.38v2M225.482 187.38v2M227.483 187.38v2"
     id="path19" />
  <symbol
     id="h">
    <path
       d="M.265.693V.664C.333.664.341.657.341.608V.387a.156.156 0 0 1-.125.064A.221.221 0 0 1 0 .225C0 .098.095 0 .205 0c.076 0 .12.05.134.069V0L.48.01v.029C.412.039.404.046.404.095v.609L.265.693M.339.127c0-.018 0-.021-.014-.043A.142.142 0 0 0 .21.02C.184.02.076.03.076.224c0 .072.012.112.034.145C.13.4.17.431.22.431A.13.13 0 0 0 .327.37C.339.353.339.351.339.333V.127z"
       id="path20" />
  </symbol>
  <symbol
     id="i">
    <path
       d="M.429.224c0 .129-.098.232-.214.232C.095.456 0 .35 0 .224 0 .096.1 0 .214 0c.118 0 .215.098.215.224M.215.022a.127.127 0 0 0-.111.065.288.288 0 0 0-.028.146c0 .038 0 .099.031.144a.128.128 0 0 0 .215.002C.353.333.353.27.353.233c0-.035 0-.097-.026-.144A.13.13 0 0 0 .215.022z"
       id="path21" />
  </symbol>
  <symbol
     id="j">
    <path
       d="M.685.243c0 .093 0 .121-.023.153C.633.435.586.441.552.441A.151.151 0 0 1 .411.342C.397.419.343.441.28.441.183.441.145.358.137.338H.136v.103L0 .43V.401C.068.401.076.394.076.345V.074C.076.029.065.029 0 .029V0c.026.002.08.002.108.002.029 0 .083 0 .109-.002v.029c-.064 0-.076 0-.076.045V.26c0 .105.069.161.131.161S.348.37.348.309V.074C.348.029.337.029.272.029V0c.026.002.08.002.108.002.029 0 .083 0 .109-.002v.029c-.064 0-.076 0-.076.045V.26c0 .105.069.161.131.161S.62.37.62.309V.074C.62.029.609.029.544.029V0c.026.002.08.002.108.002.029 0 .083 0 .109-.002v.029c-.05 0-.075 0-.076.03v.184z"
       id="path22" />
  </symbol>
  <symbol
     id="k">
    <path
       d="M.342.277c0 .054 0 .094-.044.133a.182.182 0 0 1-.124.046C.092.456.029.402.029.337c0-.029.019-.043.042-.043a.04.04 0 0 1 .041.041c0 .041-.036.041-.051.041.023.042.071.06.111.06.046 0 .105-.038.105-.128v-.04C.076.265 0 .181 0 .104 0 .025.092 0 .153 0c.066 0 .111.04.13.088C.287.041.318.005.361.005.382.005.44.019.44.099v.056H.418V.099C.418.042.394.034.38.034.342.034.342.087.342.102v.175M.277.151C.277.053.204.02.161.02c-.049 0-.09.036-.09.084 0 .132.17.144.206.146V.151z"
       id="path23" />
  </symbol>
  <symbol
     id="l">
    <path
       d="M.141.616a.05.05 0 0 1-.049.049.048.048 0 0 1-.048-.048c0-.03.024-.049.048-.049.031 0 .049.026.049.048M.003.43V.401C.067.401.076.395.076.346V.074C.076.029.065.029 0 .029V0c.028.002.076.002.105.002.011 0 .069 0 .103-.002v.029C.143.029.139.034.139.073v.368L.003.43z"
       id="path24" />
  </symbol>
  <symbol
     id="m">
    <path
       d="M.413.243c0 .093 0 .121-.023.153C.361.435.314.441.28.441.183.441.145.358.137.338H.136v.103L0 .43V.401C.068.401.076.394.076.345V.074C.076.029.065.029 0 .029V0c.026.002.08.002.108.002.029 0 .083 0 .109-.002v.029c-.064 0-.076 0-.076.045V.26c0 .105.069.161.131.161S.348.37.348.309V.074C.348.029.337.029.272.029V0c.026.002.08.002.108.002.029 0 .083 0 .109-.002v.029c-.05 0-.075 0-.076.03v.184z"
       id="path25" />
  </symbol>
  <symbol
     id="n">
    <path
       d="M.295.433c0 .018 0 .023-.01.023C.277.456.258.434.251.425a.14.14 0 0 1-.094.031C.036.456 0 .39 0 .335 0 .324 0 .289.038.254.07.226.104.219.15.21.205.199.218.196.243.176A.083.083 0 0 0 .274.111C.274.068.249.02.161.02.095.02.047.058.025.158L.02.178C.018.182.014.182.011.182 0 .182 0 .177 0 .159V.023C0 .005 0 0 .01 0c.005 0 .006.001.023.022.005.007.005.009.02.025C.091 0 .145 0 .162 0c.105 0 .157.058.157.137 0 .054-.033.086-.042.095C.241.263.214.269.148.281c-.03.006-.103.02-.103.08 0 .031.021.077.111.077.109 0 .115-.093.117-.124C.274.306.281.306.284.306c.011 0 .011.005.011.023v.104z"
       id="path26" />
  </symbol>
  <symbol
     id="o">
    <path
       d="M.354.403C.363.414.363.416.363.42c0 .011-.007.011-.024.011H.025L.014.272h.022C.042.374.061.411.17.411h.116L0 .018C0 0 .002 0 .024 0H.35l.016.184H.344C.335.07.318.022.199.022H.078l.276.381z"
       id="path27" />
  </symbol>
  <symbol
     id="p">
    <path
       d="M.353.242c.022 0 .024 0 .024.019 0 .101-.054.195-.175.195C.088.456 0 .353 0 .229 0 .097.102 0 .213 0c.119 0 .164.108.164.129 0 .006-.005.01-.011.01-.008 0-.01-.005-.012-.01A.142.142 0 0 0 .219.022C.177.022.076.05.076.223v.019h.277M.077.261c.008.157.096.175.124.175.107 0 .113-.141.114-.175H.077z"
       id="path28" />
  </symbol>
  <use
     xlink:href="#h"
     transform="matrix(11.95517 0 0 -11.95517 99.722 216.322)"
     id="use28" />
  <use
     xlink:href="#i"
     transform="matrix(11.95517 0 0 -11.95517 106.154 216.322)"
     id="use29" />
  <use
     xlink:href="#j"
     transform="matrix(11.95517 0 0 -11.95517 112.024 216.202)"
     id="use30" />
  <use
     xlink:href="#k"
     transform="matrix(11.95517 0 0 -11.95517 121.91 216.322)"
     id="use31" />
  <use
     xlink:href="#l"
     transform="matrix(11.95517 0 0 -11.95517 127.625 216.202)"
     id="use32" />
  <use
     xlink:href="#m"
     transform="matrix(11.95517 0 0 -11.95517 130.853 216.202)"
     id="use33" />
  <use
     xlink:href="#n"
     transform="matrix(11.95517 0 0 -11.95517 141.259 216.322)"
     id="use34" />
  <use
     xlink:href="#l"
     transform="matrix(11.95517 0 0 -11.95517 145.874 216.202)"
     id="use35" />
  <use
     xlink:href="#o"
     transform="matrix(11.95517 0 0 -11.95517 149.042 216.202)"
     id="use36" />
  <use
     xlink:href="#p"
     transform="matrix(11.95517 0 0 -11.95517 154.278 216.322)"
     id="use37" />
  <symbol
     id="q">
    <path
       d="M.04.964C.04.982.04 1 .02 1S0 .982 0 .964V.036C0 .018 0 0 .02 0s.02.018.02.036v.928z"
       id="path37" />
  </symbol>
  <symbol
     id="r">
    <path
       d="M.429.551C.421.626.411.683.341.683.246.683.181.615.181.587.181.58.187.58.192.58c.011 0 .055.013.073.047l.002.001C.322.628.335.597.345.494L.359.347A4.15 4.15 0 0 1 .116.196C.002.115 0 .085 0 .056 0 .022.018 0 .048 0c.03 0 .076.033.076.048 0 .005-.003.006-.007.007C.109.056.085.06.085.099c0 .027 0 .039.106.11.061.04.119.072.171.105L.379.145C.387.066.394 0 .468 0c.095 0 .16.068.16.096 0 .007-.005.007-.011.007A.106.106 0 0 1 .544.056L.534.055C.477.055.471.118.463.202L.447.364C.758.55.758.585.758.627.758.661.74.683.711.683.68.683.634.649.634.635.634.629.64.628.641.628.649.627.673.623.673.584.673.559.67.544.585.486A4.45 4.45 0 0 0 .444.398L.429.551z"
       id="path38" />
  </symbol>
  <use
     xlink:href="#q"
     transform="matrix(11.95517 0 0 -11.95517 164.524 219.19)"
     id="use38" />
  <use
     xlink:href="#r"
     transform="matrix(11.95517 0 0 -11.95517 167.01 216.202)"
     id="use39" />
  <use
     xlink:href="#q"
     transform="matrix(11.95517 0 0 -11.95517 178.11 219.19)"
     id="use40" />
  <path
     stroke-width=".8"
     stroke-linejoin="round"
     fill="none"
     stroke="#000"
     d="M48.987 166.823h-3.5"
     id="path40" />
  <use
     xlink:href="#a"
     transform="matrix(9.96264 0 0 -9.96264 22.713 170.282)"
     id="use41" />
  <use
     xlink:href="#b"
     transform="matrix(9.96264 0 0 -9.96264 27.197 170.501)"
     id="use42" />
  <symbol
     id="s">
    <path
       d="M.636 0c.016 0 .04 0 .04.024 0 .025-.023.025-.04.025H.04c-.016 0-.04 0-.04-.024C0 0 .023 0 .04 0h.596z"
       id="path42" />
  </symbol>
  <use
     xlink:href="#s"
     transform="matrix(6.97385 0 0 -6.97385 32.543 165.09)"
     id="use43" />
  <use
     xlink:href="#e"
     transform="matrix(6.97385 0 0 -6.97385 38.393 166.806)"
     id="use44" />
  <path
     stroke-width=".8"
     stroke-linejoin="round"
     fill="none"
     stroke="#000"
     d="M48.987 137.96h-3.5"
     id="path44" />
  <use
     xlink:href="#a"
     transform="matrix(9.96264 0 0 -9.96264 22.713 141.42)"
     id="use45" />
  <use
     xlink:href="#b"
     transform="matrix(9.96264 0 0 -9.96264 27.197 141.64)"
     id="use46" />
  <use
     xlink:href="#s"
     transform="matrix(6.97385 0 0 -6.97385 32.543 136.229)"
     id="use47" />
  <use
     xlink:href="#d"
     transform="matrix(6.97385 0 0 -6.97385 38.455 137.805)"
     id="use48" />
  <path
     stroke-width=".8"
     stroke-linejoin="round"
     fill="none"
     stroke="#000"
     d="M48.987 109.1h-3.5"
     id="path48" />
  <use
     xlink:href="#a"
     transform="matrix(9.96264 0 0 -9.96264 22.713 112.558)"
     id="use49" />
  <use
     xlink:href="#b"
     transform="matrix(9.96264 0 0 -9.96264 27.197 112.778)"
     id="use50" />
  <use
     xlink:href="#s"
     transform="matrix(6.97385 0 0 -6.97385 32.543 107.367)"
     id="use51" />
  <use
     xlink:href="#c"
     transform="matrix(6.97385 0 0 -6.97385 38.776 108.943)"
     id="use52" />
  <path
     stroke-width=".8"
     stroke-linejoin="round"
     fill="none"
     stroke="#000"
     d="M48.987 80.237h-3.5"
     id="path52" />
  <use
     xlink:href="#a"
     transform="matrix(9.96264 0 0 -9.96264 28.94 83.697)"
     id="use53" />
  <use
     xlink:href="#b"
     transform="matrix(9.96264 0 0 -9.96264 33.423 83.916)"
     id="use54" />
  <symbol
     id="t">
    <path
       d="M.464.339c0 .11-.013.189-.059.259a.208.208 0 0 1-.173.086C0 .684 0 .411 0 .339 0 .267 0 0 .232 0s.232.267.232.339M.232.028C.186.028.125.055.105.137.091.196.091.278.091.352c0 .073 0 .149.015.204.021.079.085.1.126.1A.129.129 0 0 0 .356.565.813.813 0 0 0 .373.352c0-.074 0-.148-.013-.211C.34.05.272.028.232.028z"
       id="path54" />
  </symbol>
  <use
     xlink:href="#t"
     transform="matrix(6.97385 0 0 -6.97385 38.379 80.22)"
     id="use55" />
  <path
     stroke-width=".8"
     stroke-linejoin="round"
     fill="none"
     stroke="#000"
     d="M48.987 51.376h-3.5"
     id="path55" />
  <use
     xlink:href="#a"
     transform="matrix(9.96264 0 0 -9.96264 28.94 54.835)"
     id="use56" />
  <use
     xlink:href="#b"
     transform="matrix(9.96264 0 0 -9.96264 33.423 55.054)"
     id="use57" />
  <use
     xlink:href="#c"
     transform="matrix(6.97385 0 0 -6.97385 38.776 51.22)"
     id="use58" />
  <path
     stroke-width=".8"
     stroke-linejoin="round"
     fill="none"
     stroke="#000"
     d="M48.987 22.514h-3.5"
     id="path58" />
  <use
     xlink:href="#a"
     transform="matrix(9.96264 0 0 -9.96264 28.94 25.973)"
     id="use59" />
  <use
     xlink:href="#b"
     transform="matrix(9.96264 0 0 -9.96264 33.423 26.192)"
     id="use60" />
  <use
     xlink:href="#d"
     transform="matrix(6.97385 0 0 -6.97385 38.455 22.358)"
     id="use61" />
  <path
     stroke-width=".6"
     stroke-linejoin="round"
     fill="none"
     stroke="#000"
     d="M48.987 186.996h-2M48.987 181.914h-2M48.987 178.308h-2M48.987 175.51h-2M48.987 173.226h-2M48.987 171.293h-2M48.987 169.62h-2M48.987 168.143h-2M48.987 158.134h-2M48.987 153.052h-2M48.987 149.446h-2M48.987 146.65h-2M48.987 144.364h-2M48.987 142.432h-2M48.987 140.758h-2M48.987 139.281h-2M48.987 129.273h-2M48.987 124.19h-2M48.987 120.584h-2M48.987 117.787h-2M48.987 115.502h-2M48.987 113.57h-2M48.987 111.896h-2M48.987 110.42h-2M48.987 100.41h-2M48.987 95.329h-2M48.987 91.723h-2M48.987 88.926h-2M48.987 86.64h-2M48.987 84.708h-2M48.987 83.034h-2M48.987 81.558h-2M48.987 71.55h-2M48.987 66.467h-2M48.987 62.86h-2M48.987 60.064h-2M48.987 57.778h-2M48.987 55.846h-2M48.987 54.173h-2M48.987 52.696h-2M48.987 42.687h-2M48.987 37.605h-2M48.987 33.999h-2M48.987 31.202h-2M48.987 28.917h-2M48.987 26.985h-2M48.987 25.31h-2M48.987 23.834h-2M48.987 13.826h-2M48.987 8.743h-2"
     id="path61" />
  <symbol
     id="u">
    <path
       d="M.327.38C.315.38.278.38.278.339A.04.04 0 0 1 .319.298c.023 0 .042.014.042.043 0 .067-.07.115-.151.115C.093.456 0 .352 0 .226 0 .098.096 0 .209 0c.132 0 .162.12.162.129 0 .009-.007.009-.01.009C.352.138.351.135.348.123.326.052.272.022.218.022.157.022.076.075.076.227c0 .166.085.207.135.207C.249.434.304.419.327.38z"
       id="path62" />
  </symbol>
  <symbol
     id="v">
    <path
       d="M.185.669C.176.682.175.683.153.683H0V.654c.043 0 .068 0 .095-.007V.105c0-.029 0-.076-.095-.076V0c.026.002.079.002.107.002.028 0 .081 0 .107-.002v.029C.119.029.119.076.119.105v.526C.127.623.127.621.136.609l.39-.594C.536.001.537 0 .544 0c.009 0 .011.004.012.006v.572c0 .029 0 .076.095.076v.029C.625.681.572.681.544.681c-.028 0-.081 0-.107.002V.654C.532.654.532.607.532.578V.141L.185.669z"
       id="path63" />
  </symbol>
  <symbol
     id="w">
    <path
       d="M.593.605c.009.025.026.069.104.07v.029L.605.702c-.027 0-.077 0-.102.002V.675C.554.674.569.646.569.626c0-.006 0-.008-.006-.022L.376.111l-.197.52C.174.642.174.644.174.646c0 .029.05.029.075.029v.029C.225.702.149.702.12.702c-.028 0-.096 0-.12.002V.675c.062 0 .078 0 .093-.04L.327.019C.332.005.334 0 .348 0 .362 0 .363.003.37.02l.223.585z"
       id="path64" />
  </symbol>
  <symbol
     id="x">
    <path
       d="M.181.607c0 .037.003.047.078.047h.022v.029C.257.681.171.681.141.681c-.03 0-.117 0-.141.002V.654h.022C.097.654.1.644.1.607V.076C.1.039.097.029.022.029H0V0c.024.002.11.002.14.002.03 0 .117 0 .141-.002v.029H.259c-.075 0-.078.01-.078.047v.531z"
       id="path65" />
  </symbol>
  <symbol
     id="y">
    <path
       d="M0 .683V.654h.02c.072 0 .075-.01.075-.047V.076C.095.039.092.029.02.029H0V0h.35c.167 0 .301.15.301.335C.651.528.516.683.35.683H0M.22.029c-.044 0-.046.007-.046.04v.545c0 .033.002.04.046.04h.105c.083 0 .149-.04.19-.106C.56.477.56.376.56.336.56.28.559.186.502.112A.222.222 0 0 0 .325.029H.22z"
       id="path66" />
  </symbol>
  <symbol
     id="z">
    <path
       d="M.356.696C.352.708.35.714.336.714S.32.711.315.695L.106.097C.092.056.064.03 0 .029V0l.096.002C.124.002.172.002.198 0v.029C.156.03.131.051.131.079c0 .006 0 .008.005.021l.046.133h.252L.489.076C.494.064.494.062.494.059c0-.03-.051-.03-.076-.03V0c.023.002.102.002.13.002.028 0 .1 0 .123-.002v.029c-.065 0-.083 0-.097.041L.356.696M.308.595.424.262H.192l.116.333z"
       id="path67" />
  </symbol>
  <symbol
     id="A">
    <path
       d="M.618.678h-.6L0 .455h.022c.014.158.023.194.181.194.018 0 .046 0 .054-.002C.277.644.278.632.278.609V.077c0-.034 0-.048-.098-.048H.144V0c.032.002.135.002.174.002.039 0 .143 0 .175-.002v.029H.457C.359.029.359.043.359.077v.532c0 .025.002.034.018.038.008.002.037.002.056.002C.591.649.6.613.614.455h.022L.618.678z"
       id="path68" />
  </symbol>
  <symbol
     id="B">
    <path
       d="M.38.361c.099.023.176.086.176.163 0 .097-.113.18-.257.18H0V.675h.02c.072 0 .075-.01.075-.047V.097C.095.06.092.05.02.05H0V.021c.023.002.105.002.134.002.029 0 .112 0 .135-.002V.05h-.02C.177.05.174.06.174.097v.256H.29A.139.139 0 0 0 .393.314C.427.276.427.255.427.186c0-.079 0-.105.044-.148A.171.171 0 0 1 .584 0c.078 0 .091.087.091.108 0 .006 0 .015-.011.015-.01 0-.01-.006-.011-.016C.648.047.619.02.587.02.541.02.531.067.523.12l-.01.075C.506.245.502.277.472.308.461.319.435.346.38.361M.286.373H.174v.262c0 .023 0 .035.021.039a.96.96 0 0 0 .059.001c.081 0 .209 0 .209-.151C.463.437.416.373.286.373z"
       id="path69" />
  </symbol>
  <symbol
     id="C">
    <path
       d="m.369.384.138.201c.017.024.046.068.141.069v.029C.605.681.594.681.543.681c-.027 0-.091 0-.114.002V.654C.47.651.483.627.483.61.483.599.479.593.473.584L.353.408l-.135.2C.215.612.211.619.211.624c0 .014.021.03.057.03v.029C.244.681.165.681.136.681c-.028 0-.098 0-.122.002V.654C.089.654.099.649.12.617L.307.34.139.095C.122.07.09.03 0 .029V0c.043.002.054.002.105.002C.132.002.197.002.22 0v.029C.178.031.165.056.165.073.165.084.17.091.176.1l.147.215.162-.242C.491.064.492.063.492.059.492.047.474.03.435.029V0c.024.002.102.002.131.002.028 0 .099 0 .123-.002v.029c-.059 0-.083 0-.106.035l-.214.32z"
       id="path70" />
  </symbol>
  <use
     xlink:href="#n"
     transform="matrix(0 -11.95517 -11.95517 0 15.622 183.271)"
     id="use70" />
  <use
     xlink:href="#p"
     transform="matrix(0 -11.95517 -11.95517 0 15.622 178.693)"
     id="use71" />
  <use
     xlink:href="#u"
     transform="matrix(0,-11.95517,-11.95517,0,15.572391,173.43365)"
     id="use72" />
  <use
     xlink:href="#i"
     transform="matrix(0 -11.95517 -11.95517 0 15.622 168.292)"
     id="use73" />
  <use
     xlink:href="#m"
     transform="matrix(0 -11.95517 -11.95517 0 15.502 162.422)"
     id="use74" />
  <use
     xlink:href="#h"
     transform="matrix(0 -11.95517 -11.95517 0 15.622 155.894)"
     id="use75" />
  <use
     xlink:href="#n"
     transform="matrix(0 -11.95517 -11.95517 0 15.622 149.426)"
     id="use76" />
  <use
     xlink:href="#i"
     transform="matrix(0 -11.95517 -11.95517 0 15.622 140.945)"
     id="use77" />
  <use
     xlink:href="#m"
     transform="matrix(0,-11.95517,-11.95517,0,15.65881,135.16997)"
     id="use78" />
  <use
     xlink:href="#v"
     transform="matrix(0 -11.95517 -11.95517 0 15.502 124.574)"
     id="use79" />
  <use
     xlink:href="#w"
     transform="matrix(0 -11.95517 -11.95517 0 15.753 116.074)"
     id="use80" />
  <use
     xlink:href="#x"
     transform="matrix(0 -11.95517 -11.95517 0 15.502 107.084)"
     id="use81" />
  <use
     xlink:href="#y"
     transform="matrix(0 -11.95517 -11.95517 0 15.502 102.792)"
     id="use82" />
  <use
     xlink:href="#x"
     transform="matrix(0 -11.95517 -11.95517 0 15.502 93.933)"
     id="use83" />
  <use
     xlink:href="#z"
     transform="matrix(0 -11.95517 -11.95517 0 15.502 89.773)"
     id="use84" />
  <use
     xlink:href="#A"
     transform="matrix(0 -11.95517 -11.95517 0 15.502 77.048)"
     id="use85" />
  <use
     xlink:href="#x"
     transform="matrix(0 -11.95517 -11.95517 0 15.502 68.584)"
     id="use86" />
  <use
     xlink:href="#A"
     transform="matrix(0 -11.95517 -11.95517 0 15.502 64.375)"
     id="use87" />
  <use
     xlink:href="#z"
     transform="matrix(0 -11.95517 -11.95517 0 15.502 56.946)"
     id="use88" />
  <use
     xlink:href="#v"
     transform="matrix(0 -11.95517 -11.95517 0 15.502 48.052)"
     id="use89" />
  <use
     xlink:href="#B"
     transform="matrix(0 -11.95517 -11.95517 0 15.753 35.363)"
     id="use90" />
  <use
     xlink:href="#A"
     transform="matrix(0 -11.95517 -11.95517 0 15.502 27.814)"
     id="use91" />
  <use
     xlink:href="#C"
     transform="matrix(0 -11.95517 -11.95517 0 15.502 19.517)"
     id="use92" />
  <clipPath
     id="D">
    <path
       transform="matrix(1 0 0 -1 0 226.39)"
       d="M48.987 39.01h181.35v180.18H48.987z"
       id="path92" />
  </clipPath>
  <g
     clip-path="url(#D)"
     stroke-width="1.5"
     stroke-linejoin="round"
     fill="none"
     stroke="#000"
     id="g93">
    <path
       d="M151.438 33.985"
       id="path93" />
  </g>
  <clipPath
     id="E">
    <path
       transform="matrix(1 0 0 -1 0 226.39)"
       d="M48.987 39.01h181.35v180.18H48.987z"
       id="path94" />
  </clipPath>
  <g
     clip-path="url(#E)"
     stroke-width="1.5"
     stroke-linejoin="round"
     fill="none"
     stroke="#000"
     id="g95">
    <path
       d="M57.23 171.216v-6.55M80.782 148.575v-1.446M104.334 117.661v-.051M127.886 80.298v-.143M151.438 34.696v-1.384"
       id="path95" />
  </g>
  <clipPath
     id="F">
    <path
       transform="matrix(1 0 0 -1 0 226.39)"
       d="M48.987 39.01h181.35v180.18H48.987z"
       id="path96" />
  </clipPath>
  <g
     clip-path="url(#F)"
     stroke-width="1.5"
     stroke-linejoin="round"
     fill="none"
     stroke="#d62728"
     id="g97">
    <path
       d="M222.094 15.82"
       id="path97" />
  </g>
  <clipPath
     id="G">
    <path
       transform="matrix(1 0 0 -1 0 226.39)"
       d="M48.987 39.01h181.35v180.18H48.987z"
       id="path98" />
  </clipPath>
  <g
     clip-path="url(#G)"
     stroke-width="1.5"
     stroke-linejoin="round"
     fill="none"
     stroke="#d62728"
     id="g99">
    <path
       d="M57.23 131.237v-4.162M80.782 130.89v-8.42M104.334 125.497v-6.677M127.886 104.32v-9.124M151.438 77.284V69.48M174.99 70.872V45.376M198.542 26.404V15.39"
       id="path99" />
  </g>
  <clipPath
     id="H">
    <path
       transform="matrix(1 0 0 -1 0 226.39)"
       d="M48.987 39.01h181.35v180.18H48.987z"
       id="path100" />
  </clipPath>
  <g
     clip-path="url(#H)"
     stroke-width="1.5"
     stroke-linejoin="round"
     fill="none"
     stroke="#9467bd"
     id="g101">
    <path
       d="M222.094 106.602"
       id="path101" />
  </g>
  <clipPath
     id="I">
    <path
       transform="matrix(1 0 0 -1 0 226.39)"
       d="M48.987 39.01h181.35v180.18H48.987z"
       id="path102" />
  </clipPath>
  <g
     clip-path="url(#I)"
     stroke-width="1.5"
     stroke-linejoin="round"
     fill="none"
     stroke="#9467bd"
     id="g103">
    <path
       d="M57.23 151.676v-3.3M80.782 152.193v-8.342M104.334 152.244v-12.233M127.886 128.729v-4.132M151.438 110.833v-3.623M174.99 113.255v-6.428M198.542 107.658v-1.904M222.094 106.977v-.738"
       id="path103" />
  </g>
  <clipPath
     id="J">
    <path
       transform="matrix(1 0 0 -1 0 226.39)"
       d="M48.987 39.01h181.35v180.18H48.987z"
       id="path104" />
  </clipPath>
  <g
     clip-path="url(#J)"
     stroke-width="1.5"
     stroke-linejoin="round"
     fill="none"
     stroke="#1f77b4"
     id="g105">
    <path
       d="M222.094 142.565"
       id="path105" />
  </g>
  <clipPath
     id="K">
    <path
       transform="matrix(1 0 0 -1 0 226.39)"
       d="M48.987 39.01h181.35v180.18H48.987z"
       id="path106" />
  </clipPath>
  <g
     clip-path="url(#K)"
     stroke-width="1.5"
     stroke-linejoin="round"
     fill="none"
     stroke="#1f77b4"
     id="g107">
    <path
       d="M57.23 177.878v-1.704M80.782 177.674v-7.388M104.334 173.638v-5.435M127.886 161.993v-1.602M151.438 149.824v-2.358M174.99 151.984v-7.352M198.542 144.994v-2.628M222.094 143.227v-1.29"
       id="path107" />
  </g>
  <clipPath
     id="L">
    <path
       transform="matrix(1 0 0 -1 0 226.39)"
       d="M48.987 39.01h181.35v180.18H48.987z"
       id="path108" />
  </clipPath>
  <g
     clip-path="url(#L)"
     stroke-width="1.5"
     stroke-linejoin="round"
     fill="none"
     stroke="#ff7f0e"
     id="g109">
    <path
       d="M222.094 150.804"
       id="path109" />
  </g>
  <clipPath
     id="M">
    <path
       transform="matrix(1 0 0 -1 0 226.39)"
       d="M48.987 39.01h181.35v180.18H48.987z"
       id="path110" />
  </clipPath>
  <g
     clip-path="url(#M)"
     stroke-width="1.5"
     stroke-linejoin="round"
     fill="none"
     stroke="#ff7f0e"
     id="g111">
    <path
       d="M57.23 179.19v-3.585M80.782 178.762v-6.532M104.334 177.24v-4.121M127.886 170.347v-2.03M151.438 160.517v-1.997M174.99 158.24v-3.186M198.542 152.815v-1.235M222.094 152.308v-2.846"
       id="path111" />
  </g>
  <clipPath
     id="N">
    <path
       transform="matrix(1 0 0 -1 0 226.39)"
       d="M48.987 39.01h181.35v180.18H48.987z"
       id="path112" />
  </clipPath>
  <g
     clip-path="url(#N)"
     stroke-width="1.5"
     stroke-linejoin="round"
     fill="none"
     stroke="#2ca02c"
     id="g113">
    <path
       d="M198.542 34.948"
       id="path113" />
  </g>
  <clipPath
     id="O">
    <path
       transform="matrix(1 0 0 -1 0 226.39)"
       d="M48.987 39.01h181.35v180.18H48.987z"
       id="path114" />
  </clipPath>
  <g
     clip-path="url(#O)"
     stroke-width="1.5"
     stroke-linejoin="round"
     fill="none"
     stroke="#2ca02c"
     id="g115">
    <path
       d="M57.23 120.803v-1.333M80.782 118.334v-1.973M104.334 115.39v-.568M127.886 115.166v-2.758M151.438 114.347v-7.61M174.99 73.828V61.405M198.542 45.547V29.29"
       id="path115" />
  </g>
  <clipPath
     id="P">
    <path
       transform="matrix(1 0 0 -1 0 226.39)"
       d="M48.987 39.01h181.35v180.18H48.987z"
       id="path116" />
  </clipPath>
  <g
     clip-path="url(#P)"
     id="g133">
    <path
       stroke-width="1.5"
       stroke-linecap="square"
       stroke-linejoin="round"
       fill="none"
       stroke="#000"
       d="m57.23 167.518 23.552-19.687 23.552-30.195 23.552-37.41 23.552-46.24"
       id="path117" />
    <clipPath
       id="Q">
      <path
         transform="matrix(1 0 0 -1 57.23 167.518)"
         d="M-8-8H8V8H-8z"
         id="path118" />
    </clipPath>
    <g
       clip-path="url(#Q)"
       id="g120">
      <path
         d="M57.23 170.518a3 3 0 1 0 0-6 3 3 0 0 0 0 6z"
         id="path119" />
      <path
         stroke-linejoin="round"
         fill="none"
         stroke="#000"
         d="M57.23 170.518a3 3 0 1 0 0-6 3 3 0 0 0 0 6z"
         id="path120" />
    </g>
    <clipPath
       id="R">
      <path
         transform="matrix(1 0 0 -1 80.782 147.831)"
         d="M-8-8H8V8H-8z"
         id="path121" />
    </clipPath>
    <g
       clip-path="url(#R)"
       id="g123">
      <path
         d="M80.782 150.831a3 3 0 1 0 0-6 3 3 0 0 0 0 6z"
         id="path122" />
      <path
         stroke-linejoin="round"
         fill="none"
         stroke="#000"
         d="M80.782 150.831a3 3 0 1 0 0-6 3 3 0 0 0 0 6z"
         id="path123" />
    </g>
    <clipPath
       id="S">
      <path
         transform="matrix(1 0 0 -1 104.334 117.636)"
         d="M-8-8H8V8H-8z"
         id="path124" />
    </clipPath>
    <g
       clip-path="url(#S)"
       id="g126">
      <path
         d="M104.334 120.636a3 3 0 1 0 0-6 3 3 0 0 0 0 6z"
         id="path125" />
      <path
         stroke-linejoin="round"
         fill="none"
         stroke="#000"
         d="M104.334 120.636a3 3 0 1 0 0-6 3 3 0 0 0 0 6z"
         id="path126" />
    </g>
    <clipPath
       id="T">
      <path
         transform="matrix(1 0 0 -1 127.886 80.226)"
         d="M-8-8H8V8H-8z"
         id="path127" />
    </clipPath>
    <g
       clip-path="url(#T)"
       id="g129">
      <path
         d="M127.886 83.226a3 3 0 1 0 0-6 3 3 0 0 0 0 6z"
         id="path128" />
      <path
         stroke-linejoin="round"
         fill="none"
         stroke="#000"
         d="M127.886 83.226a3 3 0 1 0 0-6 3 3 0 0 0 0 6z"
         id="path129" />
    </g>
    <clipPath
       id="U">
      <path
         transform="matrix(1 0 0 -1 151.438 33.985)"
         d="M-8-8H8V8H-8z"
         id="path130" />
    </clipPath>
    <g
       clip-path="url(#U)"
       id="g132">
      <path
         d="M151.438 36.985a3 3 0 1 0 0-6 3 3 0 0 0 0 6z"
         id="path131" />
      <path
         stroke-linejoin="round"
         fill="none"
         stroke="#000"
         d="M151.438 36.985a3 3 0 1 0 0-6 3 3 0 0 0 0 6z"
         id="path132" />
    </g>
  </g>
  <clipPath
     id="V">
    <path
       transform="matrix(1 0 0 -1 0 226.39)"
       d="M48.987 39.01h181.35v180.18H48.987z"
       id="path133" />
  </clipPath>
  <g
     clip-path="url(#V)"
     id="g159">
    <path
       stroke-width="1.5"
       stroke-linecap="square"
       stroke-linejoin="round"
       fill="none"
       stroke="#d62728"
       d="m57.23 128.984 23.552-2.998 23.552-4.267 23.552-22.773 23.552-26.162 23.552-20.26 23.552-32.8 23.552-3.903"
       id="path134" />
    <clipPath
       id="W">
      <path
         transform="matrix(1 0 0 -1 57.23 128.984)"
         d="M-8-8H8V8H-8z"
         id="path135" />
    </clipPath>
    <g
       clip-path="url(#W)"
       id="g137">
      <path
         d="M54.23 131.984h6v-6h-6z"
         fill="#d62728"
         id="path136" />
      <path
         stroke-miterlimit="10"
         fill="none"
         stroke="#d62728"
         d="M54.23 131.984h6v-6h-6z"
         id="path137" />
    </g>
    <clipPath
       id="X">
      <path
         transform="matrix(1 0 0 -1 80.782 125.986)"
         d="M-8-8H8V8H-8z"
         id="path138" />
    </clipPath>
    <g
       clip-path="url(#X)"
       id="g140">
      <path
         d="M77.782 128.986h6v-6h-6z"
         fill="#d62728"
         id="path139" />
      <path
         stroke-miterlimit="10"
         fill="none"
         stroke="#d62728"
         d="M77.782 128.986h6v-6h-6z"
         id="path140" />
    </g>
    <clipPath
       id="Y">
      <path
         transform="matrix(1 0 0 -1 104.334 121.719)"
         d="M-8-8H8V8H-8z"
         id="path141" />
    </clipPath>
    <g
       clip-path="url(#Y)"
       id="g143">
      <path
         d="M101.334 124.719h6v-6h-6z"
         fill="#d62728"
         id="path142" />
      <path
         stroke-miterlimit="10"
         fill="none"
         stroke="#d62728"
         d="M101.334 124.719h6v-6h-6z"
         id="path143" />
    </g>
    <clipPath
       id="Z">
      <path
         transform="matrix(1 0 0 -1 127.886 98.946)"
         d="M-8-8H8V8H-8z"
         id="path144" />
    </clipPath>
    <g
       clip-path="url(#Z)"
       id="g146">
      <path
         d="M124.886 101.946h6v-6h-6z"
         fill="#d62728"
         id="path145" />
      <path
         stroke-miterlimit="10"
         fill="none"
         stroke="#d62728"
         d="M124.886 101.946h6v-6h-6z"
         id="path146" />
    </g>
    <clipPath
       id="aa">
      <path
         transform="matrix(1 0 0 -1 151.438 72.784)"
         d="M-8-8H8V8H-8z"
         id="path147" />
    </clipPath>
    <g
       clip-path="url(#aa)"
       id="g149">
      <path
         d="M148.438 75.784h6v-6h-6z"
         fill="#d62728"
         id="path148" />
      <path
         stroke-miterlimit="10"
         fill="none"
         stroke="#d62728"
         d="M148.438 75.784h6v-6h-6z"
         id="path149" />
    </g>
    <clipPath
       id="ab">
      <path
         transform="matrix(1 0 0 -1 174.99 52.524)"
         d="M-8-8H8V8H-8z"
         id="path150" />
    </clipPath>
    <g
       clip-path="url(#ab)"
       id="g152">
      <path
         d="M171.99 55.524h6v-6h-6z"
         fill="#d62728"
         id="path151" />
      <path
         stroke-miterlimit="10"
         fill="none"
         stroke="#d62728"
         d="M171.99 55.524h6v-6h-6z"
         id="path152" />
    </g>
    <clipPath
       id="ac">
      <path
         transform="matrix(1 0 0 -1 198.542 19.724)"
         d="M-8-8H8V8H-8z"
         id="path153" />
    </clipPath>
    <g
       clip-path="url(#ac)"
       id="g155">
      <path
         d="M195.542 22.724h6v-6h-6z"
         fill="#d62728"
         id="path154" />
      <path
         stroke-miterlimit="10"
         fill="none"
         stroke="#d62728"
         d="M195.542 22.724h6v-6h-6z"
         id="path155" />
    </g>
    <clipPath
       id="ad">
      <path
         transform="matrix(1 0 0 -1 222.094 15.82)"
         d="M-8-8H8V8H-8z"
         id="path156" />
    </clipPath>
    <g
       clip-path="url(#ad)"
       id="g158">
      <path
         d="M219.094 18.82h6v-6h-6z"
         fill="#d62728"
         id="path157" />
      <path
         stroke-miterlimit="10"
         fill="none"
         stroke="#d62728"
         d="M219.094 18.82h6v-6h-6z"
         id="path158" />
    </g>
  </g>
  <clipPath
     id="ae">
    <path
       transform="matrix(1 0 0 -1 0 226.39)"
       d="M48.987 39.01h181.35v180.18H48.987z"
       id="path159" />
  </clipPath>
  <g
     clip-path="url(#ae)"
     id="g185">
    <path
       stroke-width="1.5"
       stroke-linecap="square"
       stroke-linejoin="round"
       fill="none"
       stroke="#9467bd"
       d="m57.23 149.918 23.552-2.578 23.552-2.649 23.552-18.198 23.552-17.602 23.552.742 23.552-2.963 23.552-.068"
       id="path160" />
    <clipPath
       id="af">
      <path
         transform="matrix(1 0 0 -1 57.23 149.918)"
         d="M-8-8H8V8H-8z"
         id="path161" />
    </clipPath>
    <g
       clip-path="url(#af)"
       id="g163">
      <path
         d="m57.23 146.918-3 6h6z"
         fill="#9467bd"
         id="path162" />
      <path
         stroke-miterlimit="10"
         fill="none"
         stroke="#9467bd"
         d="m57.23 146.918-3 6h6z"
         id="path163" />
    </g>
    <clipPath
       id="ag">
      <path
         transform="matrix(1 0 0 -1 80.782 147.34)"
         d="M-8-8H8V8H-8z"
         id="path164" />
    </clipPath>
    <g
       clip-path="url(#ag)"
       id="g166">
      <path
         d="m80.782 144.34-3 6h6z"
         fill="#9467bd"
         id="path165" />
      <path
         stroke-miterlimit="10"
         fill="none"
         stroke="#9467bd"
         d="m80.782 144.34-3 6h6z"
         id="path166" />
    </g>
    <clipPath
       id="ah">
      <path
         transform="matrix(1 0 0 -1 104.334 144.691)"
         d="M-8-8H8V8H-8z"
         id="path167" />
    </clipPath>
    <g
       clip-path="url(#ah)"
       id="g169">
      <path
         d="m104.334 141.691-3 6h6z"
         fill="#9467bd"
         id="path168" />
      <path
         stroke-miterlimit="10"
         fill="none"
         stroke="#9467bd"
         d="m104.334 141.691-3 6h6z"
         id="path169" />
    </g>
    <clipPath
       id="ai">
      <path
         transform="matrix(1 0 0 -1 127.886 126.493)"
         d="M-8-8H8V8H-8z"
         id="path170" />
    </clipPath>
    <g
       clip-path="url(#ai)"
       id="g172">
      <path
         d="m127.886 123.493-3 6h6z"
         fill="#9467bd"
         id="path171" />
      <path
         stroke-miterlimit="10"
         fill="none"
         stroke="#9467bd"
         d="m127.886 123.493-3 6h6z"
         id="path172" />
    </g>
    <clipPath
       id="aj">
      <path
         transform="matrix(1 0 0 -1 151.438 108.891)"
         d="M-8-8H8V8H-8z"
         id="path173" />
    </clipPath>
    <g
       clip-path="url(#aj)"
       id="g175">
      <path
         d="m151.438 105.891-3 6h6z"
         fill="#9467bd"
         id="path174" />
      <path
         stroke-miterlimit="10"
         fill="none"
         stroke="#9467bd"
         d="m151.438 105.891-3 6h6z"
         id="path175" />
    </g>
    <clipPath
       id="ak">
      <path
         transform="matrix(1 0 0 -1 174.99 109.633)"
         d="M-8-8H8V8H-8z"
         id="path176" />
    </clipPath>
    <g
       clip-path="url(#ak)"
       id="g178">
      <path
         d="m174.99 106.633-3 6h6z"
         fill="#9467bd"
         id="path177" />
      <path
         stroke-miterlimit="10"
         fill="none"
         stroke="#9467bd"
         d="m174.99 106.633-3 6h6z"
         id="path178" />
    </g>
    <clipPath
       id="al">
      <path
         transform="matrix(1 0 0 -1 198.542 106.67)"
         d="M-8-8H8V8H-8z"
         id="path179" />
    </clipPath>
    <g
       clip-path="url(#al)"
       id="g181">
      <path
         d="m198.542 103.67-3 6h6z"
         fill="#9467bd"
         id="path180" />
      <path
         stroke-miterlimit="10"
         fill="none"
         stroke="#9467bd"
         d="m198.542 103.67-3 6h6z"
         id="path181" />
    </g>
    <clipPath
       id="am">
      <path
         transform="matrix(1 0 0 -1 222.094 106.602)"
         d="M-8-8H8V8H-8z"
         id="path182" />
    </clipPath>
    <g
       clip-path="url(#am)"
       id="g184">
      <path
         d="m222.094 103.602-3 6h6z"
         fill="#9467bd"
         id="path183" />
      <path
         stroke-miterlimit="10"
         fill="none"
         stroke="#9467bd"
         d="m222.094 103.602-3 6h6z"
         id="path184" />
    </g>
  </g>
  <clipPath
     id="an">
    <path
       transform="matrix(1 0 0 -1 0 226.39)"
       d="M48.987 39.01h181.35v180.18H48.987z"
       id="path185" />
  </clipPath>
  <g
     clip-path="url(#an)"
     id="g211">
    <path
       stroke-width="1.5"
       stroke-linecap="square"
       stroke-linejoin="round"
       fill="none"
       stroke="#1f77b4"
       d="m57.23 176.997 23.552-3.554 23.552-2.815 23.552-9.462 23.552-12.576 23.552-.813 23.552-4.165 23.552-1.047"
       id="path186" />
    <clipPath
       id="ao">
      <path
         transform="matrix(1 0 0 -1 57.23 176.997)"
         d="M-9.243-9.243H9.243V9.243H-9.243z"
         id="path187" />
    </clipPath>
    <g
       clip-path="url(#ao)"
       id="g189">
      <path
         d="m57.23 181.24 4.243-4.243-4.242-4.242-4.243 4.242z"
         fill="#1f77b4"
         id="path188" />
      <path
         stroke-miterlimit="10"
         fill="none"
         stroke="#1f77b4"
         d="m57.23 181.24 4.243-4.243-4.242-4.242-4.243 4.242z"
         id="path189" />
    </g>
    <clipPath
       id="ap">
      <path
         transform="matrix(1 0 0 -1 80.782 173.443)"
         d="M-9.243-9.243H9.243V9.243H-9.243z"
         id="path190" />
    </clipPath>
    <g
       clip-path="url(#ap)"
       id="g192">
      <path
         d="m80.782 177.686 4.243-4.243-4.243-4.243-4.242 4.243z"
         fill="#1f77b4"
         id="path191" />
      <path
         stroke-miterlimit="10"
         fill="none"
         stroke="#1f77b4"
         d="m80.782 177.686 4.243-4.243-4.243-4.243-4.242 4.243z"
         id="path192" />
    </g>
    <clipPath
       id="aq">
      <path
         transform="matrix(1 0 0 -1 104.334 170.628)"
         d="M-9.243-9.243H9.243V9.243H-9.243z"
         id="path193" />
    </clipPath>
    <g
       clip-path="url(#aq)"
       id="g195">
      <path
         d="m104.334 174.87 4.243-4.242-4.243-4.243-4.242 4.243z"
         fill="#1f77b4"
         id="path194" />
      <path
         stroke-miterlimit="10"
         fill="none"
         stroke="#1f77b4"
         d="m104.334 174.87 4.243-4.242-4.243-4.243-4.242 4.243z"
         id="path195" />
    </g>
    <clipPath
       id="ar">
      <path
         transform="matrix(1 0 0 -1 127.886 161.166)"
         d="M-9.243-9.243H9.243V9.243H-9.243z"
         id="path196" />
    </clipPath>
    <g
       clip-path="url(#ar)"
       id="g198">
      <path
         d="m127.886 165.409 4.243-4.243-4.243-4.242-4.242 4.242z"
         fill="#1f77b4"
         id="path197" />
      <path
         stroke-miterlimit="10"
         fill="none"
         stroke="#1f77b4"
         d="m127.886 165.409 4.243-4.243-4.243-4.242-4.242 4.242z"
         id="path198" />
    </g>
    <clipPath
       id="as">
      <path
         transform="matrix(1 0 0 -1 151.438 148.59)"
         d="M-9.243-9.243H9.243V9.243H-9.243z"
         id="path199" />
    </clipPath>
    <g
       clip-path="url(#as)"
       id="g201">
      <path
         d="m151.438 152.833 4.243-4.243-4.243-4.243-4.242 4.243z"
         fill="#1f77b4"
         id="path200" />
      <path
         stroke-miterlimit="10"
         fill="none"
         stroke="#1f77b4"
         d="m151.438 152.833 4.243-4.243-4.243-4.243-4.242 4.243z"
         id="path201" />
    </g>
    <clipPath
       id="at">
      <path
         transform="matrix(1 0 0 -1 174.99 147.777)"
         d="M-9.243-9.243H9.243V9.243H-9.243z"
         id="path202" />
    </clipPath>
    <g
       clip-path="url(#at)"
       id="g204">
      <path
         d="m174.99 152.02 4.243-4.243-4.243-4.243-4.242 4.243z"
         fill="#1f77b4"
         id="path203" />
      <path
         stroke-miterlimit="10"
         fill="none"
         stroke="#1f77b4"
         d="m174.99 152.02 4.243-4.243-4.243-4.243-4.242 4.243z"
         id="path204" />
    </g>
    <clipPath
       id="au">
      <path
         transform="matrix(1 0 0 -1 198.542 143.612)"
         d="M-9.243-9.243H9.243V9.243H-9.243z"
         id="path205" />
    </clipPath>
    <g
       clip-path="url(#au)"
       id="g207">
      <path
         d="m198.542 147.854 4.243-4.242-4.243-4.243-4.242 4.243z"
         fill="#1f77b4"
         id="path206" />
      <path
         stroke-miterlimit="10"
         fill="none"
         stroke="#1f77b4"
         d="m198.542 147.854 4.243-4.242-4.243-4.243-4.242 4.243z"
         id="path207" />
    </g>
    <clipPath
       id="av">
      <path
         transform="matrix(1 0 0 -1 222.094 142.565)"
         d="M-9.243-9.243H9.243V9.243H-9.243z"
         id="path208" />
    </clipPath>
    <g
       clip-path="url(#av)"
       id="g210">
      <path
         d="m222.094 146.808 4.243-4.243-4.243-4.242-4.242 4.242z"
         fill="#1f77b4"
         id="path209" />
      <path
         stroke-miterlimit="10"
         fill="none"
         stroke="#1f77b4"
         d="m222.094 146.808 4.243-4.243-4.243-4.242-4.242 4.242z"
         id="path210" />
    </g>
  </g>
  <clipPath
     id="aw">
    <path
       transform="matrix(1 0 0 -1 0 226.39)"
       d="M48.987 39.01h181.35v180.18H48.987z"
       id="path211" />
  </clipPath>
  <g
     clip-path="url(#aw)"
     id="g237">
    <path
       stroke-width="1.5"
       stroke-linecap="square"
       stroke-linejoin="round"
       fill="none"
       stroke="#ff7f0e"
       d="m57.23 177.27 23.552-2.194 23.552-.065 23.552-5.72 23.552-9.812 23.552-2.933 23.552-4.363 23.552-1.379"
       id="path212" />
    <clipPath
       id="ax">
      <path
         transform="matrix(1 0 0 -1 57.23 177.27)"
         d="M-8-8H8V8H-8z"
         id="path213" />
    </clipPath>
    <g
       clip-path="url(#ax)"
       id="g215">
      <path
         d="m57.23 180.27 3-6h-6z"
         fill="#ff7f0e"
         id="path214" />
      <path
         stroke-miterlimit="10"
         fill="none"
         stroke="#ff7f0e"
         d="m57.23 180.27 3-6h-6z"
         id="path215" />
    </g>
    <clipPath
       id="ay">
      <path
         transform="matrix(1 0 0 -1 80.782 175.076)"
         d="M-8-8H8V8H-8z"
         id="path216" />
    </clipPath>
    <g
       clip-path="url(#ay)"
       id="g218">
      <path
         d="m80.782 178.076 3-6h-6z"
         fill="#ff7f0e"
         id="path217" />
      <path
         stroke-miterlimit="10"
         fill="none"
         stroke="#ff7f0e"
         d="m80.782 178.076 3-6h-6z"
         id="path218" />
    </g>
    <clipPath
       id="az">
      <path
         transform="matrix(1 0 0 -1 104.334 175.01)"
         d="M-8-8H8V8H-8z"
         id="path219" />
    </clipPath>
    <g
       clip-path="url(#az)"
       id="g221">
      <path
         d="m104.334 178.01 3-6h-6z"
         fill="#ff7f0e"
         id="path220" />
      <path
         stroke-miterlimit="10"
         fill="none"
         stroke="#ff7f0e"
         d="m104.334 178.01 3-6h-6z"
         id="path221" />
    </g>
    <clipPath
       id="aA">
      <path
         transform="matrix(1 0 0 -1 127.886 169.291)"
         d="M-8-8H8V8H-8z"
         id="path222" />
    </clipPath>
    <g
       clip-path="url(#aA)"
       id="g224">
      <path
         d="m127.886 172.291 3-6h-6z"
         fill="#ff7f0e"
         id="path223" />
      <path
         stroke-miterlimit="10"
         fill="none"
         stroke="#ff7f0e"
         d="m127.886 172.291 3-6h-6z"
         id="path224" />
    </g>
    <clipPath
       id="aB">
      <path
         transform="matrix(1 0 0 -1 151.438 159.479)"
         d="M-8-8H8V8H-8z"
         id="path225" />
    </clipPath>
    <g
       clip-path="url(#aB)"
       id="g227">
      <path
         d="m151.438 162.479 3-6h-6z"
         fill="#ff7f0e"
         id="path226" />
      <path
         stroke-miterlimit="10"
         fill="none"
         stroke="#ff7f0e"
         d="m151.438 162.479 3-6h-6z"
         id="path227" />
    </g>
    <clipPath
       id="aC">
      <path
         transform="matrix(1 0 0 -1 174.99 156.546)"
         d="M-8-8H8V8H-8z"
         id="path228" />
    </clipPath>
    <g
       clip-path="url(#aC)"
       id="g230">
      <path
         d="m174.99 159.546 3-6h-6z"
         fill="#ff7f0e"
         id="path229" />
      <path
         stroke-miterlimit="10"
         fill="none"
         stroke="#ff7f0e"
         d="m174.99 159.546 3-6h-6z"
         id="path230" />
    </g>
    <clipPath
       id="aD">
      <path
         transform="matrix(1 0 0 -1 198.542 152.183)"
         d="M-8-8H8V8H-8z"
         id="path231" />
    </clipPath>
    <g
       clip-path="url(#aD)"
       id="g233">
      <path
         d="m198.542 155.183 3-6h-6z"
         fill="#ff7f0e"
         id="path232" />
      <path
         stroke-miterlimit="10"
         fill="none"
         stroke="#ff7f0e"
         d="m198.542 155.183 3-6h-6z"
         id="path233" />
    </g>
    <clipPath
       id="aE">
      <path
         transform="matrix(1 0 0 -1 222.094 150.804)"
         d="M-8-8H8V8H-8z"
         id="path234" />
    </clipPath>
    <g
       clip-path="url(#aE)"
       id="g236">
      <path
         d="m222.094 153.804 3-6h-6z"
         fill="#ff7f0e"
         id="path235" />
      <path
         stroke-miterlimit="10"
         fill="none"
         stroke="#ff7f0e"
         d="m222.094 153.804 3-6h-6z"
         id="path236" />
    </g>
  </g>
  <clipPath
     id="aF">
    <path
       transform="matrix(1 0 0 -1 0 226.39)"
       d="M48.987 39.01h181.35v180.18H48.987z"
       id="path237" />
  </clipPath>
  <g
     clip-path="url(#aF)"
     id="g260">
    <path
       stroke-width="1.5"
       stroke-linecap="square"
       stroke-linejoin="round"
       fill="none"
       stroke="#2ca02c"
       d="m57.23 120.119 23.552-2.81 23.552-2.206 23.552-1.392 23.552-3.737 23.552-43.837 23.552-31.189"
       id="path238" />
    <clipPath
       id="aG">
      <path
         transform="matrix(1 0 0 -1 57.23 120.119)"
         d="M-7.853-7.427H7.853V8H-7.853z"
         id="path239" />
    </clipPath>
    <g
       clip-path="url(#aG)"
       id="g241">
      <path
         d="m57.23 117.119-2.853 2.073 1.09 3.354h3.527l1.09-3.354z"
         fill="#2ca02c"
         id="path240" />
      <path
         stroke-miterlimit="10"
         fill="none"
         stroke="#2ca02c"
         d="m57.23 117.119-2.853 2.073 1.09 3.354h3.527l1.09-3.354z"
         id="path241" />
    </g>
    <clipPath
       id="aH">
      <path
         transform="matrix(1 0 0 -1 80.782 117.308)"
         d="M-7.853-7.427H7.853V8H-7.853z"
         id="path242" />
    </clipPath>
    <g
       clip-path="url(#aH)"
       id="g244">
      <path
         d="m80.782 114.308-2.853 2.073 1.09 3.354h3.527l1.09-3.354z"
         fill="#2ca02c"
         id="path243" />
      <path
         stroke-miterlimit="10"
         fill="none"
         stroke="#2ca02c"
         d="m80.782 114.308-2.853 2.073 1.09 3.354h3.527l1.09-3.354z"
         id="path244" />
    </g>
    <clipPath
       id="aI">
      <path
         transform="matrix(1 0 0 -1 104.334 115.103)"
         d="M-7.853-7.427H7.853V8H-7.853z"
         id="path245" />
    </clipPath>
    <g
       clip-path="url(#aI)"
       id="g247">
      <path
         d="m104.334 112.103-2.853 2.073 1.09 3.354h3.527l1.09-3.354z"
         fill="#2ca02c"
         id="path246" />
      <path
         stroke-miterlimit="10"
         fill="none"
         stroke="#2ca02c"
         d="m104.334 112.103-2.853 2.073 1.09 3.354h3.527l1.09-3.354z"
         id="path247" />
    </g>
    <clipPath
       id="aJ">
      <path
         transform="matrix(1 0 0 -1 127.886 113.711)"
         d="M-7.853-7.427H7.853V8H-7.853z"
         id="path248" />
    </clipPath>
    <g
       clip-path="url(#aJ)"
       id="g250">
      <path
         d="m127.886 110.711-2.853 2.073 1.09 3.354h3.527l1.09-3.354z"
         fill="#2ca02c"
         id="path249" />
      <path
         stroke-miterlimit="10"
         fill="none"
         stroke="#2ca02c"
         d="m127.886 110.711-2.853 2.073 1.09 3.354h3.527l1.09-3.354z"
         id="path250" />
    </g>
    <clipPath
       id="aK">
      <path
         transform="matrix(1 0 0 -1 151.438 109.974)"
         d="M-7.853-7.427H7.853V8H-7.853z"
         id="path251" />
    </clipPath>
    <g
       clip-path="url(#aK)"
       id="g253">
      <path
         d="m151.438 106.974-2.853 2.073 1.09 3.354h3.527l1.09-3.354z"
         fill="#2ca02c"
         id="path252" />
      <path
         stroke-miterlimit="10"
         fill="none"
         stroke="#2ca02c"
         d="m151.438 106.974-2.853 2.073 1.09 3.354h3.527l1.09-3.354z"
         id="path253" />
    </g>
    <clipPath
       id="aL">
      <path
         transform="matrix(1 0 0 -1 174.99 66.137)"
         d="M-7.853-7.427H7.853V8H-7.853z"
         id="path254" />
    </clipPath>
    <g
       clip-path="url(#aL)"
       id="g256">
      <path
         d="m174.99 63.137-2.853 2.073 1.09 3.354h3.527l1.09-3.354z"
         fill="#2ca02c"
         id="path255" />
      <path
         stroke-miterlimit="10"
         fill="none"
         stroke="#2ca02c"
         d="m174.99 63.137-2.853 2.073 1.09 3.354h3.527l1.09-3.354z"
         id="path256" />
    </g>
    <clipPath
       id="aM">
      <path
         transform="matrix(1 0 0 -1 198.542 34.948)"
         d="M-7.853-7.427H7.853V8H-7.853z"
         id="path257" />
    </clipPath>
    <g
       clip-path="url(#aM)"
       id="g259">
      <path
         d="m198.542 31.948-2.853 2.073 1.09 3.354h3.527l1.09-3.354z"
         fill="#2ca02c"
         id="path258" />
      <path
         stroke-miterlimit="10"
         fill="none"
         stroke="#2ca02c"
         d="m198.542 31.948-2.853 2.073 1.09 3.354h3.527l1.09-3.354z"
         id="path259" />
    </g>
  </g>
  <path
     stroke-width=".8"
     stroke-linecap="square"
     stroke-miterlimit="10"
     fill="none"
     stroke="#000"
     d="M48.987 187.38V7.2M230.337 187.38V7.2M48.987 187.38h181.35M48.987 7.2h181.35"
     id="path260" />
  <path
     d="M55.987 98.823h118.575c1.333 0 2-.667 2-2V14.2c0-1.333-.667-2-2-2H55.987c-1.333 0-2 .667-2 2v82.623c0 1.333.667 2 2 2z"
     fill="#fff"
     fill-opacity=".8"
     id="path261" />
  <path
     stroke-miterlimit="10"
     fill="none"
     stroke="#d5d6d5"
     stroke-opacity=".8"
     d="M55.987 98.823h118.575c1.333 0 2-.667 2-2V14.2c0-1.333-.667-2-2-2H55.987c-1.333 0-2 .667-2 2v82.623c0 1.333.667 2 2 2z"
     id="path262" />
  <path
     stroke-width="1.5"
     stroke-linecap="square"
     stroke-linejoin="round"
     fill="none"
     stroke="#000"
     d="M57.987 19.7h20"
     id="path263" />
  <path
     d="M67.987 22.7a3 3 0 1 0 0-6 3 3 0 0 0 0 6z"
     id="path264" />
  <path
     stroke-linejoin="round"
     fill="none"
     stroke="#000"
     d="M67.987 22.7a3 3 0 1 0 0-6 3 3 0 0 0 0 6z"
     id="path265" />
  <symbol
     id="aN">
    <path
       d="M.662.677H.019L0 .452h.025C.039.62.059.646.216.646c.019 0 .048 0 .058-.002C.296.641.296.629.296.606V.079c0-.034 0-.048-.105-.048h-.04V0C.192.003.294.003.34.003.386.003.489.003.53 0v.031H.49C.385.031.385.045.385.079v.527c0 .023 0 .035.022.038.01.002.039.002.058.002C.621.646.642.62.656.452h.025L.662.677z"
       id="path266" />
  </symbol>
  <symbol
     id="aO">
    <path
       d="M.172.442a.131.131 0 0 0-.108.126c0 .068.057.131.142.131.138 0 .191-.101.205-.203C.413.483.413.478.424.478c.013 0 .013.005.013.024v.201c0 .017 0 .024-.011.024C.419.727.419.726.411.714L.374.655a.217.217 0 0 1-.169.072A.199.199 0 0 1 0 .533C0 .469.034.424.047.409.094.36.124.353.207.333L.256.322C.315.308.335.303.366.269.372.262.402.228.402.174A.141.141 0 0 0 .258.031a.268.268 0 0 0-.164.051C.029.133.026.206.025.24.024.247.018.249.013.249 0 .249 0 .242 0 .224v-.2C0 .007 0 0 .011 0 .018 0 .02.003.026.012l.037.06A.272.272 0 0 1 .259 0c.125 0 .207.101.207.207 0 .08-.048.175-.158.202L.172.442z"
       id="path267" />
  </symbol>
  <symbol
     id="aP">
    <path
       d="M.685.654.686.653V.078C.686.042.684.031.607.031H.583V0C.62.003.688.003.727.003.766.003.833.003.87 0v.031H.846C.769.031.767.042.767.078v.527c0 .036.002.047.079.047H.87v.031H.701c-.023 0-.026 0-.034-.019L.435.095l-.232.57C.196.683.19.683.169.683H0V.652h.024C.101.652.103.641.103.605v-.5c0-.027 0-.074-.103-.074V0l.117.003L.234 0v.031C.131.031.131.078.131.105v.541l.001.001.256-.629C.392.009.397 0 .407 0s.015.009.019.018l.259.636z"
       id="path268" />
  </symbol>
  <symbol
     id="aQ">
    <path
       d="M.534.269a.27.27 0 0 1-.267.273A.27.27 0 0 1 0 .269a.267.267 0 1 1 .534 0M.267.026C.196.026.086.083.086.28c0 .188.114.237.181.237.068 0 .181-.05.181-.237C.448.083.338.026.267.026z"
       id="path269" />
  </symbol>
  <symbol
     id="aR">
    <path
       d="M.15.501C.141.514.139.514.12.514H0V.489c.024 0 .052 0 .072-.007V.101c0-.023 0-.076-.072-.076V0l.086.003C.101.003.147.002.172 0v.025C.1.025.1.078.1.101v.358L.11.447.424.011C.432 0 .435 0 .441 0c.014 0 .014.007.014.026v.387c0 .023 0 .076.072.076v.025a1.485 1.485 0 0 0-.172 0V.489C.427.489.427.436.427.413V.116L.15.501z"
       id="path270" />
  </symbol>
  <symbol
     id="aS">
    <path
       d="M.505.508H.014L0 .339h.025c.009.126.029.144.14.144.056 0 .059 0 .059-.043V.076C.224.036.22.025.143.025H.122V0C.161.003.22.003.26.003.3.003.359.003.398 0v.025H.377C.3.025.296.036.296.076V.44c0 .043.003.043.059.043.108 0 .13-.017.139-.144h.025L.505.508z"
       id="path271" />
  </symbol>
  <symbol
     id="aT">
    <path
       d="M.445.511H0V.486C.067.486.072.48.072.439V.072C.072.031.067.025 0 .025V0h.457l.029.194H.461C.444.073.42.025.292.025H.184c-.035 0-.04.003-.04.043v.185h.07C.288.253.3.233.3.166h.025v.199H.3C.3.298.288.278.214.278h-.07v.165c0 .04.005.043.04.043h.102C.402.486.428.451.439.342h.025L.445.511z"
       id="path272" />
  </symbol>
  <symbol
     id="aU">
    <path
       d="M.562.638a.265.265 0 0 1-.197.089A.365.365 0 0 1 0 .364C0 .16.168 0 .366 0c.169 0 .275.136.275.255 0 .01 0 .017-.013.017C.617.272.617.266.616.256A.234.234 0 0 0 .379.031C.291.031.103.083.103.363c0 .295.205.333.274.333.107 0 .209-.083.232-.237C.611.445.612.442.625.442c.016 0 .016.003.016.024v.237c0 .017 0 .024-.011.024-.004 0-.008 0-.016-.012L.562.638z"
       id="path273" />
  </symbol>
  <symbol
     id="aV">
    <path
       d="M.295.509C.289.525.284.531.273.531.259.531.257.525.252.512L.091.099C.08.072.063.027 0 .025V0a.89.89 0 0 0 .156 0v.025C.114.027.111.061.111.07c0 .008 0 .01.034.099h.207L.374.113a.445.445 0 0 0 .021-.06C.395.025.359.025.342.025V0l.106.003C.482.003.521.001.545 0v.025C.489.025.48.03.467.065L.295.509M.342.194H.155l.094.241.093-.241z"
       id="path274" />
  </symbol>
  <symbol
     id="aW">
    <path
       d="M.141.46c0 .025.002.035.012.04a.244.244 0 0 0 .052.003C.279.503.364.5.364.393.364.354.359.282.229.282H.141V.46M.318.269C.388.287.45.332.45.393c0 .07-.089.135-.21.135H0V.503C.067.503.072.497.072.456v-.37C.072.045.067.039 0 .039V.014l.106.003.107-.003v.025C.146.039.141.045.141.086V.26h.09A.1.1 0 0 0 .313.228C.334.206.334.182.334.138c0-.056 0-.074.032-.105C.384.015.424 0 .469 0c.064 0 .079.062.079.082 0 .005 0 .015-.013.015C.524.097.523.088.523.084.516.023.48.022.473.022c-.02 0-.029.013-.035.024a.547.547 0 0 0-.027.108C.403.189.393.24.318.269z"
       id="path275" />
  </symbol>
  <symbol
     id="aX">
    <path
       d="M.43.194H.405C.397.114.387.025.247.025H.184c-.035 0-.04.003-.04.043v.371c0 .05.015.05.09.05v.025A4.927 4.927 0 0 0 .111.511L0 .514V.489C.067.489.072.483.072.442v-.37C.072.031.067.025 0 .025V0h.411L.43.194z"
       id="path276" />
  </symbol>
  <use
     xlink:href="#aN"
     transform="matrix(9.96264 0 0 -9.96264 86.505 23.2)"
     id="use276" />
  <use
     xlink:href="#aO"
     transform="matrix(9.96264 0 0 -9.96264 94.535 23.42)"
     id="use277" />
  <use
     xlink:href="#aP"
     transform="matrix(9.96264 0 0 -9.96264 104.257 23.2)"
     id="use278" />
  <use
     xlink:href="#aQ"
     transform="matrix(9.96264 0 0 -9.96264 114.02 23.34)"
     id="use279" />
  <use
     xlink:href="#aR"
     transform="matrix(9.96264 0 0 -9.96264 120.267 23.2)"
     id="use280" />
  <use
     xlink:href="#aS"
     transform="matrix(9.96264 0 0 -9.96264 126.304 23.2)"
     id="use281" />
  <use
     xlink:href="#aT"
     transform="matrix(9.96264 0 0 -9.96264 132.262 23.2)"
     id="use282" />
  <use
     xlink:href="#aU"
     transform="matrix(9.96264 0 0 -9.96264 141.863 23.42)"
     id="use283" />
  <use
     xlink:href="#aV"
     transform="matrix(9.96264 0 0 -9.96264 149.315 23.2)"
     id="use284" />
  <use
     xlink:href="#aW"
     transform="matrix(9.96264 0 0 -9.96264 155.532 23.34)"
     id="use285" />
  <use
     xlink:href="#aX"
     transform="matrix(9.96264 0 0 -9.96264 161.51 23.2)"
     id="use286" />
  <use
     xlink:href="#aQ"
     transform="matrix(9.96264 0 0 -9.96264 166.7 23.34)"
     id="use287" />
  <path
     stroke-width="1.5"
     stroke-linecap="square"
     stroke-linejoin="round"
     fill="none"
     stroke="#d62728"
     d="M57.987 33.637h20"
     id="path287" />
  <path
     d="M64.987 36.637h6v-6h-6z"
     fill="#d62728"
     id="path288" />
  <path
     stroke-miterlimit="10"
     fill="none"
     stroke="#d62728"
     d="M64.987 36.637h6v-6h-6z"
     id="path289" />
  <symbol
     id="aY">
    <path
       d="M.197.605c0 .036.003.047.082.047h.026v.031C.27.68.191.68.153.68.114.68.035.68 0 .683V.652h.026C.105.652.108.641.108.605V.078C.108.042.105.031.026.031H0V0c.035.003.114.003.152.003C.191.003.27.003.305 0v.031H.279C.2.031.197.042.197.078v.527z"
       id="path290" />
  </symbol>
  <symbol
     id="aZ">
    <path
       d="M.072.072C.072.031.067.025 0 .025V0h.281c.141 0 .247.116.247.253 0 .138-.103.261-.247.261H0V.489C.067.489.072.483.072.442v-.37M.181.025c-.035 0-.04.003-.04.043v.378c0 .04.005.043.04.043h.077A.174.174 0 0 0 .401.424C.423.396.445.354.445.253.445.171.43.129.409.097A.176.176 0 0 0 .258.025H.181z"
       id="path291" />
  </symbol>
  <symbol
     id="ba">
    <path
       d="M.278.234c.1 0 .184.063.184.139 0 .072-.076.141-.191.141H0V.489C.067.489.072.483.072.442v-.37C.072.031.067.025 0 .025V0l.108.003L.216 0v.025C.149.025.144.031.144.072v.162h.134M.141.446c0 .04.005.043.04.043H.25C.376.489.376.413.376.373c0-.039 0-.116-.126-.116H.141v.189z"
       id="path292" />
  </symbol>
  <symbol
     id="bb">
    <path
       d="M.106.053a.053.053 0 0 1-.053.053A.053.053 0 0 1 0 .053C0 .024.024 0 .053 0c.029 0 .053.024.053.053z"
       id="path293" />
  </symbol>
  <symbol
     id="bc">
    <path
       d="M.383.694C.376.712.375.716.358.716.342.716.34.71.335.697L.114.1C.105.077.089.032 0 .031V0c.021.001.061.003.101.003C.143.003.2.001.217 0v.031c-.051 0-.074.026-.074.05 0 .006 0 .008.005.02l.048.13h.266L.519.078C.524.065.524.063.524.06.524.031.468.031.442.031V0a2.274 2.274 0 0 0 .275 0v.031H.699C.635.031.625.04.615.068L.383.694M.451.262H.207l.122.33.122-.33z"
       id="path294" />
  </symbol>
  <symbol
     id="bd">
    <path
       d="M.333.518c0 .016 0 .024-.01.024C.317.542.316.541.301.519.296.514.286.499.282.493a.175.175 0 0 1-.125.049C.066.542 0 .474 0 .396A.14.14 0 0 1 .044.295C.074.265.094.261.186.24.24.227.25.225.273.204A.103.103 0 0 0 .305.129.105.105 0 0 0 .197.025a.197.197 0 0 0-.123.039C.029.099.026.148.025.175.024.183.016.184.013.184 0 .184 0 .177 0 .159V.024C0 .008 0 0 .01 0c.006 0 .007.001.022.023.005.005.015.02.019.026A.222.222 0 0 1 .197 0c.097 0 .159.077.159.156C.356.219.317.259.317.26.28.298.264.301.179.321L.117.336C.067.356.051.395.051.425c0 .046.04.095.107.095C.285.52.303.403.307.371.309.364.309.358.32.358c.013 0 .013.005.013.024v.136z"
       id="path295" />
  </symbol>
  <symbol
     id="be">
    <path
       d="M.144.456c0 .041.005.047.072.047v.025L.108.525 0 .528V.503C.068.503.072.497.072.454V.237c0-.025 0-.062.002-.075C.083.081.163 0 .274 0c.116 0 .18.102.181.175v.266c.001.04.027.062.072.062v.025a1.732 1.732 0 0 0-.169 0V.503C.43.503.43.45.43.427V.192C.43.076.344.025.276.025c-.03 0-.132.012-.132.162v.269z"
       id="path296" />
  </symbol>
  <symbol
     id="bf">
    <path
       d="M.516.485.517.484V.072C.517.031.512.025.445.025V0c.02.001.069.003.104.003C.584.003.62.001.653 0v.025C.586.025.581.031.581.072v.37c0 .041.005.047.072.047v.025H.532c-.023 0-.026 0-.034-.019L.327.075.155.496C.148.514.142.514.121.514H0V.489C.067.489.072.483.072.442V.101c0-.023 0-.076-.072-.076V0l.086.003C.101.003.147.002.172 0v.025C.1.025.1.078.1.101v.376l.001.001.187-.46C.292.009.297 0 .307 0s.015.009.019.018l.19.467z"
       id="path297" />
  </symbol>
  <use
     xlink:href="#aY"
     transform="matrix(9.96264 0 0 -9.96264 86.485 37.137)"
     id="use297" />
  <use
     xlink:href="#aR"
     transform="matrix(9.96264 0 0 -9.96264 90.45 37.137)"
     id="use298" />
  <use
     xlink:href="#aZ"
     transform="matrix(9.96264 0 0 -9.96264 96.578 37.137)"
     id="use299" />
  <use
     xlink:href="#aT"
     transform="matrix(9.96264 0 0 -9.96264 102.774 37.137)"
     id="use300" />
  <use
     xlink:href="#ba"
     transform="matrix(9.96264 0 0 -9.96264 108.344 37.137)"
     id="use301" />
  <use
     xlink:href="#bb"
     transform="matrix(9.96264 0 0 -9.96264 114.5 37.137)"
     id="use302" />
  <use
     xlink:href="#bc"
     transform="matrix(9.96264 0 0 -9.96264 122.027 37.137)"
     id="use303" />
  <use
     xlink:href="#bd"
     transform="matrix(9.96264 0 0 -9.96264 130.156 37.277)"
     id="use304" />
  <use
     xlink:href="#bd"
     transform="matrix(9.96264 0 0 -9.96264 134.71 37.277)"
     id="use305" />
  <use
     xlink:href="#be"
     transform="matrix(9.96264 0 0 -9.96264 139.182 37.277)"
     id="use306" />
  <use
     xlink:href="#bf"
     transform="matrix(9.96264 0 0 -9.96264 145.33 37.137)"
     id="use307" />
  <use
     xlink:href="#bb"
     transform="matrix(9.96264 0 0 -9.96264 153.35 37.137)"
     id="use308" />
  <path
     stroke-width="1.5"
     stroke-linecap="square"
     stroke-linejoin="round"
     fill="none"
     stroke="#9467bd"
     d="M57.987 47.574h20"
     id="path308" />
  <path
     d="m67.987 44.574-3 6h6z"
     fill="#9467bd"
     id="path309" />
  <path
     stroke-miterlimit="10"
     fill="none"
     stroke="#9467bd"
     d="m67.987 44.574-3 6h6z"
     id="path310" />
  <symbol
     id="bg">
    <path
       d="M.279 0v.058H0V0h.279z"
       id="path311" />
  </symbol>
  <symbol
     id="bh">
    <path
       d="M.569.258H.544C.533.158.519.031.335.031H.241c-.047 0-.049.007-.049.04v.533c0 .034 0 .048.095.048H.32v.031C.284.68.193.68.152.68.113.68.035.68 0 .683V.652h.024C.101.652.103.641.103.605V.078C.103.042.101.031.024.031H0V0h.541l.028.258z"
       id="path312" />
  </symbol>
  <symbol
     id="bi">
    <path
       d="M.586.68H0V.649h.024C.101.649.103.638.103.602V.078C.103.042.101.031.024.031H0V0h.601l.042.258H.618C.593.105.569.031.392.031H.241c-.047 0-.049.007-.049.04v.267H.29c.099 0 .113-.03.113-.117h.025v.265H.403C.403.399.389.369.29.369H.192v.24c0 .033.002.04.049.04h.143C.541.649.573.598.589.455h.025L.586.68z"
       id="path313" />
  </symbol>
  <use
     xlink:href="#bc"
     transform="matrix(9.96264 0 0 -9.96264 86.466 51.074)"
     id="use313" />
  <use
     xlink:href="#bg"
     transform="matrix(9.96264 0 0 -9.96264 94.346 49.211)"
     id="use314" />
  <use
     xlink:href="#bh"
     transform="matrix(9.96264 0 0 -9.96264 98.39 51.074)"
     id="use315" />
  <use
     xlink:href="#aY"
     transform="matrix(9.96264 0 0 -9.96264 105.145 51.074)"
     id="use316" />
  <use
     xlink:href="#aN"
     transform="matrix(9.96264 0 0 -9.96264 109.2 51.074)"
     id="use317" />
  <use
     xlink:href="#bi"
     transform="matrix(9.96264 0 0 -9.96264 117.06 51.074)"
     id="use318" />
  <path
     stroke-width="1.5"
     stroke-linecap="square"
     stroke-linejoin="round"
     fill="none"
     stroke="#1f77b4"
     d="M57.987 61.512h20"
     id="path318" />
  <path
     d="m67.987 65.754 4.243-4.242-4.243-4.243-4.242 4.243z"
     fill="#1f77b4"
     id="path319" />
  <path
     stroke-miterlimit="10"
     fill="none"
     stroke="#1f77b4"
     d="m67.987 65.754 4.243-4.242-4.243-4.243-4.242 4.243z"
     id="path320" />
  <symbol
     id="bj">
    <path
       d="M.57.68H0V.649h.024C.101.649.103.638.103.602V.078C.103.042.101.031.024.031H0V0c.035.003.113.003.152.003C.193.003.284.003.32 0v.031H.287C.192.031.192.044.192.079v.246h.094c.098 0 .11-.031.11-.117h.025v.265H.396C.396.387.384.356.286.356H.192v.253c0 .033.002.04.049.04h.133C.529.649.557.595.573.455h.025L.57.68z"
       id="path321" />
  </symbol>
  <use
     xlink:href="#bj"
     transform="matrix(9.96264 0 0 -9.96264 86.535 65.012)"
     id="use321" />
  <use
     xlink:href="#bg"
     transform="matrix(9.96264 0 0 -9.96264 93.34 63.149)"
     id="use322" />
  <use
     xlink:href="#bh"
     transform="matrix(9.96264 0 0 -9.96264 97.385 65.012)"
     id="use323" />
  <use
     xlink:href="#aY"
     transform="matrix(9.96264 0 0 -9.96264 104.14 65.012)"
     id="use324" />
  <use
     xlink:href="#aN"
     transform="matrix(9.96264 0 0 -9.96264 108.194 65.012)"
     id="use325" />
  <use
     xlink:href="#bi"
     transform="matrix(9.96264 0 0 -9.96264 116.055 65.012)"
     id="use326" />
  <path
     stroke-width="1.5"
     stroke-linecap="square"
     stroke-linejoin="round"
     fill="none"
     stroke="#ff7f0e"
     d="M57.987 75.449h20"
     id="path326" />
  <path
     d="m67.987 78.449 3-6h-6z"
     fill="#ff7f0e"
     id="path327" />
  <path
     stroke-miterlimit="10"
     fill="none"
     stroke="#ff7f0e"
     d="m67.987 78.449 3-6h-6z"
     id="path328" />
  <symbol
     id="bk">
    <path
       d="M.195.628A.055.055 0 0 0 .19.645c0 .029.053.029.081.029v.031C.236.702.165.702.127.702.079.702.036.704 0 .705V.674C.077.674.085.67.099.636L.348.02C.354.006.356 0 .372 0c.017 0 .019.005.025.02l.237.589C.66.674.726.674.745.674v.031a1.7 1.7 0 0 0-.211 0V.674C.591.673.605.643.605.625c0-.005 0-.007-.006-.02L.402.115.195.628z"
       id="path329" />
  </symbol>
  <symbol
     id="bl">
    <path
       d="M.373.316c.122 0 .239.078.239.181 0 .099-.106.186-.247.186H0V.652h.024C.101.652.103.641.103.605V.078C.103.042.101.031.024.031H0V0c.035.003.109.003.147.003C.185.003.26.003.295 0v.031H.271C.194.031.192.042.192.078v.238h.181M.189.612c0 .033.002.04.049.04h.101c.17 0 .17-.11.17-.155 0-.043 0-.155-.17-.155h-.15v.27z"
       id="path330" />
  </symbol>
  <symbol
     id="bm">
    <path
       d="M.699.361c0 .205-.16.366-.349.366A.358.358 0 0 1 0 .361C0 .159.159 0 .349 0c.193 0 .35.161.35.361M.35.026C.242.026.103.12.103.376c0 .244.145.326.246.326.105 0 .247-.085.247-.326C.596.115.452.026.35.026z"
       id="path331" />
  </symbol>
  <symbol
     id="bn">
    <path
       d="M.189.375v.259c0 .027.002.036.026.039l.06.001c.087 0 .219 0 .219-.149C.494.418.423.375.31.375H.189M.413.362c.12.029.184.095.184.163 0 .097-.122.18-.273.18H0V.674h.024C.101.674.103.663.103.627V.1C.103.064.101.053.024.053H0V.022c.036.003.107.003.146.003.039 0 .11 0 .146-.003v.031H.268C.191.053.189.064.189.1v.253h.125C.368.353.4.333.417.317.455.28.455.255.455.185c0-.069 0-.105.043-.144A.206.206 0 0 1 .626 0c.08 0 .099.082.099.11 0 .006 0 .017-.013.017C.701.127.701.118.7.111.692.033.651.022.63.022.577.022.57.067.552.183.541.253.537.278.505.31a.204.204 0 0 1-.092.052z"
       id="path332" />
  </symbol>
  <use
     xlink:href="#bj"
     transform="matrix(9.96264 0 0 -9.96264 86.535 78.949)"
     id="use332" />
  <use
     xlink:href="#bg"
     transform="matrix(9.96264 0 0 -9.96264 93.34 77.086)"
     id="use333" />
  <use
     xlink:href="#bk"
     transform="matrix(9.96264 0 0 -9.96264 97.175 79.168)"
     id="use334" />
  <use
     xlink:href="#bc"
     transform="matrix(9.96264 0 0 -9.96264 104.252 78.949)"
     id="use335" />
  <use
     xlink:href="#bl"
     transform="matrix(9.96264 0 0 -9.96264 112.441 78.949)"
     id="use336" />
  <use
     xlink:href="#bm"
     transform="matrix(9.96264 0 0 -9.96264 119.973 79.168)"
     id="use337" />
  <use
     xlink:href="#bn"
     transform="matrix(9.96264 0 0 -9.96264 128.232 79.168)"
     id="use338" />
  <path
     stroke-width="1.5"
     stroke-linecap="square"
     stroke-linejoin="round"
     fill="none"
     stroke="#2ca02c"
     d="M57.987 89.386h20"
     id="path338" />
  <path
     d="m67.987 86.386-2.853 2.073 1.09 3.354h3.527l1.09-3.354z"
     fill="#2ca02c"
     id="path339" />
  <path
     stroke-miterlimit="10"
     fill="none"
     stroke="#2ca02c"
     d="m67.987 86.386-2.853 2.073 1.09 3.354h3.527l1.09-3.354z"
     id="path340" />
  <use
     xlink:href="#bi"
     transform="matrix(9.96264 0 0 -9.96264 86.535 92.886)"
     id="use340" />
  <use
     xlink:href="#aO"
     transform="matrix(9.96264 0 0 -9.96264 94.087 93.105)"
     id="use341" />
  <use
     xlink:href="#aN"
     transform="matrix(9.96264 0 0 -9.96264 99.975 92.886)"
     id="use342" />
</svg>
