<?xml version="1.0" encoding="UTF-8" standalone="no"?>
<!-- Created with Inkscape (http://www.inkscape.org/) -->

<svg
   version="1.1"
   id="svg2"
   width="1537.5845"
   height="462.68649"
   viewBox="0 0 1537.5845 462.68649"
   sodipodi:docname="large_scale_experiment.svg"
   inkscape:version="1.3 (0e150ed, 2023-07-21)"
   inkscape:export-filename="large_scale_experiment.pdf"
   inkscape:export-xdpi="96"
   inkscape:export-ydpi="96"
   xmlns:inkscape="http://www.inkscape.org/namespaces/inkscape"
   xmlns:sodipodi="http://sodipodi.sourceforge.net/DTD/sodipodi-0.dtd"
   xmlns="http://www.w3.org/2000/svg"
   xmlns:svg="http://www.w3.org/2000/svg">
  <sodipodi:namedview
     id="namedview1"
     pagecolor="#ffffff"
     bordercolor="#000000"
     borderopacity="0.25"
     inkscape:showpageshadow="2"
     inkscape:pageopacity="0.0"
     inkscape:pagecheckerboard="0"
     inkscape:deskcolor="#d1d1d1"
     inkscape:zoom="0.88406549"
     inkscape:cx="603.46208"
     inkscape:cy="330.29227"
     inkscape:window-width="1888"
     inkscape:window-height="923"
     inkscape:window-x="0"
     inkscape:window-y="25"
     inkscape:window-maximized="0"
     inkscape:current-layer="g188" />
  <defs
     id="defs6">
    <clipPath
       clipPathUnits="userSpaceOnUse"
       id="clipPath20">
      <path
         d="M 180,43.56 H 687.27273 V 348.48 H 180 Z"
         id="path18" />
    </clipPath>
    <clipPath
       clipPathUnits="userSpaceOnUse"
       id="clipPath30">
      <path
         d="M 180,43.56 H 687.27273 V 348.48 H 180 Z"
         id="path28" />
    </clipPath>
    <clipPath
       clipPathUnits="userSpaceOnUse"
       id="clipPath174">
      <path
         d="M 180,43.56 H 687.27273 V 348.48 H 180 Z"
         id="path172" />
    </clipPath>
    <clipPath
       clipPathUnits="userSpaceOnUse"
       id="clipPath184">
      <path
         d="M 180,43.56 H 687.27273 V 348.48 H 180 Z"
         id="path182" />
    </clipPath>
  </defs>
  <g
     id="g8"
     transform="matrix(1.3333333,0,0,-1.3333333,-182.4155,465.17332)">
    <path
       d="M 180,43.56 H 687.27273 V 348.48 H 180 Z"
       style="fill:#ffffff;fill-opacity:1;fill-rule:nonzero;stroke:none"
       id="path12" />
    <g
       id="g14">
      <g
         id="g16"
         clip-path="url(#clipPath20)">
        <path
           d="m 203.05785,333.73319 v -1.53543 l 0.57717,-0.8165 0.57717,-0.21035 0.57716,-0.52445 0.57717,-0.67599 0.57717,-0.51415 0.57717,-0.72324 0.57716,-0.45707 0.57717,1.87942 0.57717,-0.29232 0.57717,-0.46222 0.57717,-0.27682 0.57716,1.50105 0.57717,-0.31838 0.57717,-0.40607 0.57717,-0.18195 0.57716,-0.32525 0.57717,-0.11767 0.57717,-0.2771 0.57717,-0.16163 0.57717,-0.31619 0.57716,-0.33129 0.57717,-0.27603 0.57717,-0.21838 0.57717,-0.17185 0.57717,-0.22082 0.57716,-0.19954 0.57717,-0.18175 0.57717,-0.33349 0.57717,-0.21351 0.57716,-0.27525 0.57717,-0.40593 0.57717,-0.20188 0.57717,-0.3112 0.57716,-0.39141 0.57717,-0.11987 0.57717,-0.39006 0.57717,-0.29999 0.57716,-0.17709 0.57717,-0.48061 0.57717,-0.40128 0.57717,-0.46654 0.57717,-0.56047 0.57716,-0.46709 0.57717,0.46376 0.57717,-0.38109 0.57717,-0.41433 0.57716,-0.1401 0.57717,-0.55016 0.57717,-0.39573 0.57717,-0.17619 0.57717,-0.0432 0.57716,-0.18594 0.57717,-0.0251 0.57717,-0.2905 0.57717,-0.0608 0.57716,-0.40937 0.57717,-0.30806 0.57717,-0.46061 0.57717,-0.47486 0.57717,-0.88227 0.57716,0.22724 0.57717,-0.48394 0.57717,-0.51997 0.57717,-0.54847 0.57716,-0.22169 0.57717,-0.36284 0.57717,-0.5499 0.57717,-0.45844 0.57717,-0.48736 0.57716,-0.39336 0.57717,-0.11735 0.57717,-0.66681 0.57717,1.26272 0.57716,0.0531 0.57717,-0.004 0.57717,-0.1872 0.57717,-0.28641 0.57716,-12.0335 0.57717,1.7479 0.57717,0.0811 0.57717,0.20507 0.57717,-1.69229 0.57716,-1.46957 0.57717,-0.1813 0.57717,-11.33369 0.57717,-3.10439 0.57716,-1.73676 0.57717,6.10035 0.57717,-3.697 0.57717,-2.35835 0.57717,-2.0182 0.57716,1.32738 0.57717,-0.52722 0.57717,-3.07575 0.57717,1.64702 0.57716,3.23035 0.57717,-5.10498 0.57717,-1.37096 0.57717,-0.21 0.57717,-0.36201 0.57716,-0.59836 0.57717,-0.68999 0.57717,-0.0259 0.57717,-0.71564 0.57716,-0.85293 0.57717,0.0428 0.57717,-0.48613 0.57717,0.15221 0.57716,0.0297 0.57717,-0.76075 0.57717,-0.5287 0.57717,-3.23056 0.57717,0.16893 0.57716,-1.68873 0.57717,-0.58932 0.57717,-0.75283 0.57717,-0.16902 0.57717,-0.43753 0.57716,-0.41515 0.57717,-0.18146 0.57717,-0.78863 0.57717,-0.57574 0.57716,-0.51631 0.57717,-0.66838 0.57717,-0.50266 0.57717,-0.57343 0.57716,-0.66162 0.57717,-1.00777 0.57717,-0.52789 0.57717,-0.0892 0.57717,-0.76173 0.57716,-0.63859 0.57717,-0.74235 0.57717,-7.53974 0.57717,-3.53854 0.57716,-0.16639 0.57717,-1.96012 0.57717,-0.0117 0.57717,-4.07135 0.57716,-0.91708 0.57717,-1.21746 0.57717,-0.40108 0.57717,-0.60964 0.57717,-5.12183 0.57716,0.022 0.57717,-2.50271 0.57717,-0.83519 0.57717,-0.55759 0.57717,0.56442 0.57716,-0.63902 0.57717,-0.0645 0.57717,-0.38844 0.57717,-0.8027 0.57716,-0.57605 0.57717,-4.05523 0.57717,-2.67943 0.57717,-0.85874 0.57716,-0.10747 0.57717,-0.57974 0.57717,-3.79521 0.57717,-0.27173 0.57717,-0.61976 0.57716,-0.721 0.57717,-0.75438 0.57717,-1.3662 0.57717,-2.14837 0.57716,-0.77591 0.57717,-0.97966 0.57717,0.29302 0.57717,-0.52894 0.57716,-0.0495 0.57717,-0.72581 0.57717,-1.08608 0.57717,-0.52178 0.57717,-0.54285 0.57716,-0.96349 0.57717,-0.53877 0.57717,-0.4932 0.57717,-0.72811 0.57716,-0.92494 0.57717,0.62395 0.57717,-0.13433 0.57717,-0.249 0.57717,-0.34616 0.57716,-0.62149 0.57717,-0.86193 0.57717,-0.39663 0.57717,-0.27642 0.57716,-0.80379 0.57717,-0.85337 0.57717,-0.93059 0.57717,-3.99253 0.57716,-0.73489 0.57717,-0.348 0.57717,-0.0939 0.57717,-0.65907 0.57717,-0.58864 0.57716,-0.49134 0.57717,0.30835 0.57717,-0.30387 0.57717,-0.67723 0.57716,0.17931 0.57717,-0.27545 0.57717,-0.48851 0.57717,-0.40812 0.57717,-0.61112 0.57716,-4.82758 0.57717,-0.37518 0.57717,-0.60453 0.57717,-0.64331 0.57717,-0.47919 0.57716,-0.79948 0.57717,-0.11984 0.57717,-0.20544 0.57716,-0.64311 0.57717,-0.43297 0.57717,-0.30257 0.57717,-5.86656 0.57717,-0.64212 0.57716,-0.3597 0.57717,-1.24215 0.57717,-0.23166 0.57717,-0.62814 0.57717,-0.29395 0.57716,-0.4518 0.57717,-0.51148 0.57717,-0.55865 0.57717,-0.64779 0.57716,-0.80416 0.57717,-0.89805 0.57717,-0.16536 0.57717,0.0409 0.57716,-0.18214 0.57717,-0.49817 0.57717,-0.0507 0.57717,-0.41173 0.57717,-0.15121 0.57716,-0.41309 0.57717,-0.22404 0.57717,-3.07283 0.57717,-0.58194 0.57716,-0.5131 0.57717,-2.65489 0.57717,-0.64192 0.57717,-0.80397 0.57716,-1.82578 0.57717,-0.57159 0.57717,-0.56606 0.57717,-0.4546 0.57717,-0.3035 0.57716,-0.17798 0.57717,-0.23266 0.57717,-0.34806 0.57717,-0.41027 0.57716,-0.11499 0.57717,-0.59955 0.57717,-0.14489 0.57717,-0.0633 0.57717,-0.18048 0.57716,-0.14565 0.57717,-0.55253 0.57717,-0.60011 0.57717,-0.25159 0.57716,-0.64513 0.57717,-0.32595 0.57717,-0.34586 0.57717,-7.78741 0.57717,-4.65835 0.57716,-0.71086 0.57717,-1.57027 0.57717,-0.59642 0.57717,-0.5209 0.57716,-0.43576 0.57717,-0.32869 0.57717,-5.54953 0.57717,-4.84305 0.57716,-0.4195 0.57717,-0.43372 0.57717,-0.2474 0.57717,0.3088 0.57717,-1.78091 0.57716,-0.54577 0.57717,0.071 0.57717,-0.054 0.57717,-0.55006 0.57717,-0.42936 0.57716,-1.46542 0.57717,-0.23096 0.57717,-0.36784 0.57717,-0.20325 0.57716,0.062 0.57717,-0.28291 0.57717,-0.46181 0.57717,-0.0754 0.57716,-0.34801 0.57717,-0.26524 0.57717,-1.40288 0.57717,-0.0908 0.57717,-0.0894 0.57716,-0.40293 0.57717,-0.14208 0.57717,-0.0531 0.57717,-0.42616 0.57716,-0.0355 0.57717,-0.37498 0.57717,-0.97515 0.57717,-0.23758 0.57716,-0.46587 0.57717,-0.46453 0.57717,-0.2915 0.57717,-0.57033 0.57717,-0.0445 0.57716,-0.87518 0.57717,-0.27141 0.57717,-0.52363 0.57717,-0.28438 0.57716,-0.44026 0.57717,-0.17314 0.57717,-0.457807 0.57717,-0.304094 0.57717,-0.327902 0.57716,-0.288773 0.57717,-0.374676 0.57717,-0.247039 0.57717,-0.197825 0.57716,-0.396478 0.57717,-0.441418 0.57717,-0.153773 0.57717,-0.136284 0.57717,-0.220691 0.57716,-0.229472 0.57717,-0.03247 0.57717,-0.249557 0.57717,0.156361 0.57716,0.101819 0.57717,-0.242581 0.57717,-0.238792 0.57717,0.06744 0.57716,-0.374608 0.57717,-0.955543 0.57717,-0.17478 0.57717,0.108288 0.57717,-0.09725 0.57716,-0.01705 0.57717,-0.03051 0.57717,0.03405 0.57717,-0.412527 0.57716,-0.289543 0.57717,-0.188964 0.57717,-0.459071 0.57717,-0.363892 0.57717,-0.08152 0.57716,-0.09657 0.57717,-0.226373 0.57717,-0.236947 0.57717,-0.03774 0.57716,-0.475592 0.57717,-0.404387 0.57717,-0.330934 0.57717,-0.232536 0.57717,-0.433429 0.57716,-0.300233 0.57717,-0.0054 0.57717,-0.124591 0.57717,-0.148351 0.57716,-0.272425 0.57717,-0.15979 0.57717,-0.429524 0.57717,-0.05739 0.57716,-0.189099 0.57717,-0.265025 0.57717,-0.05513 0.57717,-0.38074 0.57717,-0.290265 0.57716,-5.920179 0.57717,-0.321039 0.57717,0.234303 0.57717,-0.236384 0.57717,-0.143349 0.57716,-0.194757 0.57717,-0.03629 0.57717,-0.244647 0.57717,-0.174485 0.57716,-0.270391 0.57717,-3.34662 0.57717,-0.221745 0.57717,-0.08551 0.57716,-0.206343 0.57717,-0.129831 0.57717,-0.123 0.57717,-0.190247 0.57717,-0.0236 0.57716,-0.0038 0.57717,-0.316832 0.57717,-0.518371 0.57717,-0.06506 0.57716,-0.208822 0.57717,0.157518 0.57717,-0.140825 0.57717,-0.133567 0.57716,-3.187054 0.57717,-0.211945 0.57717,-0.271889 0.57717,0.01357 0.57717,0.05574 0.57716,-0.06399 0.57717,-0.202067 0.57717,0.162726 0.57717,-0.188382 0.57716,-0.62219 0.57717,0.179157 0.57717,-0.134628 0.57717,0.0057 0.57717,-0.129053 0.57716,0.09501 0.57717,-0.130019 0.57717,-0.03929 0.57717,0.09511 0.57716,-0.668533 0.57717,-0.02663 0.57717,0.03018 0.57717,-0.102343 0.57717,-0.0076 0.57716,-0.238869 0.57717,-0.08105 0.57717,-0.05099 0.57717,-0.09277 0.57716,0.08286 0.57717,-0.189 0.57717,-0.116962 0.57717,-0.01947 0.57716,-0.121737 0.57717,-0.06737 0.57717,-0.806221 0.57717,0.09012 0.57717,0.08096 0.57716,-0.01078 0.57717,0.06639 0.57717,-0.11004 0.57717,-0.09047 0.57716,-0.106098 0.57717,-0.09322 0.57717,-0.140547 0.57717,-0.02678 0.57717,-0.01811 0.57716,-0.525105 0.57717,-0.102285 0.57717,-0.111563 0.57717,-0.162659 0.57716,-0.0749 0.57717,-0.04847 0.57717,0.0082 0.57717,-0.117983 0.57717,-0.206385 0.57716,-0.03235 0.57717,0.301604 0.57717,-0.145384 0.57717,-0.02117 0.57716,0.08907 0.57717,-0.10153 0.57717,-0.106538 0.57717,4.87e-4 0.57716,-0.02618 0.57717,-0.01415 0.57717,0.06187 0.57717,-0.108888 0.57717,-0.100428 0.57716,0.0715 0.57717,0.196824 0.57717,-0.09808 0.57717,0.03959 0.57716,-0.02306 0.57717,-0.09424 0.57717,0.116937 0.57717,-0.0156 0.57717,0.0674 0.57716,-0.02633 0.57717,-0.03699 0.57717,0.01581 0.57717,-0.10353 0.57716,0.07894 0.57717,0.146791 0.57717,-0.03817 0.57717,-0.0028 0.57716,0.183429 0.57717,-0.0584 0.57717,-0.118296 0.57717,-0.493698 0.57717,0.01473 0.57716,-0.07576 0.57717,0.423319 0.57717,0.139571 0.57717,0.09543 0.57716,-0.01164 0.57717,-0.04198 0.57717,0.04792 0.57717,-0.109371 0.57717,-0.032 0.57716,0.175342 0.57717,-0.05066 0.57717,-0.11021 0.57717,0.10187 0.57716,-0.05692 0.57717,0.03412 0.57717,-0.04076 0.57717,-0.03552 0.57717,-0.04717 0.57716,-0.132413 0.57717,-0.642739 0.57717,-0.03283 0.57717,0.08721 0.57716,-0.220801 0.57717,-0.06535 0.57717,-0.0058 0.57717,-0.112861 0.57716,-0.08002 0.57717,-0.04658 0.57717,-1.555873 0.57717,0.05165 0.57717,0.05867 0.57716,-0.09304 0.57717,-0.852774 0.57717,0.0013 0.57717,-0.110708 0.57716,-0.0389 0.57717,0.03581 0.57717,-0.04522 0.57717,0.009 0.57717,-0.05754 0.57716,-0.0676 0.57717,-0.108315 0.57717,-0.06141 0.57717,-0.06613 0.57716,-0.616012 0.57717,0.0051 0.57717,0.02043 0.57717,-0.127428 0.57717,-0.147316 0.57716,-0.133568 0.57717,0.103157 0.57717,0.02858 0.57717,1.079574 0.57716,0.0076 0.57717,0.03135 0.57717,-0.122561 0.57717,-0.03724 0.57716,0.008 0.57717,-0.04196 0.57717,0.279253 0.57717,-0.03398 0.57717,-0.07064 0.57716,-0.01625 0.57717,-0.0022 0.57717,0.0076 0.57717,-0.04658 0.57716,-0.872509 0.57717,-0.02777 0.57717,-0.07149 0.57717,0.04451 0.57717,-0.04216 0.57716,-0.131265 0.57717,0.01121 0.57717,0.106457 0.57717,-0.04355 0.57716,-0.008 0.57717,-0.09203 0.57717,0.06507 0.57717,0.01848 0.57717,-0.0215 0.57716,0.01627 0.57717,0.006 0.57717,0.268808 0.57717,0.0078 0.57716,0.06373 0.57717,-0.611671 0.57717,0.0069 0.57717,-0.04726 0.57716,0.04174 0.57717,-0.03108 0.57717,0.0017 0.57717,-0.0428 0.57717,0.04231 0.57716,-0.01365 0.57717,0.01368 0.57717,-0.01345 0.57717,-0.07026 0.57716,0.07049 0.57717,0.06664 0.57717,-0.04785 0.57717,-0.05328 0.57717,-0.02497 0.57716,-0.02485 0.57717,0.01556 0.57717,0.04778 0.57717,-0.07559 0.57716,0.0158 0.57717,-4.88e-4 0.57717,0.549385 0.57717,0.0756 0.57717,0.06851 0.57716,-0.03708 0.57717,0.04367 0.57717,-0.01089 0.57717,0.01645 0.57716,0.0302 0.57717,0.03789 0.57717,-0.01277 0.57717,0.01484 0.57716,0.0313 0.57717,0.06511 0.57717,-0.02316 0.57717,-0.110111 0.57717,0.203985 0.57716,-0.02585 0.57717,0.03098 0.57717,-0.0665 0.57717,-0.03041 0.57716,-0.01303 0.57717,-0.410856 0.57717,0.04837 0.57717,-0.05919 0.57717,0.02096 0.57716,-0.07578 0.57717,0.0014 0.57717,-0.04286 0.57717,-0.02573 0.57716,-0.03157 0.57717,0.164751 0.57717,0.003 0.57717,-0.03595 0.57717,-0.440396 0.57716,0.176016 0.57717,0.0038 0.57717,0.03555 0.57717,-0.02435 0.57716,-0.116542 0.57717,0.01942 0.57717,-0.0025 0.57717,-0.02921 0.57716,-0.05951 0.57717,-0.256583 0.57717,0.01742 0.57717,-0.02916 0.57717,0.02125 0.57716,-0.481018 0.57717,-0.0112 0.57717,-0.07259 0.57717,-0.03147 0.57717,-0.007 0.57716,0.02128 0.57717,0.03695 0.57717,-0.01782 0.57717,-0.420916 0.57716,-0.03758 0.57717,0.05969 0.57717,0.03158 0.57717,-0.03769 0.57716,-0.05315 0.57717,-0.0161 0.57717,0.02661 0.57717,0.03475 0.57717,-0.0078 0.57716,-0.0023 0.57717,-0.03517 0.57717,0.02204 0.57717,0.0435 0.57716,-0.02346 0.57717,0.03363 0.57717,0.01228 0.57717,0.61301 0.57716,0.05273 0.57717,-0.02392 0.57717,-0.09908 0.57717,0.329042 0.57717,-0.06065 0.57716,-0.02565 0.57717,-0.02995 0.57717,0.03379 0.57717,-0.250468 0.57716,0.24427 0.57717,-0.0031 0.57717,0.124706 0.57717,-0.02012 0.57717,-0.07476 0.57716,0.0039 0.57717,0.04739 0.57717,0.0023 0.57717,-0.01202 0.57716,-0.04264 0.57717,0.07165 0.57717,0.01084 0.57717,0.01199 0.57717,-0.0025 0.57716,-0.0317 0.57717,-1.239515 0.57717,0.01597 0.57717,-0.01608 0.57716,-0.02362 0.57717,0.05829 0.57717,0.07713 0.57717,0.01396 0.57716,-1.328485 0.57717,-0.01769 0.57717,-0.01483 0.57717,-0.007 0.57717,-0.0171 0.57716,0.03214 0.57717,-0.0145 0.57717,-0.02345 0.57717,0.0077 0.57716,-0.04907 0.57717,0.05038 0.57717,-0.03933 0.57717,0.02298 0.57717,-0.004 0.57716,0.08269 0.57717,-0.0459 0.57717,-0.05225 0.57717,0.132743 0.57716,0.01308 0.57717,0.01264 0.57717,0.01994 0.57717,0.02198 0.57716,0.159353 0.57717,-0.02553 0.57717,-0.0054 0.57717,-8.11e-4 0.57717,0.06264 0.57716,-0.0094 0.57717,0.01014 0.57717,-0.05797 0.57717,0.0043 0.57716,-0.003 0.57717,-0.02611 0.57717,0.0033 0.57717,0.03101 0.57717,0.07477 0.57716,0.0312 0.57717,0.0077 0.57717,-0.01158 0.57717,0.02587 0.57716,0.01592 0.57717,0.09776 0.57717,0.02338 0.57717,-0.02013 0.57717,0.0086 0.57716,-0.02276 0.57717,-0.159606 0.57717,-0.0524 0.57717,0.0145 0.57716,0.01661 0.57717,0.02262 0.57717,-6.58e-4 0.57717,-0.01444 0.57716,-0.08918 0.57717,0.01232 0.57717,0.01533 0.57717,0.0064 0.57717,-0.01669 0.57716,0.133838 0.57717,-0.02708 0.57717,0.01067 0.57717,-0.0063 0.57716,0.0064 0.57717,-0.01035 0.57717,0.006 0.57717,-0.02546 0.57717,-0.05192 0.57716,-0.171587 0.57717,0.02901 0.57717,-0.126372 0.57717,0.03883 0.57717,-0.0601 0.57716,-0.0372 0.57717,0.01402 0.57717,0.293583 0.57717,-0.0228 0.57716,-0.08342 0.57717,0.02802 0.57717,0.0122 0.57717,0.05925 0.57716,-0.0279 0.57717,0.02539 0.57717,0.01488 0.57717,-0.05699 0.57716,-0.02911 0.57717,-0.02521 0.57717,0.0067 0.57717,-0.01798 0.57717,0.0073 0.57716,0.0046 0.57717,0.02008 0.57717,-0.382715 0.57717,-0.0061 0.57716,0.03394 0.57717,-0.04023 0.57717,-0.07311 0.57717,0.06094 0.57717,-0.09582 v 2.495093 0 l -0.57717,0.224037 -0.57717,-0.06502 -0.57717,0.08241 -0.57717,0.04513 -0.57716,-0.03978 -0.57717,-7.47e-4 -0.57717,1.999703 -0.57717,-0.03948 -0.57716,-0.0031 -0.57717,0.02019 -0.57717,0.0074 -0.57717,-0.01511 -0.57717,-0.127586 -0.57716,0.05293 -0.57717,0.08479 -0.57717,-0.02346 -0.57717,-0.03662 -0.57716,0.03066 -0.57717,-0.05904 -0.57717,-0.02635 -0.57717,-0.01745 -0.57716,0.08525 -0.57717,0.01468 -0.57717,-0.283927 -0.57717,-0.02148 -0.57716,0.06718 -0.57717,0.06719 -0.57717,-0.03045 -0.57717,0.126511 -0.57717,-0.145294 -0.57716,0.279111 -0.57717,0.04973 -0.57717,0.02067 -0.57717,-0.0061 -0.57717,0.02361 -0.57716,-0.0072 -0.57717,0.06203 -0.57717,-0.06198 -0.57717,0.03427 -0.57716,-0.663439 -0.57717,-0.03171 -0.57717,-0.01209 -0.57717,-0.07276 -0.57717,-0.0039 -0.57716,0.01504 -0.57717,0.02631 -0.57717,0.0039 -0.57717,-0.09322 -0.57716,0.02683 -0.57717,-0.01728 -0.57717,0.09754 -0.57717,0.20516 -0.57716,0.03087 -0.57717,-0.0017 -0.57717,0.06256 -0.57717,-0.01067 -0.57717,-0.0998 -0.57716,-0.06124 -0.57717,-0.07231 -0.57717,0.04061 -0.57717,-0.02263 -0.57716,-0.03485 -0.57717,-0.06192 -0.57717,-0.03713 -0.57717,0.007 -0.57717,0.01557 -0.57716,0.04791 -0.57717,-0.03958 -0.57717,0.09885 -0.57717,-0.01767 -0.57716,-0.0024 -0.57717,-0.132163 -0.57717,0.0082 -0.57717,0.01698 -0.57717,0.0449 -0.57716,-0.370653 -0.57717,-0.06585 -0.57717,-0.02478 -0.57717,-0.02408 -0.57716,-0.05688 -0.57717,-0.186038 -0.57717,0.121728 -0.57717,0.0592 -0.57716,-0.163105 -0.57717,-0.0016 -0.57717,-0.04702 -0.57717,0.04287 -0.57717,-0.0799 -0.57716,0.06715 -0.57717,-0.0071 -0.57717,0.06457 -0.57717,-0.009 -0.57716,-0.0517 -0.57717,0.0543 -0.57717,0.0089 -0.57717,0.01859 -0.57717,-0.0048 -0.57716,1.945419 -0.57717,-0.01051 -0.57717,-0.21367 -0.57717,-0.117426 -0.57716,0.0021 -0.57717,-0.001 -0.57717,-0.06513 -0.57717,1.84618 -0.57716,0.04133 -0.57717,0.0068 -0.57717,-0.02293 -0.57717,-0.01267 -0.57717,-0.146411 -0.57716,0.102763 -0.57717,0.03091 -0.57717,0.0013 -0.57717,-0.105707 -0.57716,-0.02892 -0.57717,0.156462 -0.57717,0.05176 -0.57717,-0.249465 -0.57717,0.01509 -0.57716,-0.461309 -0.57717,0.244778 -0.57717,-0.06026 -0.57717,0.0641 -0.57716,0.04817 -0.57717,0.09154 -0.57717,-0.641506 -0.57717,0.158092 -0.57717,0.03742 -0.57716,-0.09034 -0.57717,-0.853346 -0.57717,-0.03261 -0.57717,-0.06764 -0.57716,0.05515 -0.57717,-0.07784 -0.57717,-0.01056 -0.57717,0.01352 -0.57716,-0.01135 -0.57717,0.02282 -0.57717,-0.05235 -0.57717,-0.130197 -0.57717,0.02841 -0.57716,0.141717 -0.57717,0.06302 -0.57717,-0.0298 -0.57717,-0.105456 -0.57716,0.04551 -0.57717,0.563341 -0.57717,0.01664 -0.57717,-0.05192 -0.57716,-0.03687 -0.57717,0.0068 -0.57717,0.06887 -0.57717,0.194909 -0.57717,0.0132 -0.57716,0.458052 -0.57717,-0.0393 -0.57717,0.04353 -0.57717,0.0453 -0.57717,0.22309 -0.57716,0.06241 -0.57717,0.04549 -0.57717,-0.0024 -0.57717,-0.0225 -0.57716,0.13349 -0.57717,0.04562 -0.57717,-0.03723 -0.57717,-0.05647 -0.57716,-0.221358 -0.57717,0.685689 -0.57717,0.02563 -0.57717,0.03037 -0.57717,-0.09973 -0.57716,0.07519 -0.57717,0.03806 -0.57717,0.05468 -0.57717,-0.0366 -0.57716,0.09116 -0.57717,-0.05314 -0.57717,0.118164 -0.57717,-0.09832 -0.57717,0.64903 -0.57716,0.02355 -0.57717,0.07516 -0.57717,0.142598 -0.57717,-0.06518 -0.57716,0.05214 -0.57717,-0.428035 -0.57717,0.2945 -0.57717,0.06553 -0.57717,-0.119212 -0.57716,-0.05992 -0.57717,-0.01944 -0.57717,-0.02734 -0.57717,-0.0748 -0.57716,-0.02943 -0.57717,-0.01432 -0.57717,-0.01699 -0.57717,-0.07663 -0.57716,0.03639 -0.57717,-0.09435 -0.57717,-0.149272 -0.57717,-0.530925 -0.57717,-0.0059 -0.57716,-0.04834 -0.57717,0.110443 -0.57717,-0.121684 -0.57717,-0.02502 -0.57716,0.05459 -0.57717,0.01114 -0.57717,0.06607 -0.57717,0.06235 -0.57717,-0.183298 -0.57716,-0.120453 -0.57717,0.120014 -0.57717,0.05179 -0.57717,-0.0029 -0.57716,0.01896 -0.57717,-0.04664 -0.57717,0.055 -0.57717,0.0192 -0.57717,0.03263 -0.57716,-0.06342 -0.57717,0.09826 -0.57717,-0.0074 -0.57717,0.597627 -0.57716,-0.140507 -0.57717,-0.04 -0.57717,-0.380155 -0.57717,0.01306 -0.57716,-0.02909 -0.57717,0.04496 -0.57717,-0.01839 -0.57717,-0.08308 -0.57717,0.164768 -0.57716,0.007 -0.57717,0.06135 -0.57717,-0.13387 -0.57717,-0.03204 -0.57716,0.136079 -0.57717,0.06284 -0.57717,-0.05861 -0.57717,0.113827 -0.57717,0.04709 -0.57716,0.794966 -0.57717,0.05262 -0.57717,-0.01423 -0.57717,-0.03341 -0.57716,0.02554 -0.57717,0.102176 -0.57717,0.01733 -0.57717,-0.200667 -0.57717,0.05381 -0.57716,0.002 -0.57717,0.02789 -0.57717,0.09027 -0.57717,-0.06851 -0.57716,0.0216 -0.57717,-1.029571 -0.57717,-0.01976 -0.57717,-0.128839 -0.57716,0.167117 -0.57717,0.171435 -0.57717,0.225109 -0.57717,-0.01544 -0.57717,0.04136 -0.57716,0.640815 -0.57717,0.08978 -0.57717,0.08753 -0.57717,0.164012 -0.57716,0.107763 -0.57717,0.05592 -0.57717,-0.04068 -0.57717,0.06638 -0.57717,-0.07555 -0.57716,0.03945 -0.57717,0.161761 -0.57717,-0.03437 -0.57717,2.922464 -0.57716,0.187589 -0.57717,-0.115928 -0.57717,-0.0425 -0.57717,2.068183 -0.57717,0.07974 -0.57716,0.101234 -0.57717,0.256506 -0.57717,0.0675 -0.57717,0.152497 -0.57716,0.342402 -0.57717,-0.08829 -0.57717,0.105741 -0.57717,0.936083 -0.57716,0.311003 -0.57717,0.112161 -0.57717,0.07922 -0.57717,0.08426 -0.57717,-0.03758 -0.57716,0.0979 -0.57717,-0.190004 -0.57717,0.155969 -0.57717,0.123537 -0.57716,-0.256555 -0.57717,0.08253 -0.57717,0.176388 -0.57717,-0.08604 -0.57717,0.119579 -0.57716,0.02993 -0.57717,-0.08436 -0.57717,-0.105695 -0.57717,-0.331136 -0.57716,0.187613 -0.57717,-0.02033 -0.57717,0.769415 -0.57717,0.19966 -0.57717,0.0993 -0.57716,-0.239036 -0.57717,0.09349 -0.57717,0.0333 -0.57717,-0.144315 -0.57716,-0.323051 -0.57717,0.32457 -0.57717,0.111894 -0.57717,0.120005 -0.57716,0.134235 -0.57717,-0.118697 -0.57717,0.04515 -0.57717,-0.02814 -0.57717,0.129648 -0.57716,0.116034 -0.57717,-0.04657 -0.57717,0.220008 -0.57717,-0.330155 -0.57716,-0.07838 -0.57717,0.247874 -0.57717,0.223087 -0.57717,-0.05039 -0.57717,0.08946 -0.57716,0.0098 -0.57717,0.06989 -0.57717,0.179654 -0.57717,0.275809 -0.57716,-0.357136 -0.57717,0.104156 -0.57717,0.317154 -0.57717,-0.256683 -0.57716,0.17175 -0.57717,0.512211 -0.57717,0.214504 -0.57717,0.14105 -0.57717,0.05651 -0.57716,0.208693 -0.57717,0.233195 -0.57717,0.231103 -0.57717,0.0747 -0.57716,4.211255 -0.57717,0.0939 -0.57717,0.132008 -0.57717,0.250046 -0.57717,0.175103 -0.57716,0.106039 -0.57717,0.125615 -0.57717,0.19634 -0.57717,-0.102992 -0.57716,0.129505 -0.57717,-0.167765 -0.57717,-0.04639 -0.57717,0.857438 -0.57717,0.08317 -0.57716,0.261633 -0.57717,0.10494 -0.57717,0.205387 -0.57717,0.310762 -0.57716,-0.187026 -0.57717,0.180151 -0.57717,0.07214 -0.57717,0.186182 -0.57716,0.292162 -0.57717,0.322028 -0.57717,0.232322 -0.57717,-0.05149 -0.57717,0.107276 -0.57716,0.909701 -0.57717,-0.322722 -0.57717,0.07518 -0.57717,0.213446 -0.57716,-0.06705 -0.57717,0.210232 -0.57717,-0.161344 -0.57717,0.269064 -0.57717,-0.107702 -0.57716,0.679169 -0.57717,0.282718 -0.57717,-0.265416 -0.57717,0.311048 -0.57716,0.18468 -0.57717,-0.05883 -0.57717,-0.0045 -0.57717,0.40193 -0.57717,0.254067 -0.57716,3.046278 -0.57717,0.237563 -0.57717,0.198341 -0.57717,-0.05451 -0.57716,0.284723 -0.57717,0.08492 -0.57717,0.551379 -0.57717,0.397403 -0.57716,0.01315 -0.57717,0.06911 -0.57717,0.194113 -0.57717,0.18337 -0.57717,0.191707 -0.57716,0.318847 -0.57717,0.07911 -0.57717,0.278896 -0.57717,4.508084 -0.57716,0.430871 -0.57717,0.192754 -0.57717,0.366485 -0.57717,0.0778 -0.57716,0.3082 -0.57717,0.19937 -0.57717,0.38919 -0.57717,-0.29411 -0.57717,0.3919 -0.57716,8.9695 -0.57717,0.49364 -0.57717,0.62345 -0.57717,-0.0596 -0.57717,0.44781 -0.57716,0.36831 -0.57717,0.14103 -0.57717,0.64693 -0.57717,0.38032 -0.57716,0.39294 -0.57717,0.21666 -0.57717,0.19954 -0.57717,0.0214 -0.57716,0.40057 -0.57717,0.33752 -0.57717,0.31851 -0.57717,0.4212 -0.57717,0.42803 -0.57716,0.47213 -0.57717,0.11797 -0.57717,0.34173 -0.57717,0.26488 -0.57716,0.10842 -0.57717,0.15165 -0.57717,0.4086 -0.57717,0.68385 -0.57717,0.29055 -0.57716,0.35975 -0.57717,0.50936 -0.57717,-0.13721 -0.57717,0.14369 -0.57716,0.17429 -0.57717,0.14811 -0.57717,-0.18123 -0.57717,0.24158 -0.57717,0.84057 -0.57716,0.46877 -0.57717,0.0185 -0.57717,0.30732 -0.57717,0.29882 -0.57716,0.002 -0.57717,-0.14962 -0.57717,0.29166 -0.57717,-0.0526 -0.57716,0.32531 -0.57717,0.30556 -0.57717,0.17084 -0.57717,0.24082 -0.57717,0.49106 -0.57716,0.51024 -0.57717,0.26185 -0.57717,0.22989 -0.57717,0.52036 -0.57716,0.4087 -0.57717,0.39845 -0.57717,0.33992 -0.57717,0.58381 -0.57717,0.222 -0.57716,0.55913 -0.57717,0.37296 -0.57717,0.65542 -0.57717,0.3456 -0.57716,0.80071 -0.57717,0.046 -0.57717,0.7262 -0.57717,0.42004 -0.57717,0.56976 -0.57716,0.59253 -0.57717,0.33476 -0.57717,1.13151 -0.57717,0.49666 -0.57716,-0.19944 -0.57717,0.55105 -0.57717,0.19355 -0.57717,0.10822 -0.57716,0.49988 -0.57717,0.11099 -0.57717,0.21614 -0.57717,1.45649 -0.57717,0.39928 -0.57716,0.45966 -0.57717,0.10859 -0.57717,0.57705 -0.57717,0.44596 -0.57716,0.0275 -0.57717,0.34409 -0.57717,0.44272 -0.57717,0.17982 -0.57716,1.28558 -0.57717,0.50157 -0.57717,0.67278 -0.57717,0.13147 -0.57717,0.0567 -0.57716,0.77542 -0.57717,1.67691 -0.57717,-0.36924 -0.57717,0.3714 -0.57717,0.42662 -0.57716,0.50545 -0.57717,3.80311 -0.57717,6.3428 -0.57717,0.42387 -0.57716,0.49812 -0.57717,0.57325 -0.57717,0.73226 -0.57717,1.14467 -0.57716,0.78881 -0.57717,4.53921 -0.57717,8.6212 -0.57717,0.38698 -0.57717,0.33344 -0.57716,0.72515 -0.57717,0.33496 -0.57717,0.69626 -0.57717,0.50023 -0.57716,0.0315 -0.57717,0.32345 -0.57717,0.15548 -0.57717,0.21242 -0.57717,0.65426 -0.57716,0.15143 -0.57717,0.48166 -0.57717,0.39086 -0.57717,0.33363 -0.57716,0.19651 -0.57717,0.24807 -0.57717,0.48011 -0.57717,0.61121 -0.57717,0.6196 -0.57716,1.69734 -0.57717,0.8198 -0.57717,0.70433 -0.57717,3.02674 -0.57716,0.42368 -0.57717,0.54277 -0.57717,2.53072 -0.57717,0.30599 -0.57716,0.45113 -0.57717,0.13192 -0.57717,0.4252 -0.57717,0.0597 -0.57717,0.42473 -0.57716,0.16465 -0.57717,0.0436 -0.57717,0.18206 -0.57717,0.85302 -0.57716,0.64401 -0.57717,0.63265 -0.57717,0.59625 -0.57717,0.60452 -0.57716,0.47775 -0.57717,0.25345 -0.57717,0.67523 -0.57717,0.17372 -0.57717,1.00561 -0.57716,0.37413 -0.57717,0.61217 -0.57717,3.93769 -0.57717,0.27201 -0.57717,0.40695 -0.57716,0.61622 -0.57717,0.11101 -0.57717,0.26173 -0.57716,0.77136 -0.57717,0.50339 -0.57717,0.58678 -0.57717,0.61058 -0.57717,0.34802 -0.57716,4.38245 -0.57717,0.67214 -0.57717,0.3816 -0.57717,0.52159 -0.57717,0.22058 -0.57716,-0.13362 -0.57717,0.6973 -0.57717,0.28997 -0.57717,-0.39074 -0.57716,0.44287 -0.57717,0.61896 -0.57717,0.56709 -0.57717,0.15386 -0.57717,0.33356 -0.57716,0.46655 -0.57717,4.72876 -0.57717,0.88728 -0.57717,0.76179 -0.57716,0.78003 -0.57717,0.17849 -0.57717,0.33643 -0.57717,0.83403 -0.57716,0.55916 -0.57717,0.3268 -0.57717,0.33815 -0.57717,0.12297 -0.57717,-0.59655 -0.57716,0.881 -0.57717,0.68868 -0.57717,0.45837 -0.57717,0.51629 -0.57716,0.8827 -0.57717,0.56615 -0.57717,0.50204 -0.57717,1.21406 -0.57717,0.61041 -0.57716,-0.002 -0.57717,0.56601 -0.57717,-0.40336 -0.57717,0.96707 -0.57716,0.6957 -0.57717,1.7439 -0.57717,1.26841 -0.57717,0.60771 -0.57716,0.63963 -0.57717,0.50876 -0.57717,0.2594 -0.57717,2.10267 -0.57717,0.6244 -0.57716,0.008 -0.57717,0.81168 -0.57717,3.33601 -0.57717,4.69411 -0.57716,0.52654 -0.57717,0.67528 -0.57717,0.32184 -0.57717,0.13982 -0.57716,0.47572 -0.57717,-0.52411 -0.57717,0.50481 -0.57717,0.69024 -0.57717,2.34375 -0.57716,-0.0768 -0.57717,5.51771 -0.57717,0.48804 -0.57717,0.47842 -0.57717,1.06954 -0.57716,0.84122 -0.57717,4.02196 -0.57717,0.0985 -0.57717,1.95666 -0.57716,0.29701 -0.57717,2.68012 -0.57717,4.84543 -0.57717,0.52259 -0.57716,0.4522 -0.57717,0.58719 -0.57717,0.14424 -0.57717,0.42073 -0.57717,0.75781 -0.57716,0.59409 -0.57717,0.45108 -0.57717,0.3598 -0.57717,0.54655 -0.57716,0.3331 -0.57717,0.37681 -0.57717,0.53963 -0.57717,0.20017 -0.57716,0.21904 -0.57717,0.21777 -0.57717,0.12756 -0.57717,0.55712 -0.57717,0.58334 -0.57716,1.48252 -0.57717,0.0484 -0.57717,2.79737 -0.57717,0.36255 -0.57717,0.53589 -0.57716,-0.036 -0.57717,-0.18661 -0.57717,0.28274 -0.57717,0.19166 -0.57716,0.62056 -0.57717,0.50456 -0.57717,0.19201 -0.57717,0.4938 -0.57716,0.41575 -0.57717,1.06628 -0.57717,0.59093 -0.57717,-0.24065 -0.57717,3.50503 -0.57716,0.30675 -0.57717,-1.21981 -0.57717,2.25902 -0.57717,-0.37873 -0.57716,-0.85921 -0.57717,0.93453 -0.57717,0.7162 -0.57717,1.5968 -0.57717,-2.12956 -0.57716,0.2427 -0.57717,1.45173 -0.57717,6.30059 -0.57717,-0.24257 -0.57716,1.00914 -0.57717,0.71502 -0.57717,0.0624 -0.57717,0.28993 -0.57717,-0.11144 -0.57716,3.68037 -0.57717,0.28622 -0.57717,0.242 -0.57717,0.29335 -0.57716,0.32463 -0.57717,0.0121 -0.57717,0.38408 -0.57717,0.0175 -0.57716,0.22545 -0.57717,0.28435 -0.57717,0.29925 -0.57717,0.37278 -0.57717,0.12716 -0.57716,0.23111 -0.57717,0.33952 -0.57717,0.44358 -0.57717,0.44911 -0.57716,-0.18218 -0.57717,0.59643 -0.57717,0.40434 -0.57717,0.36699 -0.57717,0.25397 -0.57716,0.38892 -0.57717,0.17715 -0.57717,0.27103 -0.57717,0.2134 -0.57716,0.32824 -0.57717,0.19483 -0.57717,0.167 -0.57717,0.27731 -0.57717,0.24986 -0.57716,0.22181 -0.57717,0.36142 -0.57717,0.35322 -0.57717,0.0142 -0.57716,0.34671 -0.57717,0.33933 -0.57717,0.30256 -0.57717,0.40546 -0.57717,0.37705 -0.57716,0.18428 -0.57717,0.26091 -0.57717,0.31659 -0.57717,0.16385 -0.57716,0.3115 -0.57717,0.27766 -0.57717,0.22856 -0.57717,0.38314 -0.57716,0.29726 -0.57717,0.21024 -0.57717,0.31804 -0.57717,0.22117 -0.57716,0.21478 -0.57717,0.18944 -0.57717,0.16779 -0.57717,0.20864 -0.57717,0.26447 -0.57716,0.33255 -0.57717,0.32909 -0.57717,0.19811 -0.57717,0.26992 -0.57717,0.0721 -0.57716,0.2879 -0.57717,0.19733 -0.57717,0.38291 -0.57717,0.26167 -0.57716,-0.86528 -0.57717,0.16118 -0.57717,0.35013 -0.57717,0.22008 -0.57717,-0.41125 -0.57716,0.19149 -0.57717,0.41053 -0.57717,0.3251 -0.57717,0.45996 -0.57716,0.3551 -0.57717,0.19168 -0.57717,0.59883 z"
           style="fill:#17becf;fill-opacity:0.1;fill-rule:nonzero;stroke:none"
           id="path22" />
      </g>
    </g>
    <g
       id="g24">
      <g
         id="g26"
         clip-path="url(#clipPath30)">
        <path
           d="m 203.05785,333.67832 v -1.99368 l 0.57717,-2.18351 0.57717,4.08008 0.57716,0.0684 0.57717,-0.0427 0.57717,-0.30191 0.57717,-0.25831 0.57716,-0.72338 0.57717,0.21044 0.57717,-0.34312 0.57717,-0.23421 0.57717,-0.10228 0.57716,-0.37107 0.57717,-0.33329 0.57717,-0.34626 0.57717,-0.31713 0.57716,-0.39386 0.57717,-0.30117 0.57717,-0.38061 0.57717,-0.3116 0.57717,-0.20882 0.57716,-0.34398 0.57717,-0.14446 0.57717,-0.36751 0.57717,-0.25514 0.57717,-0.16583 0.57716,-0.11944 0.57717,-0.2606 0.57717,-0.27766 0.57717,-0.25035 0.57716,-0.24126 0.57717,-0.34895 0.57717,-0.34803 0.57717,-0.24627 0.57716,-0.25806 0.57717,-0.19419 0.57717,-0.28574 0.57717,-0.22216 0.57716,-0.2185 0.57717,-0.0986 0.57717,-0.17044 0.57717,-0.34339 0.57717,-0.28236 0.57716,-0.61515 0.57717,-0.1999 0.57717,-0.20971 0.57717,-0.23707 0.57716,-0.13953 0.57717,-0.40427 0.57717,-0.81043 0.57717,-0.79034 0.57717,0.79254 0.57716,-0.27856 0.57717,-0.20934 0.57717,-0.29547 0.57717,-0.42714 0.57716,0.15966 0.57717,-0.33165 0.57717,-0.29994 0.57717,-0.3147 0.57717,-0.27998 0.57716,-0.32564 0.57717,-0.22449 0.57717,-0.32953 0.57717,-0.15797 0.57716,-0.33671 0.57717,-0.46805 0.57717,-0.0165 0.57717,-0.27869 0.57717,-0.29912 0.57716,-0.40088 0.57717,-0.31564 0.57717,-0.0905 0.57717,-0.32823 0.57716,-0.20827 0.57717,-0.19311 0.57717,-0.26203 0.57717,-0.21499 0.57716,-0.33222 0.57717,-0.31801 0.57717,-0.27276 0.57717,-0.21931 0.57717,-0.1807 0.57716,-0.20173 0.57717,-0.37446 0.57717,-0.21027 0.57717,-0.21677 0.57716,-0.31801 0.57717,-0.42011 0.57717,-0.42214 0.57717,-0.44814 0.57717,-0.70807 0.57716,-0.63509 0.57717,-0.18431 0.57717,-0.43787 0.57717,-0.28136 0.57716,-0.62968 0.57717,-0.70472 0.57717,-0.9405 0.57717,-0.4063 0.57717,-0.69043 0.57716,-0.36341 0.57717,-0.50214 0.57717,-0.29573 0.57717,-0.2746 0.57716,-0.36263 0.57717,-0.15014 0.57717,-0.19883 0.57717,-0.4716 0.57716,-0.20266 0.57717,-0.29298 0.57717,-0.37714 0.57717,-0.3977 0.57717,-0.14142 0.57716,0.0978 0.57717,-0.0119 0.57717,-0.30413 0.57717,-10.25253 0.57717,-4.68217 0.57716,-0.37671 0.57717,-0.0652 0.57717,-0.23321 0.57717,-0.1065 0.57716,-0.1887 0.57717,-0.34582 0.57717,-0.19551 0.57717,-0.12595 0.57716,-0.24934 0.57717,-0.19684 0.57717,-0.20137 0.57717,-0.21856 0.57717,-0.15862 0.57716,-0.17563 0.57717,-0.37588 0.57717,-0.15077 0.57717,-0.17393 0.57716,-0.17476 0.57717,-0.24478 0.57717,-0.21391 0.57717,-0.15266 0.57716,-0.25119 0.57717,-0.28849 0.57717,-0.24169 0.57717,-0.35768 0.57717,-0.21421 0.57716,-5.29827 0.57717,-0.18049 0.57717,-0.35597 0.57717,-0.26724 0.57717,-0.14066 0.57716,-0.34943 0.57717,-0.44023 0.57717,-0.0835 0.57717,-0.20105 0.57716,-0.33929 0.57717,-0.3901 0.57717,-0.26991 0.57717,-0.10497 0.57716,-0.31398 0.57717,-0.29735 0.57717,-0.17278 0.57717,-0.33051 0.57717,-0.40572 0.57716,-0.41932 0.57717,-0.10692 0.57717,-0.29445 0.57717,-0.28484 0.57716,-0.38731 0.57717,-0.30492 0.57717,-0.0876 0.57717,-0.16405 0.57716,-0.25284 0.57717,-0.3003 0.57717,-0.34549 0.57717,-0.24038 0.57717,-0.24333 0.57716,-0.32574 0.57717,-0.36408 0.57717,-0.30248 0.57717,-0.24376 0.57716,-0.31559 0.57717,-0.21226 0.57717,-0.36384 0.57717,-0.24344 0.57717,-0.10872 0.57716,-0.2724 0.57717,-0.0612 0.57717,-0.26885 0.57717,0.029 0.57716,-0.15623 0.57717,-0.0777 0.57717,-0.38386 0.57717,-0.86818 0.57716,-0.35272 0.57717,-0.11243 0.57717,-0.17733 0.57717,-6.88387 0.57717,-0.37546 0.57716,-0.31816 0.57717,-0.40077 0.57717,-0.48209 0.57717,-0.216 0.57716,-0.56551 0.57717,-1.56839 0.57717,-0.41325 0.57717,-0.43079 0.57717,-0.13314 0.57716,-0.64352 0.57717,-5.86057 0.57717,0.0272 0.57717,-0.35516 0.57717,-0.4883 0.57716,-0.59346 0.57717,-0.69747 0.57717,-0.39133 0.57716,-0.50234 0.57717,-0.0553 0.57717,-0.62161 0.57717,-0.59447 0.57717,-0.61359 0.57716,-0.32183 0.57717,-0.66901 0.57717,-0.3728 0.57717,-0.68649 0.57717,-0.0299 0.57716,-0.4109 0.57717,0.14387 0.57717,-5.77224 0.57717,-0.31085 0.57716,-0.29719 0.57717,-0.1404 0.57717,-0.77478 0.57717,-0.70832 0.57716,-0.33398 0.57717,-0.0117 0.57717,-0.56277 0.57717,-0.19344 0.57717,-7.11891 0.57716,-0.36585 0.57717,-0.4298 0.57717,-0.19509 0.57717,-0.47416 0.57716,-0.54871 0.57717,-0.40803 0.57717,-0.35636 0.57717,-0.4376 0.57716,-0.46134 0.57717,-0.42834 0.57717,-0.47589 0.57717,-0.18657 0.57717,-0.44249 0.57716,-18.46358 0.57717,-0.52478 0.57717,-0.58668 0.57717,-0.69618 0.57716,0.0744 0.57717,-0.53724 0.57717,-0.42505 0.57717,-0.23224 0.57717,-0.72345 0.57716,-16.23112 0.57717,-0.36469 0.57717,-0.24332 0.57717,-0.26159 0.57716,-0.42569 0.57717,-0.40509 0.57717,-0.4276 0.57717,-0.43991 0.57717,-0.55202 0.57716,-0.87247 0.57717,-0.215 0.57717,-0.44157 0.57717,-0.47937 0.57716,-0.23297 0.57717,-0.33547 0.57717,-0.57276 0.57717,-4.76222 0.57716,-2.77222 0.57717,-0.40873 0.57717,-0.35685 0.57717,-0.0781 0.57717,-13.95036 0.57716,-0.46906 0.57717,-0.3935 0.57717,-0.61414 0.57717,-0.1408 0.57717,-0.64447 0.57716,-0.21712 0.57717,0.40989 0.57717,-0.56618 0.57717,-0.34241 0.57716,-0.54775 0.57717,-0.96585 0.57717,-0.39837 0.57717,-0.56642 0.57716,-0.59185 0.57717,-0.23954 0.57717,-0.46437 0.57717,-0.23908 0.57717,-0.093 0.57716,-0.28871 0.57717,-0.10194 0.57717,-0.50164 0.57717,-0.33105 0.57716,-0.64362 0.57717,0.0262 0.57717,-0.22771 0.57717,-0.28823 0.57716,-4.00239 0.57717,-0.29221 0.57717,-0.4045 0.57717,-0.37655 0.57717,-0.31825 0.57716,-0.66753 0.57717,-0.44153 0.57717,-0.43504 0.57717,-0.5528 0.57716,-0.3135 0.57717,-1.93085 0.57717,-0.53586 0.57717,-1.42396 0.57717,-7.63571 0.57716,-0.31813 0.57717,-0.40772 0.57717,-0.12078 0.57717,-0.38299 0.57716,-0.0746 0.57717,-0.4512 0.57717,4e-5 0.57717,-1.75148 0.57717,-0.24688 0.57716,-0.17025 0.57717,-0.44042 0.57717,-0.37755 0.57717,-0.27676 0.57716,-0.3805 0.57717,-0.23909 0.57717,0.56371 0.57717,0.0471 0.57716,-0.22468 0.57717,-0.57844 0.57717,-6.65687 0.57717,-0.29627 0.57717,-0.37424 0.57716,0.0123 0.57717,-0.37934 0.57717,-0.46536 0.57717,-0.52139 0.57716,-0.60937 0.57717,-0.43581 0.57717,-0.59911 0.57717,-0.61114 0.57717,-0.47683 0.57716,-0.52224 0.57717,-0.55117 0.57717,0.19493 0.57717,-0.40112 0.57716,-0.609775 0.57717,-0.410024 0.57717,-0.403057 0.57717,-0.62863 0.57717,-0.509879 0.57716,-0.449738 0.57717,-0.207988 0.57717,-0.339609 0.57717,-0.465094 0.57716,0.02036 0.57717,-0.135621 0.57717,-0.247403 0.57717,-0.589458 0.57716,-0.534554 0.57717,-0.643467 0.57717,-0.08944 0.57717,-0.297378 0.57717,-0.11756 0.57716,-0.719637 0.57717,-0.44543 0.57717,-0.551055 0.57717,-1.00492 0.57717,-0.502956 0.57716,-0.43509 0.57717,-0.27614 0.57717,-0.435147 0.57717,-0.0395 0.57716,-0.310657 0.57717,-0.912343 0.57717,-0.388023 0.57717,-0.239684 0.57716,-0.153197 0.57717,-0.308965 0.57717,-0.800538 0.57717,-0.05111 0.57717,0.232511 0.57716,-0.28493 0.57717,-0.380959 0.57717,-0.43442 0.57717,-0.128245 0.57716,-0.276422 0.57717,-0.337892 0.57717,-0.19202 0.57717,-0.4333 0.57716,-0.290327 0.57717,-0.371639 0.57717,0.119841 0.57717,-0.285706 0.57717,-0.390432 0.57716,-0.367773 0.57717,-0.132921 0.57717,-0.124194 0.57717,-0.08568 0.57716,-0.300026 0.57717,-0.272821 0.57717,-0.31633 0.57717,-0.27582 0.57717,-0.275409 0.57716,-0.218632 0.57717,-0.16527 0.57717,-0.127316 0.57717,0.394972 0.57716,-0.251174 0.57717,-0.270822 0.57717,-0.342491 0.57717,-0.09581 0.57717,-0.332951 0.57716,-0.03474 0.57717,-0.304839 0.57717,-0.270275 0.57717,-0.09506 0.57716,-0.332917 0.57717,-0.06165 0.57717,-0.122035 0.57717,-0.249918 0.57716,-0.09715 0.57717,-0.238927 0.57717,-0.0035 0.57717,-1.076581 0.57717,0.169156 0.57716,0.174421 0.57717,-0.163135 0.57717,-0.144518 0.57717,-0.07579 0.57716,-0.187462 0.57717,-0.013 0.57717,-0.06738 0.57717,-0.065 0.57717,-0.222866 0.57716,-0.203604 0.57717,-0.142008 0.57717,-0.15611 0.57717,0.370901 0.57716,-0.131955 0.57717,-0.225321 0.57717,-0.07835 0.57717,-0.09631 0.57717,-0.155117 0.57716,-0.129445 0.57717,-0.200875 0.57717,-0.04951 0.57717,-0.148842 0.57716,-0.07603 0.57717,-0.318228 0.57717,-0.08084 0.57717,-0.126375 0.57716,-0.15771 0.57717,-0.227704 0.57717,-0.134814 0.57717,-0.06289 0.57717,-0.04544 0.57716,-0.239086 0.57717,-0.149087 0.57717,-0.103207 0.57717,-0.0948 0.57716,-0.252288 0.57717,-0.06692 0.57717,-0.229748 0.57717,-0.21454 0.57717,-0.185502 0.57716,0.0081 0.57717,-0.140179 0.57717,-0.0049 0.57717,-0.09417 0.57716,-0.179432 0.57717,0.312566 0.57717,-0.109438 0.57717,-0.385796 0.57716,-0.109526 0.57717,-0.06154 0.57717,0.03102 0.57717,-0.04164 0.57717,-0.109821 0.57716,-0.05743 0.57717,0.01487 0.57717,0.02858 0.57717,0.06578 0.57716,-0.09877 0.57717,0.03046 0.57717,-0.148625 0.57717,-0.109096 0.57717,-0.107715 0.57716,-0.05186 0.57717,-0.03844 0.57717,-0.2312 0.57717,-0.05644 0.57716,-0.05317 0.57717,-0.02479 0.57717,-0.16704 0.57717,-0.128845 0.57717,-0.138362 0.57716,0.02495 0.57717,0.01793 0.57717,-0.06869 0.57717,0.521632 0.57716,-0.03851 0.57717,0.201252 0.57717,0.01019 0.57717,-0.182576 0.57716,-0.05286 0.57717,-0.07941 0.57717,0.01694 0.57717,0.09337 0.57717,-0.115303 0.57716,-0.06237 0.57717,-0.04582 0.57717,0.137232 0.57717,-0.169297 0.57716,-0.06669 0.57717,-0.159092 0.57717,0.02293 0.57717,-0.101693 0.57717,-0.05715 0.57716,0.136104 0.57717,0.04832 0.57717,-0.04671 0.57717,-0.05937 0.57716,-0.07418 0.57717,-0.02354 0.57717,-0.0302 0.57717,-0.0071 0.57717,-0.0983 0.57716,-0.143441 0.57717,-0.03681 0.57717,-0.09208 0.57717,-0.105899 0.57716,-0.248594 0.57717,0.311252 0.57717,-0.129126 0.57717,-0.06358 0.57716,-0.10342 0.57717,0.0221 0.57717,-0.06147 0.57717,-0.09409 0.57717,-0.04774 0.57716,0.03993 0.57717,0.01074 0.57717,0.04109 0.57717,-0.02201 0.57716,0.01105 0.57717,-0.166403 0.57717,-0.913957 0.57717,-0.110204 0.57717,-0.133731 0.57716,-0.05352 0.57717,0.03301 0.57717,-0.07263 0.57717,-0.03889 0.57716,-0.0084 0.57717,0.120261 0.57717,-1.254035 0.57717,-0.07716 0.57717,-0.0971 0.57716,-1.035411 0.57717,-0.0201 0.57717,0.01127 0.57717,-0.0071 0.57716,0.0025 0.57717,0.0083 0.57717,-0.04921 0.57717,-0.451262 0.57716,-0.06108 0.57717,-0.01647 0.57717,0.07709 0.57717,0.03747 0.57717,-0.08634 0.57716,-0.0285 0.57717,0.08188 0.57717,-0.139019 0.57717,-0.004 0.57716,-0.08802 0.57717,-0.03354 0.57717,0.0044 0.57717,0.03851 0.57717,-0.06869 0.57716,-0.01723 0.57717,0.01196 0.57717,-0.0488 0.57717,-0.02542 0.57716,-0.03807 0.57717,0.04273 0.57717,-0.06573 0.57717,-0.06697 0.57717,-0.883236 0.57716,0.500112 0.57717,0.0765 0.57717,-1.73e-4 0.57717,0.03407 0.57716,-0.0083 0.57717,0.04351 0.57717,0.07451 0.57717,-0.03984 0.57716,0.03061 0.57717,-0.02953 0.57717,0.0489 0.57717,-0.04228 0.57717,-0.02363 0.57716,0.177896 0.57717,-0.09261 0.57717,0.06383 0.57717,0.02919 0.57716,0.0089 0.57717,-0.07573 0.57717,-0.08492 0.57717,-0.0079 0.57717,-0.02968 0.57716,-0.02284 0.57717,0.07305 0.57717,0.116493 0.57717,-0.07858 0.57716,-0.0381 0.57717,0.10116 0.57717,0.0074 0.57717,-0.01107 0.57717,-0.0059 0.57716,-0.03252 0.57717,0.02076 0.57717,0.04773 0.57717,-0.02737 0.57716,-0.02081 0.57717,-0.0083 0.57717,-0.01852 0.57717,0.06456 0.57716,0.01246 0.57717,-0.09332 0.57717,-0.09893 0.57717,-0.0073 0.57717,-0.03437 0.57716,0.05946 0.57717,-0.01583 0.57717,0.01346 0.57717,0.04133 0.57717,0.02086 0.57716,0.03699 0.57717,-0.04945 0.57717,-0.0035 0.57717,0.725831 0.57716,-0.162609 0.57717,0.01448 0.57717,-0.163522 0.57717,-0.01489 0.57716,-0.09676 0.57717,-0.06436 0.57717,0.07522 0.57717,0.304466 0.57717,-0.02879 0.57716,0.02182 0.57717,0.02331 0.57717,-0.101824 0.57717,-0.08524 0.57716,-0.05413 0.57717,-0.02756 0.57717,-0.0065 0.57717,-0.0086 0.57716,0.01158 0.57717,-0.06023 0.57717,-0.120366 0.57717,0.07517 0.57717,-0.0714 0.57716,0.0074 0.57717,-0.0092 0.57717,-0.02943 0.57717,-0.06694 0.57716,-0.03152 0.57717,1.63e-4 0.57717,-0.111573 0.57717,0.107075 0.57717,-0.179597 0.57716,-0.04494 0.57717,0.08557 0.57717,0.06643 0.57717,-0.03503 0.57716,0.09641 0.57717,-0.479755 0.57717,0.01352 0.57717,0.01312 0.57717,-0.03487 0.57716,0.0034 0.57717,-0.09755 0.57717,-0.09573 0.57717,0.155204 0.57716,0.04499 0.57717,-0.05173 0.57717,-0.05488 0.57717,0.106925 0.57716,0.08964 0.57717,0.0097 0.57717,1.89e-4 0.57717,0.04724 0.57717,-0.05104 0.57716,-0.08565 0.57717,-0.08236 0.57717,0.03575 0.57717,-0.01437 0.57716,-0.02633 0.57717,-0.01436 0.57717,0.02353 0.57717,0.01657 0.57717,-0.0018 0.57716,-0.0414 0.57717,0.01292 0.57717,-0.0833 0.57717,-0.0408 0.57716,0.06467 0.57717,0.04707 0.57717,-0.04541 0.57717,-0.07244 0.57716,0.06216 0.57717,0.01439 0.57717,-0.01121 0.57717,0.06339 0.57717,-0.0055 0.57716,0.03962 0.57717,0.01911 0.57717,0.0275 0.57717,-0.02384 0.57716,0.01374 0.57717,0.03284 0.57717,-0.02577 0.57717,0.09243 0.57717,0.01032 0.57716,-0.0154 0.57717,-0.0046 0.57717,-0.09071 0.57717,-0.03985 0.57716,-0.06189 0.57717,0.01847 0.57717,0.04038 0.57717,0.120107 0.57717,0.01273 0.57716,0.02321 0.57717,-0.009 0.57717,-0.08022 0.57717,-0.0076 0.57716,0.01126 0.57717,0.09764 0.57717,0.0707 0.57717,0.0022 0.57716,0.0086 0.57717,-0.01177 0.57717,-0.04653 0.57717,-0.0096 0.57717,0.07795 0.57716,-0.0066 0.57717,0.023 0.57717,0.03307 0.57717,-0.08265 0.57716,-0.04693 0.57717,-0.04182 0.57717,-0.02369 0.57717,0.04049 0.57717,-0.419547 0.57716,-0.01418 0.57717,-0.02476 0.57717,0.331013 0.57717,-0.41268 0.57717,0.01445 0.57716,-0.01814 0.57717,-0.105048 0.57717,0.02839 0.57717,-0.0381 0.57716,0.03101 0.57717,-0.02632 0.57717,0.0058 0.57717,0.02174 0.57716,0.01893 0.57717,0.484456 0.57717,-0.05104 0.57717,-0.01321 0.57716,-0.09593 0.57717,0.147781 0.57717,-0.01101 0.57717,0.01397 0.57717,0.007 0.57716,0.01166 0.57717,-0.01097 0.57717,-0.06559 0.57717,-0.01214 0.57716,0.01205 0.57717,0.03548 0.57717,-0.0049 0.57717,0.02476 0.57717,0.08037 v 5.426719 0 l -0.57717,-0.187265 -0.57717,-0.03847 -0.57717,-0.03183 -0.57717,-0.07176 -0.57716,-0.06108 -0.57717,0.02564 -0.57717,0.130526 -0.57717,0.03665 -0.57716,-0.0057 -0.57717,-0.04066 -0.57717,-0.0467 -0.57717,0.06337 -0.57717,-0.231834 -0.57716,0.197599 -0.57717,0.0022 -0.57717,0.09011 -0.57717,-0.826207 -0.57716,-0.04601 -0.57717,-0.05875 -0.57717,0.02191 -0.57717,0.03552 -0.57716,-0.03627 -0.57717,0.05136 -0.57717,-0.03008 -0.57717,0.173414 -0.57716,0.0217 -0.57717,-0.02531 -0.57717,0.358523 -0.57717,-0.230695 -0.57717,0.0295 -0.57716,0.04377 -0.57717,0.393301 -0.57717,-0.06243 -0.57717,0.03428 -0.57717,0.07215 -0.57716,0.09639 -0.57717,0.209568 -0.57717,-0.04636 -0.57717,-0.02467 -0.57716,-0.0097 -0.57717,-0.158853 -0.57717,0.0088 -0.57717,0.134764 -0.57717,0.02755 -0.57716,-0.01871 -0.57717,-0.0066 -0.57717,-0.113472 -0.57717,-0.12748 -0.57716,-0.0044 -0.57717,0.0094 -0.57717,0.12854 -0.57717,-0.0057 -0.57716,-0.07212 -0.57717,-0.03037 -0.57717,-0.189856 -0.57717,-0.08229 -0.57717,-0.03211 -0.57716,0.08196 -0.57717,0.124205 -0.57717,0.17248 -0.57717,-0.04924 -0.57716,0.01464 -0.57717,0.03104 -0.57717,-0.132192 -0.57717,0.163269 -0.57717,-0.05049 -0.57716,-0.04897 -0.57717,0.03617 -0.57717,-0.02267 -0.57717,-0.03115 -0.57716,-0.04175 -0.57717,0.02938 -0.57717,-0.10177 -0.57717,0.03503 -0.57717,-0.05288 -0.57716,-0.03985 -0.57717,0.145564 -0.57717,0.06231 -0.57717,-0.04297 -0.57716,-0.07935 -0.57717,0.08307 -0.57717,0.137364 -0.57717,-0.08968 -0.57716,0.07252 -0.57717,0.02234 -0.57717,-0.05374 -0.57717,0.01739 -0.57717,-0.0164 -0.57716,0.03983 -0.57717,0.05916 -0.57717,-0.05121 -0.57717,0.06909 -0.57716,0.128461 -0.57717,0.07621 -0.57717,-0.05878 -0.57717,0.02131 -0.57717,-0.007 -0.57716,-0.09979 -0.57717,-0.114389 -0.57717,0.105037 -0.57717,0.05778 -0.57716,-0.06782 -0.57717,-0.2288 -0.57717,0.11851 -0.57717,0.205468 -0.57716,0.0073 -0.57717,0.08259 -0.57717,-0.01262 -0.57717,0.120597 -0.57717,0.382535 -0.57716,-0.124046 -0.57717,0.02846 -0.57717,-0.236115 -0.57717,-0.107692 -0.57716,0.04138 -0.57717,0.306668 -0.57717,-0.133211 -0.57717,0.229023 -0.57717,0.0097 -0.57716,0.07973 -0.57717,0.0592 -0.57717,0.03483 -0.57717,-0.0061 -0.57716,-0.0152 -0.57717,0.09336 -0.57717,-0.05536 -0.57717,0.173045 -0.57717,0.116321 -0.57716,0.0055 -0.57717,0.0064 -0.57717,0.0097 -0.57717,0.0441 -0.57716,0.05424 -0.57717,0.04743 -0.57717,0.09587 -0.57717,-0.01954 -0.57716,-0.0044 -0.57717,0.01987 -0.57717,-0.428552 -0.57717,-0.135937 -0.57717,0.12569 -0.57716,0.106499 -0.57717,0.04047 -0.57717,0.09945 -0.57717,-0.02417 -0.57716,0.0751 -0.57717,-0.723931 -0.57717,0.03456 -0.57717,0.05731 -0.57716,-0.0451 -0.57717,8e-5 -0.57717,-0.01683 -0.57717,0.0011 -0.57717,0.01142 -0.57716,-0.06607 -0.57717,0.13195 -0.57717,0.0336 -0.57717,0.129057 -0.57717,0.243149 -0.57716,0.05737 -0.57717,-0.062 -0.57717,0.05997 -0.57717,-0.04427 -0.57716,0.0364 -0.57717,0.0631 -0.57717,-0.181044 -0.57717,-0.01691 -0.57716,0.03072 -0.57717,0.0055 -0.57717,0.0056 -0.57717,-0.0087 -0.57717,-0.06815 -0.57716,0.01849 -0.57717,0.102912 -0.57717,-0.211876 -0.57717,-0.05847 -0.57716,0.160151 -0.57717,0.05403 -0.57717,0.01653 -0.57717,0.193231 -0.57717,0.160186 -0.57716,-0.0834 -0.57717,-0.03006 -0.57717,-0.111545 -0.57717,0.07979 -0.57716,-0.256955 -0.57717,0.0062 -0.57717,0.104059 -0.57717,-0.05138 -0.57717,0.05002 -0.57716,0.04458 -0.57717,0.09374 -0.57717,-0.08709 -0.57717,-0.0344 -0.57716,0.06744 -0.57717,-0.05046 -0.57717,-0.03341 -0.57717,-0.109959 -0.57716,-0.712217 -0.57717,0.932232 -0.57717,0.08461 -0.57717,0.07341 -0.57717,-0.04096 -0.57716,0.03797 -0.57717,0.03707 -0.57717,0.05886 -0.57717,0.01115 -0.57716,0.06429 -0.57717,0.07785 -0.57717,-0.02809 -0.57717,-0.03364 -0.57717,0.09778 -0.57716,0.06607 -0.57717,-0.0068 -0.57717,0.193697 -0.57717,-0.160252 -0.57716,0.04303 -0.57717,0.104156 -0.57717,-0.03776 -0.57717,-0.450147 -0.57717,0.128238 -0.57716,0.162117 -0.57717,0.359923 -0.57717,0.168137 -0.57717,-0.01808 -0.57716,0.0093 -0.57717,0.01212 -0.57717,-0.0196 -0.57717,0.02532 -0.57716,0.922385 -0.57717,0.224967 -0.57717,-0.01806 -0.57717,1.549714 -0.57717,-0.130366 -0.57716,0.06064 -0.57717,0.06959 -0.57717,0.112241 -0.57717,0.01476 -0.57716,0.02909 -0.57717,0.168964 -0.57717,0.130848 -0.57717,0.804456 -0.57717,0.217076 -0.57716,0.01265 -0.57717,0.0632 -0.57717,-0.104217 -0.57717,-0.0052 -0.57716,-0.0132 -0.57717,0.09421 -0.57717,0.160447 -0.57717,0.0866 -0.57717,0.05412 -0.57716,0.123006 -0.57717,0.0054 -0.57717,0.150887 -0.57717,-0.271056 -0.57716,0.343046 -0.57717,0.162168 -0.57717,0.114917 -0.57717,-0.06794 -0.57716,0.201144 -0.57717,0.189024 -0.57717,0.03322 -0.57717,0.08589 -0.57717,0.08896 -0.57716,0.02679 -0.57717,0.118668 -0.57717,0.05181 -0.57717,0.08032 -0.57716,-0.354265 -0.57717,0.08154 -0.57717,0.153265 -0.57717,-0.118805 -0.57717,0.245976 -0.57716,0.129845 -0.57717,0.212215 -0.57717,-0.207906 -0.57717,0.116869 -0.57716,0.141082 -0.57717,0.122822 -0.57717,-0.0089 -0.57717,0.104789 -0.57717,0.155235 -0.57716,0.09483 -0.57717,0.235846 -0.57717,0.110262 -0.57717,-0.03853 -0.57716,-0.163222 -0.57717,-0.07366 -0.57717,0.02646 -0.57717,0.01769 -0.57716,0.02727 -0.57717,0.17975 -0.57717,0.210602 -0.57717,0.228001 -0.57717,-0.0062 -0.57716,0.133012 -0.57717,0.08631 -0.57717,0.301293 -0.57717,-0.05405 -0.57716,0.163112 -0.57717,0.101035 -0.57717,0.09611 -0.57717,0.131586 -0.57717,-0.06984 -0.57716,0.210132 -0.57717,-0.05129 -0.57717,0.01443 -0.57717,-0.119537 -0.57716,0.04083 -0.57717,0.142157 -0.57717,-0.0037 -0.57717,-0.03266 -0.57717,0.01886 -0.57716,0.148884 -0.57717,0.398058 -0.57717,0.158719 -0.57717,-0.358609 -0.57716,0.219376 -0.57717,0.159863 -0.57717,-0.0059 -0.57717,0.266722 -0.57716,-0.11614 -0.57717,0.326731 -0.57717,0.279619 -0.57717,0.28373 -0.57717,0.139343 -0.57716,0.361601 -0.57717,0.151434 -0.57717,0.150467 -0.57717,0.05509 -0.57716,0.31501 -0.57717,-0.01034 -0.57717,0.155872 -0.57717,0.198545 -0.57717,0.378243 -0.57716,0.233187 -0.57717,0.199665 -0.57717,0.08257 -0.57717,0.418494 -0.57716,0.08217 -0.57717,0.199259 -0.57717,0.06847 -0.57717,0.348681 -0.57716,0.161772 -0.57717,0.212902 -0.57717,0.139805 -0.57717,0.146937 -0.57717,0.314838 -0.57716,0.21768 -0.57717,-0.09659 -0.57717,0.213478 -0.57717,0.257746 -0.57716,0.285918 -0.57717,0.249591 -0.57717,0.104945 -0.57717,0.159383 -0.57717,0.04803 -0.57716,0.24011 -0.57717,0.073 -0.57717,0.214116 -0.57717,0.338333 -0.57716,-0.322059 -0.57717,-0.272479 -0.57717,1.226289 -0.57717,-0.11546 -0.57717,0.379431 -0.57716,0.238456 -0.57717,0.406821 -0.57717,0.255327 -0.57717,0.130417 -0.57716,0.464716 -0.57717,0.112029 -0.57717,0.399019 -0.57717,0.39966 -0.57716,-0.155586 -0.57717,0.48144 -0.57717,0.159473 -0.57717,0.548911 -0.57717,0.401101 -0.57716,0.382353 -0.57717,-0.116691 -0.57717,0.151865 -0.57717,0.219078 -0.57716,0.307369 -0.57717,0.432042 -0.57717,0.462755 -0.57717,0.455006 -0.57717,0.46557 -0.57716,0.521465 -0.57717,0.0693 -0.57717,0.148983 -0.57717,0.230995 -0.57716,0.573518 -0.57717,0.616292 -0.57717,0.469824 -0.57717,-0.0872 -0.57717,0.608606 -0.57716,0.442319 -0.57717,0.691742 -0.57717,0.378389 -0.57717,0.565887 -0.57716,0.43265 -0.57717,0.12279 -0.57717,0.65777 -0.57717,0.57914 -0.57716,0.38624 -0.57717,-0.20115 -0.57717,0.32819 -0.57717,1.45303 -0.57717,0.46941 -0.57716,0.19144 -0.57717,0.32071 -0.57717,0.64972 -0.57717,1.5582 -0.57716,0.45363 -0.57717,-0.0176 -0.57717,0.60055 -0.57717,0.50196 -0.57716,0.69347 -0.57717,0.71132 -0.57717,1.43635 -0.57717,0.84147 -0.57717,0.76015 -0.57716,1.01428 -0.57717,0.34646 -0.57717,0.49598 -0.57717,0.17364 -0.57717,0.97629 -0.57716,0.82364 -0.57717,0.89533 -0.57717,0.35623 -0.57717,0.1569 -0.57716,0.16447 -0.57717,0.73746 -0.57717,0.6348 -0.57717,0.42384 -0.57716,0.66699 -0.57717,0.77068 -0.57717,0.92271 -0.57717,0.67978 -0.57717,0.50806 -0.57716,0.84468 -0.57717,0.57067 -0.57717,-0.27481 -0.57717,0.82726 -0.57716,0.86812 -0.57717,0.77493 -0.57717,0.99617 -0.57717,0.913 -0.57717,0.73442 -0.57716,0.9252 -0.57717,0.8217 -0.57717,0.84208 -0.57717,0.73137 -0.57716,0.0307 -0.57717,0.59222 -0.57717,0.59277 -0.57717,8.92737 -0.57717,0.62183 -0.57716,0.41124 -0.57717,0.20064 -0.57717,-0.37851 -0.57717,0.28526 -0.57716,0.45448 -0.57717,0.33234 -0.57717,0.47189 -0.57717,0.62841 -0.57716,0.10073 -0.57717,0.23647 -0.57717,1.58144 -0.57717,0.006 -0.57717,0.69669 -0.57716,-0.005 -0.57717,0.50658 -0.57717,0.27939 -0.57717,0.57963 -0.57716,0.49664 -0.57717,8.63592 -0.57717,1.1099 -0.57717,0.68749 -0.57717,1.39903 -0.57716,0.29357 -0.57717,0.6978 -0.57717,0.52752 -0.57717,0.60164 -0.57716,0.82701 -0.57717,0.4714 -0.57717,0.4749 -0.57717,0.45017 -0.57717,0.39059 -0.57716,3.61023 -0.57717,0.19768 -0.57717,0.24068 -0.57717,-0.28378 -0.57716,0.77154 -0.57717,0.41534 -0.57717,0.56897 -0.57717,0.23434 -0.57716,0.27386 -0.57717,0.25413 -0.57717,0.26753 -0.57717,0.51549 -0.57717,0.3609 -0.57716,0.68352 -0.57717,0.73025 -0.57717,0.52179 -0.57717,1.37436 -0.57716,0.67999 -0.57717,0.32614 -0.57717,0.6464 -0.57717,-0.37782 -0.57716,0.20594 -0.57717,0.75315 -0.57717,0.20396 -0.57717,0.74671 -0.57717,0.35587 -0.57716,0.56001 -0.57717,14.16262 -0.57717,0.094 -0.57717,0.38593 -0.57717,0.3935 -0.57716,2.08324 -0.57717,4.63972 -0.57717,0.50761 -0.57717,0.3661 -0.57716,0.35901 -0.57717,0.4932 -0.57717,0.49234 -0.57717,0.20197 -0.57716,1.29802 -0.57717,0.58909 -0.57717,0.44766 -0.57717,0.46072 -0.57717,0.44906 -0.57716,0.4418 -0.57717,0.22504 -0.57717,0.20668 -0.57717,0.39506 -0.57716,12.76389 -0.57717,0.75665 -0.57717,0.15839 -0.57717,0.51456 -0.57717,0.61144 -0.57716,-0.1334 -0.57717,0.68383 -0.57717,0.62784 -0.57717,0.47386 -0.57716,16.01108 -0.57717,0.36104 -0.57717,0.2086 -0.57717,0.4291 -0.57717,0.4733 -0.57716,0.42532 -0.57717,0.43317 -0.57717,0.32416 -0.57717,0.39644 -0.57716,0.4878 -0.57717,0.49133 -0.57717,0.19805 -0.57717,0.52651 -0.57716,0.41581 -0.57717,5.54663 -0.57717,0.17847 -0.57717,0.50195 -0.57717,0.0574 -0.57716,0.3398 -0.57717,0.7545 -0.57717,0.74268 -0.57717,0.24849 -0.57716,0.28018 -0.57717,0.28498 -0.57717,2.48054 -0.57717,-0.24435 -0.57716,0.40482 -0.57717,-0.017 -0.57717,0.57506 -0.57717,0.45227 -0.57717,0.57179 -0.57716,0.32992 -0.57717,0.55807 -0.57717,0.55872 -0.57717,0.63359 -0.57717,0.13741 -0.57716,0.49929 -0.57717,0.39403 -0.57717,0.60829 -0.57716,0.4629 -0.57717,0.4577 -0.57717,0.35154 -0.57717,0.11075 -0.57717,4.3733 -0.57716,0.60136 -0.57717,0.30802 -0.57717,0.44162 -0.57717,0.40462 -0.57717,1.65584 -0.57716,0.5319 -0.57717,0.20789 -0.57717,0.44399 -0.57717,0.34899 -0.57716,0.28676 -0.57717,0.34771 -0.57717,4.67563 -0.57717,0.24245 -0.57717,0.15478 -0.57716,0.30871 -0.57717,0.88344 -0.57717,0.38962 -0.57717,0.0144 -0.57716,0.12608 -0.57717,0.10356 -0.57717,0.25582 -0.57717,0.0147 -0.57716,0.22633 -0.57717,0.0943 -0.57717,0.19298 -0.57717,0.33719 -0.57717,0.20794 -0.57716,0.27393 -0.57717,0.19576 -0.57717,0.3038 -0.57717,0.31037 -0.57716,0.26948 -0.57717,0.21274 -0.57717,0.23453 -0.57717,0.32103 -0.57717,0.26636 -0.57716,0.23637 -0.57717,0.10635 -0.57717,0.25097 -0.57717,0.26968 -0.57716,0.35236 -0.57717,0.24449 -0.57717,0.24721 -0.57717,0.1818 -0.57716,0.37652 -0.57717,0.39167 -0.57717,0.29059 -0.57717,0.19035 -0.57717,0.31145 -0.57716,0.28495 -0.57717,0.12292 -0.57717,0.27992 -0.57717,0.41336 -0.57716,0.3412 -0.57717,0.3424 -0.57717,0.12542 -0.57717,0.46024 -0.57716,0.30337 -0.57717,0.15874 -0.57717,0.21562 -0.57717,0.3729 -0.57717,0.19965 -0.57716,3.91805 -0.57717,0.24539 -0.57717,0.39483 -0.57717,0.26693 -0.57717,0.24729 -0.57716,0.25487 -0.57717,0.15029 -0.57717,0.22541 -0.57717,0.23485 -0.57716,0.17835 -0.57717,0.15777 -0.57717,0.13659 -0.57717,0.44177 -0.57716,0.18391 -0.57717,0.16675 -0.57717,0.26051 -0.57717,0.21623 -0.57717,0.15182 -0.57716,0.21076 -0.57717,0.13775 -0.57717,0.2259 -0.57717,0.32446 -0.57716,0.17359 -0.57717,0.109 -0.57717,0.22898 -0.57717,0.10159 -0.57716,0.35676 -0.57717,0.31699 -0.57717,0.27824 -0.57717,0.1889 -0.57717,0.19736 -0.57716,0.23103 -0.57717,0.27478 -0.57717,0.31666 -0.57717,0.15637 -0.57717,0.33232 -0.57716,0.26742 -0.57717,0.50751 -0.57717,0.23002 -0.57717,0.18105 -0.57716,0.22104 -0.57717,0.18127 -0.57717,0.20979 -0.57717,0.42614 -0.57716,0.23095 -0.57717,0.19575 -0.57717,0.27304 -0.57717,0.3072 -0.57717,0.1903 -0.57716,0.35105 -0.57717,0.23847 -0.57717,0.30531 -0.57717,0.24662 -0.57716,0.30522 -0.57717,0.3723 -0.57717,0.23665 -0.57717,0.19725 -0.57717,0.37719 -0.57716,0.25667 -0.57717,0.24523 -0.57717,0.18349 -0.57717,0.37212 -0.57716,0.23962 -0.57717,0.21434 -0.57717,0.15996 -0.57717,0.26641 -0.57717,0.34123 -0.57716,0.32715 -0.57717,0.20675 -0.57717,0.28882 -0.57717,0.21092 -0.57716,0.18996 -0.57717,0.32078 -0.57717,0.14316 -0.57717,0.30465 -0.57716,0.35235 -0.57717,0.24018 -0.57717,0.27835 -0.57717,0.18108 -0.57717,0.37531 -0.57716,0.26514 -0.57717,0.27115 -0.57717,0.30008 -0.57717,0.31132 -0.57716,0.20724 -0.57717,0.31668 -0.57717,0.25242 -0.57717,0.28119 -0.57717,0.27035 -0.57716,0.0482 -0.57717,0.27306 -0.57717,0.27725 -0.57717,0.1935 -0.57716,0.28936 -0.57717,-0.1591 -0.57717,0.4621 -0.57717,0.55064 -0.57717,0.36336 -0.57716,0.1559 -0.57717,0.25172 -0.57717,0.26455 -0.57717,0.31472 -0.57716,0.42129 -0.57717,0.22089 -0.57717,0.35214 -0.57717,0.21028 -0.57717,0.10897 -0.57716,0.21382 -0.57717,0.20798 -0.57717,0.27009 -0.57717,0.22499 -0.57716,0.25839 -0.57717,0.21467 -0.57717,0.34371 -0.57717,0.32622 -0.57716,0.19564 -0.57717,0.24936 -0.57717,0.27429 -0.57717,0.24706 -0.57716,0.0834 -0.57717,0.20032 -0.57717,0.21242 -0.57717,0.32452 -0.57717,0.14157 -0.57716,0.33516 -0.57717,0.24735 -0.57717,0.29745 -0.57717,0.36307 -0.57717,0.30685 -0.57716,0.36105 -0.57717,0.27565 -0.57717,0.34026 -0.57717,0.31738 -0.57716,0.32454 -0.57717,0.21519 -0.57717,0.24947 -0.57717,0.31866 -0.57717,-0.0232 -0.57716,0.51185 -0.57717,0.32649 -0.57717,0.3008 -0.57717,0.0746 -0.57716,-9.2e-4 -0.57717,-2.45265 -0.57717,1.51189 z"
           style="fill:#e377c2;fill-opacity:0.1;fill-rule:nonzero;stroke:none"
           id="path32" />
      </g>
    </g>
    <g
       id="g34">
      <path
         d="m 203.05785,43.56 v -3.5"
         style="fill:#000000;fill-opacity:1;fill-rule:nonzero;stroke:#000000;stroke-width:0.8;stroke-linecap:butt;stroke-linejoin:round;stroke-miterlimit:10;stroke-dasharray:none;stroke-opacity:1"
         id="path36" />
      <g
         id="g38"
         transform="matrix(1.3,0,0,1.3,197.85785,24.049325)">
        <text
           xml:space="preserve"
           transform="scale(1,-1)"
           style="font-variant:normal;font-weight:normal;font-size:16px;font-family:STIXGeneral;-inkscape-font-specification:STIXGeneral-Regular;writing-mode:lr-tb;fill:#000000;fill-opacity:1;fill-rule:nonzero;stroke:none"
           id="text42"><tspan
             x="0"
             y="0"
             id="tspan40">0</tspan></text>
      </g>
      <path
         d="m 260.77463,43.56 v -3.5"
         style="fill:#000000;fill-opacity:1;fill-rule:nonzero;stroke:#000000;stroke-width:0.8;stroke-linecap:butt;stroke-linejoin:round;stroke-miterlimit:10;stroke-dasharray:none;stroke-opacity:1"
         id="path44" />
      <g
         id="g46"
         transform="matrix(1.3,0,0,1.3,244.96583,24.049325)">
        <text
           xml:space="preserve"
           transform="scale(1,-1)"
           style="font-variant:normal;font-weight:normal;font-size:16px;font-family:STIXGeneral;-inkscape-font-specification:STIXGeneral-Regular;writing-mode:lr-tb;fill:#000000;fill-opacity:1;fill-rule:nonzero;stroke:none"
           id="text50"><tspan
             x="0 8 16"
             y="0"
             id="tspan48">100</tspan></text>
      </g>
      <path
         d="m 318.4914,43.56 v -3.5"
         style="fill:#000000;fill-opacity:1;fill-rule:nonzero;stroke:#000000;stroke-width:0.8;stroke-linecap:butt;stroke-linejoin:round;stroke-miterlimit:10;stroke-dasharray:none;stroke-opacity:1"
         id="path52" />
      <g
         id="g54"
         transform="matrix(1.3,0,0,1.3,302.8794,24.049325)">
        <text
           xml:space="preserve"
           transform="scale(1,-1)"
           style="font-variant:normal;font-weight:normal;font-size:16px;font-family:STIXGeneral;-inkscape-font-specification:STIXGeneral-Regular;writing-mode:lr-tb;fill:#000000;fill-opacity:1;fill-rule:nonzero;stroke:none"
           id="text58"><tspan
             x="0 8 16"
             y="0"
             id="tspan56">200</tspan></text>
      </g>
      <path
         d="m 376.20817,43.56 v -3.5"
         style="fill:#000000;fill-opacity:1;fill-rule:nonzero;stroke:#000000;stroke-width:0.8;stroke-linecap:butt;stroke-linejoin:round;stroke-miterlimit:10;stroke-dasharray:none;stroke-opacity:1"
         id="path60" />
      <g
         id="g62"
         transform="matrix(1.3,0,0,1.3,360.56737,24.049325)">
        <text
           xml:space="preserve"
           transform="scale(1,-1)"
           style="font-variant:normal;font-weight:normal;font-size:16px;font-family:STIXGeneral;-inkscape-font-specification:STIXGeneral-Regular;writing-mode:lr-tb;fill:#000000;fill-opacity:1;fill-rule:nonzero;stroke:none"
           id="text66"><tspan
             x="0 8 16"
             y="0"
             id="tspan64">300</tspan></text>
      </g>
      <path
         d="m 433.92495,43.56 v -3.5"
         style="fill:#000000;fill-opacity:1;fill-rule:nonzero;stroke:#000000;stroke-width:0.8;stroke-linecap:butt;stroke-linejoin:round;stroke-miterlimit:10;stroke-dasharray:none;stroke-opacity:1"
         id="path68" />
      <g
         id="g70"
         transform="matrix(1.3,0,0,1.3,418.35375,24.049325)">
        <text
           xml:space="preserve"
           transform="scale(1,-1)"
           style="font-variant:normal;font-weight:normal;font-size:16px;font-family:STIXGeneral;-inkscape-font-specification:STIXGeneral-Regular;writing-mode:lr-tb;fill:#000000;fill-opacity:1;fill-rule:nonzero;stroke:none"
           id="text74"><tspan
             x="0 8 16"
             y="0"
             id="tspan72">400</tspan></text>
      </g>
      <path
         d="m 491.64172,43.56 v -3.5"
         style="fill:#000000;fill-opacity:1;fill-rule:nonzero;stroke:#000000;stroke-width:0.8;stroke-linecap:butt;stroke-linejoin:round;stroke-miterlimit:10;stroke-dasharray:none;stroke-opacity:1"
         id="path76" />
      <g
         id="g78"
         transform="matrix(1.3,0,0,1.3,476.02492,24.020525)">
        <text
           xml:space="preserve"
           transform="scale(1,-1)"
           style="font-variant:normal;font-weight:normal;font-size:16px;font-family:STIXGeneral;-inkscape-font-specification:STIXGeneral-Regular;writing-mode:lr-tb;fill:#000000;fill-opacity:1;fill-rule:nonzero;stroke:none"
           id="text82"><tspan
             x="0 8 16"
             y="0"
             id="tspan80">500</tspan></text>
      </g>
      <path
         d="m 549.3585,43.56 v -3.5"
         style="fill:#000000;fill-opacity:1;fill-rule:nonzero;stroke:#000000;stroke-width:0.8;stroke-linecap:butt;stroke-linejoin:round;stroke-miterlimit:10;stroke-dasharray:none;stroke-opacity:1"
         id="path84" />
      <g
         id="g86"
         transform="matrix(1.3,0,0,1.3,533.7345,24.030125)">
        <text
           xml:space="preserve"
           transform="scale(1,-1)"
           style="font-variant:normal;font-weight:normal;font-size:16px;font-family:STIXGeneral;-inkscape-font-specification:STIXGeneral-Regular;writing-mode:lr-tb;fill:#000000;fill-opacity:1;fill-rule:nonzero;stroke:none"
           id="text90"><tspan
             x="0 8 16"
             y="0"
             id="tspan88">600</tspan></text>
      </g>
      <path
         d="m 607.07527,43.56 v -3.5"
         style="fill:#000000;fill-opacity:1;fill-rule:nonzero;stroke:#000000;stroke-width:0.8;stroke-linecap:butt;stroke-linejoin:round;stroke-miterlimit:10;stroke-dasharray:none;stroke-opacity:1"
         id="path92" />
      <g
         id="g94"
         transform="matrix(1.3,0,0,1.3,591.48487,24.049325)">
        <text
           xml:space="preserve"
           transform="scale(1,-1)"
           style="font-variant:normal;font-weight:normal;font-size:16px;font-family:STIXGeneral;-inkscape-font-specification:STIXGeneral-Regular;writing-mode:lr-tb;fill:#000000;fill-opacity:1;fill-rule:nonzero;stroke:none"
           id="text98"><tspan
             x="0 8 16"
             y="0"
             id="tspan96">700</tspan></text>
      </g>
      <path
         d="m 664.79204,43.56 v -3.5"
         style="fill:#000000;fill-opacity:1;fill-rule:nonzero;stroke:#000000;stroke-width:0.8;stroke-linecap:butt;stroke-linejoin:round;stroke-miterlimit:10;stroke-dasharray:none;stroke-opacity:1"
         id="path100" />
      <g
         id="g102"
         transform="matrix(1.3,0,0,1.3,649.11524,24.049325)">
        <text
           xml:space="preserve"
           transform="scale(1,-1)"
           style="font-variant:normal;font-weight:normal;font-size:16px;font-family:STIXGeneral;-inkscape-font-specification:STIXGeneral-Regular;writing-mode:lr-tb;fill:#000000;fill-opacity:1;fill-rule:nonzero;stroke:none"
           id="text106"><tspan
             x="0 8 16"
             y="0"
             id="tspan104">800</tspan></text>
      </g>
      <g
         id="g108"
         transform="matrix(1.3,0,0,1.3,412.81236,6.3787)">
        <text
           xml:space="preserve"
           transform="scale(1,-1)"
           style="font-variant:normal;font-weight:normal;font-size:16px;font-family:STIXGeneral;-inkscape-font-specification:STIXGeneral-Regular;writing-mode:lr-tb;fill:#000000;fill-opacity:1;fill-rule:nonzero;stroke:none"
           id="text112"><tspan
             x="0 6.224 10.672 17.775999 25.775999"
             y="0"
             id="tspan110">steps</tspan></text>
      </g>
      <path
         d="m 180,56.111256 h -3.5"
         style="fill:#000000;fill-opacity:1;fill-rule:nonzero;stroke:#000000;stroke-width:0.8;stroke-linecap:butt;stroke-linejoin:round;stroke-miterlimit:10;stroke-dasharray:none;stroke-opacity:1"
         id="path114" />
      <g
         id="g116"
         transform="matrix(1.3,0,0,1.3,163.8,49.061519)">
        <text
           xml:space="preserve"
           transform="scale(1,-1)"
           style="font-variant:normal;font-weight:normal;font-size:16px;font-family:STIXGeneral;-inkscape-font-specification:STIXGeneral-Regular;writing-mode:lr-tb;fill:#000000;fill-opacity:1;fill-rule:nonzero;stroke:none"
           id="text120"><tspan
             x="0"
             y="0"
             id="tspan118">0</tspan></text>
      </g>
      <path
         d="m 180,106.73214 h -3.5"
         style="fill:#000000;fill-opacity:1;fill-rule:nonzero;stroke:#000000;stroke-width:0.8;stroke-linecap:butt;stroke-linejoin:round;stroke-miterlimit:10;stroke-dasharray:none;stroke-opacity:1"
         id="path122" />
      <g
         id="g124"
         transform="matrix(1.3,0,0,1.3,163.7928,99.6488)">
        <text
           xml:space="preserve"
           transform="scale(1,-1)"
           style="font-variant:normal;font-weight:normal;font-size:16px;font-family:STIXGeneral;-inkscape-font-specification:STIXGeneral-Regular;writing-mode:lr-tb;fill:#000000;fill-opacity:1;fill-rule:nonzero;stroke:none"
           id="text128"><tspan
             x="0"
             y="0"
             id="tspan126">2</tspan></text>
      </g>
      <path
         d="m 180,157.35302 h -3.5"
         style="fill:#000000;fill-opacity:1;fill-rule:nonzero;stroke:#000000;stroke-width:0.8;stroke-linecap:butt;stroke-linejoin:round;stroke-miterlimit:10;stroke-dasharray:none;stroke-opacity:1"
         id="path130" />
      <g
         id="g132"
         transform="matrix(1.3,0,0,1.3,163.836,150.26969)">
        <text
           xml:space="preserve"
           transform="scale(1,-1)"
           style="font-variant:normal;font-weight:normal;font-size:16px;font-family:STIXGeneral;-inkscape-font-specification:STIXGeneral-Regular;writing-mode:lr-tb;fill:#000000;fill-opacity:1;fill-rule:nonzero;stroke:none"
           id="text136"><tspan
             x="0"
             y="0"
             id="tspan134">4</tspan></text>
      </g>
      <path
         d="m 180,207.97391 h -3.5"
         style="fill:#000000;fill-opacity:1;fill-rule:nonzero;stroke:#000000;stroke-width:0.8;stroke-linecap:butt;stroke-linejoin:round;stroke-miterlimit:10;stroke-dasharray:none;stroke-opacity:1"
         id="path138" />
      <g
         id="g140"
         transform="matrix(1.3,0,0,1.3,163.7952,200.90497)">
        <text
           xml:space="preserve"
           transform="scale(1,-1)"
           style="font-variant:normal;font-weight:normal;font-size:16px;font-family:STIXGeneral;-inkscape-font-specification:STIXGeneral-Regular;writing-mode:lr-tb;fill:#000000;fill-opacity:1;fill-rule:nonzero;stroke:none"
           id="text144"><tspan
             x="0"
             y="0"
             id="tspan142">6</tspan></text>
      </g>
      <path
         d="m 180,258.59479 h -3.5"
         style="fill:#000000;fill-opacity:1;fill-rule:nonzero;stroke:#000000;stroke-width:0.8;stroke-linecap:butt;stroke-linejoin:round;stroke-miterlimit:10;stroke-dasharray:none;stroke-opacity:1"
         id="path146" />
      <g
         id="g148"
         transform="matrix(1.3,0,0,1.3,163.7976,251.54505)">
        <text
           xml:space="preserve"
           transform="scale(1,-1)"
           style="font-variant:normal;font-weight:normal;font-size:16px;font-family:STIXGeneral;-inkscape-font-specification:STIXGeneral-Regular;writing-mode:lr-tb;fill:#000000;fill-opacity:1;fill-rule:nonzero;stroke:none"
           id="text152"><tspan
             x="0"
             y="0"
             id="tspan150">8</tspan></text>
      </g>
      <path
         d="m 180,309.21567 h -3.5"
         style="fill:#000000;fill-opacity:1;fill-rule:nonzero;stroke:#000000;stroke-width:0.8;stroke-linecap:butt;stroke-linejoin:round;stroke-miterlimit:10;stroke-dasharray:none;stroke-opacity:1"
         id="path154" />
      <g
         id="g156"
         transform="matrix(1.3,0,0,1.3,154.3912,302.16594)">
        <text
           xml:space="preserve"
           transform="scale(1,-1)"
           style="font-variant:normal;font-weight:normal;font-size:16px;font-family:STIXGeneral;-inkscape-font-specification:STIXGeneral-Regular;writing-mode:lr-tb;fill:#000000;fill-opacity:1;fill-rule:nonzero;stroke:none"
           id="text160"><tspan
             x="0 8"
             y="0"
             id="tspan158">10</tspan></text>
      </g>
      <g
         id="g162"
         transform="matrix(0,1.3,-1.3,0,150.58123,139.69465)">
        <text
           xml:space="preserve"
           transform="scale(1,-1)"
           style="font-variant:normal;font-weight:normal;font-size:16px;font-family:STIXGeneral;-inkscape-font-specification:STIXGeneral-Regular;writing-mode:lr-tb;fill:#000000;fill-opacity:1;fill-rule:nonzero;stroke:none"
           id="text166"><tspan
             x="0 8.9119997 16.912001 31.136 35.136002 44.911999 52.911999 57.360001 62.688 70.688004 78.688004"
             y="0"
             id="tspan164">PoM Entropy</tspan></text>
      </g>
    </g>
    <g
       id="g168">
      <g
         id="g170"
         clip-path="url(#clipPath174)">
        <path
           d="m 203.05785,332.96547 0.57717,-0.70766 0.57717,-0.20102 1.7315,-1.42737 0.57717,-0.56689 0.57716,-0.32428 0.57717,1.14534 0.57717,-0.2562 0.57717,-0.40617 0.57717,-0.21901 0.57716,1.18317 2.30867,-1.18073 0.57717,-0.0949 3.46301,-1.59169 2.30867,-0.78358 1.15434,-0.53764 5.77167,-2.92704 2.30867,-1.64472 0.57717,0.22477 1.15434,-0.75503 0.57716,-0.18095 1.15434,-0.73654 3.46301,-1.06668 2.30867,-1.53356 0.57717,-0.73935 0.57716,0.20471 1.73151,-1.39229 1.15433,-0.4714 1.15434,-0.84019 1.15433,-0.69526 0.57717,-0.0674 0.57717,-0.52545 0.57717,0.62531 1.7315,-0.49899 0.57717,-0.28631 0.57716,-7.85693 0.57717,0.92966 0.57717,-0.10442 0.57717,0.0713 1.15433,-2.44301 0.57717,0.0306 0.57717,-8.81714 0.57717,-2.27806 0.57716,-0.98973 0.57717,4.11496 0.57717,-2.6469 1.15434,-3.01364 0.57716,1.09329 0.57717,-0.0742 0.57717,-2.66739 1.15433,2.89521 0.57717,-4.305 0.57717,-0.56515 0.57717,-0.40047 0.57717,-0.71415 1.15433,-1.09894 0.57717,-0.10897 1.15433,-1.34684 0.57717,-0.0744 0.57717,-0.38444 0.57717,0.16942 0.57716,0.0328 0.57717,-0.64833 0.57717,-0.44562 0.57717,-3.01396 0.57717,0.0603 0.57716,-1.58563 1.15434,-1.24131 0.57717,-0.14828 1.15433,-0.64475 0.57717,-0.19081 0.57717,-0.66413 2.88584,-2.45194 0.57716,-0.62785 0.57717,-0.88279 0.57717,-0.47431 0.57717,-0.11674 1.15433,-1.21985 0.57717,-0.63247 0.57717,-6.19259 0.57717,-3.10933 0.57716,-0.2317 0.57717,-1.95839 0.57717,-0.0551 0.57717,-4.04666 0.57716,-0.87915 0.57717,-1.1435 1.15434,-0.98858 0.57717,-5.31977 0.57716,0.0494 0.57717,-2.42324 0.57717,-0.76271 0.57717,-0.5312 0.57717,0.54427 0.57716,-0.55737 0.57717,-0.10215 0.57717,-0.35514 0.57717,-0.73899 0.57716,-0.55129 0.57717,-4.37468 0.57717,-3.00772 0.57717,-0.8352 0.57716,-0.0577 0.57717,-0.60207 0.57717,-2.94894 0.57717,-0.26556 1.15433,-1.24458 0.57717,-0.68104 0.57717,-1.31731 0.57717,-1.94614 0.57716,-0.7358 0.57717,-0.97337 0.57717,0.34819 0.57717,-0.54747 0.57716,-0.0236 0.57717,-0.66811 0.57717,-1.15007 1.15434,-1.06641 0.57716,-0.92309 1.73151,-1.71172 0.57716,-0.90297 0.57717,0.61025 0.57717,-0.12864 1.15434,-0.63006 0.57716,-0.59033 0.57717,-0.84797 0.57717,-0.36654 0.57717,-0.22745 1.7315,-2.50843 0.57717,-4.36064 0.57716,-0.60072 0.57717,-0.34078 0.57717,-0.12388 1.7315,-1.68398 0.57717,0.34954 0.57717,-0.29692 0.57717,-0.68726 0.57716,0.15646 0.57717,-0.24802 1.73151,-1.54153 0.57716,-4.60502 0.57717,-0.3616 2.30867,-2.49931 1.15434,-0.34901 0.57716,-0.62967 1.15434,-0.70725 0.57717,-4.90212 0.57717,-0.62714 0.57716,-0.36692 0.57717,-1.12388 0.57717,-0.20269 0.57717,-0.65169 0.57717,-0.27369 1.15433,-1.02278 1.15434,-1.21767 1.15433,-1.59962 0.57717,-0.17371 0.57717,-0.001 0.57716,-0.1734 0.57717,-0.46145 0.57717,-0.0552 0.57717,-0.41847 0.57717,-0.14157 0.57716,-0.43211 0.57717,-0.26501 0.57717,-2.80177 1.15433,-1.03075 0.57717,-2.84081 1.15434,-1.48502 0.57716,-1.76155 1.73151,-1.65159 2.30867,-1.11564 0.57717,-0.44596 0.57716,-0.13321 0.57717,-0.62691 2.30867,-0.62859 2.88584,-2.48267 0.57717,-0.36642 0.57717,-8.2043 0.57717,-4.59879 0.57716,-0.74983 0.57717,-1.35747 1.15434,-1.21141 1.15433,-0.84322 0.57717,-5.94617 0.57717,-4.32308 1.15433,-0.89265 0.57717,-0.3094 0.57717,0.33903 0.57717,-1.72892 0.57716,-0.66059 1.15434,-0.0856 1.15434,-1.07688 0.57716,-1.3755 0.57717,-0.20539 1.15434,-0.67895 0.57716,0.0172 0.57717,-0.36444 0.57717,-0.51943 0.57717,-0.092 1.15433,-0.73609 0.57717,-1.42969 1.15434,-0.25369 0.57716,-0.4514 1.15434,-0.24847 0.57717,-0.4886 0.57716,0.082 0.57717,-0.43582 0.57717,-1.05333 0.57717,-0.28617 1.15433,-1.04634 0.57717,-0.35578 0.57717,-0.64826 0.57717,-0.0453 0.57716,-0.83795 0.57717,-0.3085 0.57717,-0.58952 0.57717,-0.32867 0.57716,-0.4997 0.57717,-0.19757 0.57717,-0.52081 1.7315,-1.03392 0.57717,-0.44751 1.15434,-0.46831 1.15433,-0.91959 3.46301,-1.15191 1.15433,0.2031 1.15434,-0.54376 0.57717,0.0245 0.57716,-0.42169 0.57717,-0.89806 0.57717,-0.20818 0.57717,0.14476 1.7315,-0.30545 0.57717,0.0856 1.15433,-0.78559 0.57717,-0.23975 0.57717,-0.57147 0.57717,-0.38624 1.15433,-0.21908 1.15434,-0.53497 0.57717,-0.0778 1.15433,-0.89007 2.30867,-1.38746 0.57717,-0.0134 1.15434,-0.34457 1.15433,-0.60273 0.57717,-0.53823 0.57717,-0.0992 1.15433,-0.635118 0.57717,0.0022 1.15434,-0.894049 0.57716,-7.444839 0.57717,-0.35647 0.57717,0.264206 0.57717,-0.312785 2.88584,-0.969054 0.57716,-0.350631 0.57717,-3.927352 0.57717,-0.250321 0.57717,-0.08231 1.15433,-0.423364 1.73151,-0.39172 0.57716,-0.0085 0.57717,-0.357118 0.57717,-0.534875 0.57717,-0.07499 0.57716,-0.246772 0.57717,0.106012 1.15434,-0.355148 0.57716,-3.116666 1.15434,-0.569915 1.7315,-0.05803 0.57717,-0.256558 0.57717,0.214071 0.57717,-0.23555 0.57716,-0.65068 0.57717,0.14343 0.57717,-0.201846 0.57717,0.08353 0.57717,-0.169642 0.57716,0.08103 1.15434,-0.228968 0.57717,0.208916 0.57716,-0.789117 2.30868,-0.35827 0.57716,-0.265515 1.73151,-0.331641 0.57716,0.134941 1.15434,-0.411055 0.57717,-0.06221 1.15433,-0.266954 0.57717,-0.831829 2.30867,0.207164 2.88584,-0.696756 1.15434,-0.135399 0.57716,-2.36818 1.15434,-0.259823 1.15433,-0.339725 1.15434,-0.118928 0.57717,-0.166244 0.57717,-0.359298 0.57716,-0.102051 0.57717,0.279143 0.57717,-0.231269 0.57717,-0.06266 0.57716,0.223103 1.15434,-0.331766 2.88584,-0.21436 0.57717,-0.17415 0.57716,0.07494 0.57717,0.263489 0.57717,-0.159041 0.57717,0.04308 1.7315,-0.108956 0.57717,-0.03038 0.57717,0.09305 2.30867,-0.420871 1.15433,0.346548 1.15434,-0.08389 0.57716,0.211232 1.15434,-0.237826 0.57717,-0.631557 0.57717,0.01753 0.57716,-0.131686 0.57717,0.377228 1.15434,0.212532 2.30867,-0.177461 0.57717,-0.05726 0.57716,0.215948 1.15434,-0.220187 0.57717,0.145938 0.57716,-0.07741 1.15434,-0.02666 1.15434,-0.137038 0.57716,-0.221709 0.57717,-0.789411 0.57717,-0.06928 0.57717,0.08775 0.57716,-0.281601 2.88584,-0.484054 0.57717,-1.812028 1.15434,0.134371 0.57716,-0.140312 0.57717,-1.887619 0.57717,0.01785 1.15433,-0.175405 1.15434,-1.2e-4 1.15434,-0.03191 2.30867,-0.376272 0.57716,-0.628414 1.15434,-1.77e-4 1.7315,-0.485987 1.15434,0.140168 0.57717,1.054572 3.463,-0.140899 0.57717,0.23996 3.46301,-0.156051 0.57716,-0.833737 3.46301,-0.243074 0.57717,0.120164 2.30867,-0.114283 2.30867,0.0044 0.57717,0.324482 1.15433,0.125996 0.57717,-0.604649 2.88584,-0.05366 1.15434,-0.0044 2.88583,-0.04029 0.57717,0.124971 2.30867,-0.17255 2.88584,0.0468 0.57717,0.540155 1.15434,0.193869 1.15433,0.02341 3.46301,0.129015 1.7315,0.09343 0.57717,-0.202306 0.57717,0.31601 2.88583,-0.166538 0.57717,-0.529943 0.57717,0.07334 0.57717,-0.08868 0.57717,0.03705 1.15433,-0.06448 1.7315,-0.134043 0.57717,0.132243 1.15434,-0.04446 0.57717,-0.563043 0.57716,0.198687 1.73151,0.03152 0.57716,-0.125016 1.73151,-0.01643 0.57716,-0.06096 0.57717,-0.239836 1.73151,-0.02 0.57716,-0.469535 0.57717,-0.0122 1.15434,-0.183919 2.30867,0.04937 0.57717,-0.492128 0.57716,-0.04155 1.15434,0.113262 2.30867,-0.09164 1.7315,0.03276 1.15434,-0.008 1.7315,0.072 0.57717,0.02244 0.57717,0.733177 1.15433,0.04086 0.57717,-0.128586 0.57717,0.485274 1.7315,-0.160027 0.57717,0.04702 0.57717,-0.247623 0.57716,0.352789 0.57717,-0.0091 0.57717,0.187086 2.30867,-0.05859 4.61734,0.0034 0.57717,-1.542848 3.46301,0.265667 0.57716,-1.636953 7.50319,-0.06452 0.57716,0.122898 1.15434,-0.139541 0.57717,0.15939 2.30867,0.119611 0.57716,0.265003 1.73151,-0.0509 1.15433,0.09394 1.73151,-0.04258 2.30867,-0.01411 1.7315,0.116526 1.15434,0.02299 2.88584,0.118184 0.57716,-0.02682 1.15434,-0.257354 5.77168,0.06287 0.57716,0.398639 2.30867,-0.02176 2.30868,-0.08482 0.57716,-0.225349 0.57717,0.08715 0.57717,-0.126441 1.15434,-0.029 1.15433,-0.03444 0.57717,0.288755 3.463,-0.0312 1.15434,0.05018 1.15433,-0.111907 1.73151,0.0494 1.7315,0.02721 0.57717,-1.191209 2.88584,-0.02327 0.57717,-0.159931 v 0"
           style="fill:none;stroke:#17becf;stroke-width:4.5;stroke-linecap:square;stroke-linejoin:round;stroke-miterlimit:10;stroke-dasharray:none;stroke-opacity:1"
           id="path176" />
      </g>
    </g>
    <g
       id="g178">
      <g
         id="g180"
         clip-path="url(#clipPath184)">
        <path
           d="m 203.05785,332.68148 0.57717,-1.8477 0.57717,3.26637 1.15433,-0.024 1.15434,-0.59375 0.57716,-0.61762 0.57717,0.11682 1.15434,-0.57274 0.57717,-0.15873 4.61734,-2.67062 1.7315,-0.71067 1.15434,-0.5798 2.30867,-0.81429 1.7315,-0.80589 1.15434,-0.57634 2.88583,-1.17696 1.15434,-0.29417 2.88584,-1.61204 1.7315,-0.77593 1.15434,-1.30675 0.57717,0.47581 2.30867,-1.12183 0.57716,0.0557 4.04018,-2.0226 1.15433,-0.51549 0.57717,-0.42168 0.57717,-0.0988 4.04017,-1.8754 1.73151,-0.68832 1.7315,-0.92889 1.7315,-0.60782 0.57717,-0.37329 1.15434,-0.42789 1.15433,-0.68598 1.15434,-0.6521 1.15433,-1.01033 0.57717,-0.21547 2.30867,-1.56938 0.57717,-0.62385 1.7315,-1.07994 0.57717,-0.46414 2.88584,-1.15255 0.57717,-0.48955 1.7315,-0.81445 0.57717,-0.35718 0.57717,-0.2081 1.15433,-0.17124 0.57717,-0.24651 0.57717,-5.26539 0.57717,-2.49958 0.57716,-0.36673 0.57717,-0.0834 0.57717,-0.2311 1.15433,-0.28889 1.15434,-0.54585 1.15433,-0.3619 2.88584,-0.96512 0.57717,-0.40883 1.7315,-0.48608 4.61735,-1.99223 0.57716,-4.60816 0.57717,-0.19007 1.15434,-0.60587 0.57717,-0.1497 1.7315,-0.88109 1.15433,-0.61197 1.15434,-0.67664 0.57717,-0.11394 6.34884,-3.2296 1.7315,-0.5491 6.92602,-3.31339 0.57717,-0.1015 0.57716,-0.24936 0.57717,-0.038 0.57717,-0.26233 1.15433,-0.17843 0.57717,-0.046 0.57717,-0.38674 0.57717,-0.87581 0.57716,-0.33071 1.15434,-0.3435 0.57717,-5.77975 3.463,-2.26261 0.57717,-1.61212 1.15434,-0.84514 0.57717,-0.22058 0.57716,-0.62244 0.57717,-5.11694 0.57717,-0.0418 1.15434,-0.82634 2.30866,-2.07456 0.57717,-0.0963 1.73151,-1.79002 0.57716,-0.32588 0.57717,-0.6204 0.57717,-0.41253 0.57717,-0.63078 0.57717,-0.006 0.57716,-0.40787 0.57717,0.19412 0.57717,-4.1264 1.7315,-0.78104 1.15434,-1.49014 0.57716,-0.33689 0.57717,-0.0345 0.57717,-0.53237 0.57717,-0.18595 0.57717,-6.33277 4.61734,-3.24444 1.7315,-1.34664 0.57717,-0.19758 0.57717,-0.40177 0.57716,-17.23733 1.15434,-1.10658 0.57717,-0.69 0.57716,0.10392 1.15434,-1.04415 0.57717,-0.19532 0.57717,-0.74005 0.57716,-14.4975 0.57717,-0.37988 1.15434,-0.46831 2.30867,-1.74876 0.57717,-0.57056 0.57716,-1.08524 0.57717,-0.20849 1.15434,-0.95324 1.15433,-0.64678 0.57717,-0.54018 0.57717,-4.70097 0.57716,-2.42773 1.15434,-0.77251 0.57717,-0.0861 0.57717,-14.05649 1.7315,-1.56964 0.57717,-0.17238 0.57717,-0.69881 0.57716,-0.21153 0.57717,0.39385 0.57717,-0.60628 0.57717,-0.33428 0.57716,-0.61387 0.57717,-1.1701 0.57717,-0.46009 1.15433,-1.28601 0.57717,-0.30022 0.57717,-0.48993 1.7315,-0.70814 0.57717,-0.16814 0.57717,-0.5353 0.57717,-0.3732 0.57716,-0.70758 0.57717,0.15498 1.15434,-0.47715 0.57716,-3.80631 1.15434,-0.76874 1.15434,-0.82054 0.57716,-0.74727 1.73151,-1.62817 0.57716,-0.30353 0.57717,-1.66494 0.57717,-0.61168 0.57717,-1.26693 0.57717,-8.13582 2.30867,-1.54593 0.57716,-0.0348 0.57717,-0.57395 0.57717,-0.003 0.57717,-1.66646 1.15433,-0.37717 1.15434,-0.95913 1.7315,-0.98422 0.57717,0.47111 0.57717,-0.0768 0.57716,-0.31795 0.57717,-0.60014 0.57717,-7.79212 1.15434,-0.92775 0.57716,-0.009 1.15434,-1.20908 2.30867,-2.78 1.15434,-1.42954 1.15433,-1.38439 0.57717,0.23487 0.57717,-0.48589 0.57716,-0.72723 1.15434,-1.00046 1.15434,-1.41595 0.57716,-0.55836 0.57717,-0.31592 1.15434,-1.08848 1.15433,-0.21832 0.57717,-0.30182 1.7315,-2.23136 0.57717,-0.13155 0.57717,-0.39667 0.57717,-0.23202 0.57716,-0.86695 1.15434,-1.29906 0.57717,-1.22063 1.15433,-1.171419 1.15434,-0.906903 0.57717,-0.01095 0.57716,-0.382147 0.57717,-1.235272 0.57717,-0.518867 1.7315,-0.841704 0.57717,-1.126787 0.57717,-0.189647 0.57717,0.216827 0.57716,-0.335581 1.15434,-1.026146 0.57717,-0.125521 1.7315,-1.091629 0.57717,-0.562521 1.15433,-0.856445 0.57717,0.103519 1.15434,-0.881128 0.57716,-0.470645 1.15434,-0.318547 0.57717,-0.07749 2.30867,-1.534897 1.15433,-0.616726 1.15434,-0.331765 0.57717,0.255832 1.15433,-0.652725 0.57717,-0.445701 0.57717,-0.127641 0.57717,-0.407195 0.57716,0.06042 1.15434,-0.686896 0.57717,-0.103544 0.57716,-0.398816 1.15434,-0.284713 0.57717,-0.32837 0.57716,-0.167804 0.57717,-0.309178 0.57717,0.05597 0.57717,-1.151434 1.15433,0.469057 1.15434,-0.430051 0.57717,-0.07439 0.57716,-0.213786 1.15434,-0.143895 0.57717,-0.08497 2.30867,-0.86566 0.57717,0.233746 5.19451,-1.513029 0.57716,-0.0791 0.57717,-0.368361 1.15434,-0.244725 2.30867,-0.774485 0.57717,-0.01755 0.57716,-0.277048 1.73151,-0.352044 0.57716,-0.306944 0.57717,-0.103133 1.73151,-0.759935 0.57716,0.06211 0.57717,-0.203451 0.57717,4.94e-4 1.15433,-0.326422 0.57717,0.335587 0.57717,-0.134078 0.57717,-0.391927 1.15433,-0.169405 1.15434,0.01287 1.15433,-0.175119 1.73151,0.132808 0.57716,-0.154452 0.57717,0.05015 2.30867,-0.454566 0.57717,0.0078 0.57717,-0.266246 2.30867,-0.371298 1.15434,-0.32878 1.7315,-0.04862 0.57717,0.297646 1.7315,0.132211 0.57717,-0.209211 4.04017,-0.486114 0.57717,0.172569 1.7315,-0.49156 0.57717,0.07087 1.15434,-0.196821 0.57716,0.245185 1.73151,-0.154278 2.88584,-0.328583 0.57716,-0.172292 0.57717,0.01556 1.15434,-0.237533 0.57716,-0.295819 0.57717,0.291153 1.15434,-0.174499 1.15433,-0.129226 2.30867,-0.245711 2.30867,0.03724 0.57717,-0.19174 0.57717,-0.859206 1.7315,-0.313181 1.15434,-0.08331 1.15433,-0.08875 0.57717,0.125314 0.57717,-1.401875 0.57717,-0.02955 0.57717,-0.161036 0.57716,-0.978898 3.46301,-0.115725 0.57717,-0.405592 1.15433,-0.183954 0.57717,0.26362 0.57717,0.03762 1.15433,-0.131009 0.57717,0.121063 0.57717,-0.166357 1.15433,-0.07562 1.15434,-0.04665 1.15434,-0.03997 2.88583,-0.163445 0.57717,0.04185 1.15434,-0.145363 0.57717,-0.907734 0.57716,0.606165 1.15434,0.10985 2.30867,0.12415 1.7315,-0.113547 0.57717,0.05014 1.15434,-0.0881 0.57716,0.217425 0.57717,-0.0862 1.7315,0.163457 1.73151,-0.269252 1.7315,-0.06759 0.57717,0.164185 1.15433,-0.11904 1.15434,0.09271 2.30867,-0.02679 0.57717,0.114388 2.30867,-0.09509 1.15433,0.04082 1.15434,-0.282227 3.46301,-0.01921 2.30867,-0.021 0.57717,0.724881 0.57716,-0.118856 0.57717,0.01932 1.15434,-0.159169 1.15433,-0.196655 0.57717,0.105579 0.57717,0.366509 6.34884,-0.345897 0.57717,-0.146705 0.57717,0.06526 1.15433,-0.07106 1.73151,-0.09675 1.7315,-0.230703 0.57717,0.120144 0.57717,-0.243133 0.57716,-0.04316 2.30867,0.326386 0.57717,-0.431145 1.73151,-0.09939 0.57716,-0.002 1.15434,-0.25863 0.57717,0.192002 1.15433,0.0017 0.57717,-0.07996 1.15433,0.205371 2.30868,-0.01281 1.15433,-0.182782 1.15434,0.0067 1.7315,-0.02899 1.15434,0.02311 2.30867,-0.177927 1.15433,0.117035 1.7315,-0.111859 4.04018,0.16656 1.15433,0.0014 0.57717,0.04167 0.57717,-0.09452 0.57717,0.112312 2.30867,-0.134654 1.15433,-0.153956 1.15434,0.08663 0.57717,0.154982 1.7315,0.06759 1.15434,-0.112893 1.15433,0.120368 1.15434,0.09646 1.15433,-0.006 1.15434,-0.09985 0.57717,0.118401 2.30867,-0.08099 1.7315,-0.157631 0.57717,0.05146 0.57717,-0.406424 1.15433,-0.05611 0.57717,0.280853 0.57717,-0.385601 1.15433,-4.3e-5 0.57717,-0.139232 1.7315,0.01814 1.73151,0.0013 0.57716,0.03247 0.57717,0.655331 1.7315,-0.225048 0.57717,0.189807 1.15434,-0.0069 1.7315,0.0087 1.15434,-0.116948 2.88584,0.269059 v 0"
           style="fill:none;stroke:#e377c2;stroke-width:4.5;stroke-linecap:butt;stroke-linejoin:round;stroke-miterlimit:10;stroke-dasharray:16.65, 7.2;stroke-dashoffset:0;stroke-opacity:1"
           id="path186" />
      </g>
    </g>
    <g
       id="g188">
      <path
         d="M 180,43.56 V 348.48"
         style="fill:none;stroke:#000000;stroke-width:0.8;stroke-linecap:square;stroke-linejoin:miter;stroke-miterlimit:10;stroke-dasharray:none;stroke-opacity:1"
         id="path190" />
      <path
         d="M 687.27273,43.56 V 348.48"
         style="fill:none;stroke:#000000;stroke-width:0.8;stroke-linecap:square;stroke-linejoin:miter;stroke-miterlimit:10;stroke-dasharray:none;stroke-opacity:1"
         id="path192" />
      <path
         d="M 180,43.56 H 687.27273"
         style="fill:none;stroke:#000000;stroke-width:0.8;stroke-linecap:square;stroke-linejoin:miter;stroke-miterlimit:10;stroke-dasharray:none;stroke-opacity:1"
         id="path194" />
      <path
         d="M 180,348.48 H 687.27273"
         style="fill:none;stroke:#000000;stroke-width:0.8;stroke-linecap:square;stroke-linejoin:miter;stroke-miterlimit:10;stroke-dasharray:none;stroke-opacity:1"
         id="path196" />
      <path
         d="m 470.89859,301.58023 h 204.07797 c 5.17651,0 7.76481,0.85151 7.76481,2.55451 v 34.93427 c 0,1.703 -2.5883,2.55451 -7.76481,2.55451 H 470.89859 c -5.17651,0 -7.76478,-0.85151 -7.76478,-2.55451 v -34.93427 c 0,-1.703 2.58827,-2.55451 7.76478,-2.55451 z"
         style="fill:#ffffff;fill-opacity:0.8;fill-rule:nonzero;stroke:#cccccc;stroke-width:1.71296;stroke-linecap:butt;stroke-linejoin:miter;stroke-miterlimit:10;stroke-dasharray:none;stroke-opacity:0.8"
         id="path198" />
      <path
         d="m 468.43835,332.23 h 13 13"
         style="fill:none;stroke:#17becf;stroke-width:4.5;stroke-linecap:square;stroke-linejoin:round;stroke-miterlimit:10;stroke-dasharray:none;stroke-opacity:1"
         id="path200" />
      <g
         id="g202"
         transform="matrix(1.3,0,0,1.3,501.50925,326.3891)">
        <text
           xml:space="preserve"
           transform="scale(1,-1)"
           style="font-variant:normal;font-weight:normal;font-size:13px;font-family:STIXGeneral;-inkscape-font-specification:STIXGeneral-Regular;writing-mode:lr-tb;fill:#000000;fill-opacity:1;fill-rule:nonzero;stroke:none"
           id="text206"><tspan
             id="tspan204">Expected Improvement</tspan></text>
      </g>
      <path
         d="m 468.43835,313.80187 h 13 13"
         style="fill:none;stroke:#e377c2;stroke-width:4.5;stroke-linecap:butt;stroke-linejoin:round;stroke-miterlimit:10;stroke-dasharray:16.65, 7.2;stroke-dashoffset:0;stroke-opacity:1"
         id="path208" />
      <g
         id="g210"
         transform="matrix(1.3,0,0,1.3,644.94615,307.96097)">
        <text
           xml:space="preserve"
           transform="scale(1,-1)"
           style="font-variant:normal;font-weight:normal;font-size:13px;font-family:STIXGeneral;-inkscape-font-specification:STIXGeneral-Regular;writing-mode:lr-tb;fill:#000000;fill-opacity:1;fill-rule:nonzero;stroke:none"
           id="text214"
           x="-111.9231"><tspan
             id="tspan212">Upper Confidence Bounds</tspan></text>
      </g>
    </g>
  </g>
</svg>
